<?xml version="1.0" standalone="no"?>
<!DOCTYPE svg PUBLIC "-//W3C//DTD SVG 20010904//EN"
 "http://www.w3.org/TR/2001/REC-SVG-20010904/DTD/svg10.dtd">
<svg version="1.0" xmlns="http://www.w3.org/2000/svg"
 width="888.000000pt" height="850.000000pt" viewBox="0 0 888.000000 850.000000"
 preserveAspectRatio="xMidYMid meet">

<g transform="translate(0.000000,850.000000) scale(0.100000,-0.100000)"
fill="#000000" stroke="none">
<path d="M0 4250 l0 -4250 4440 0 4440 0 0 4250 0 4250 -4440 0 -4440 0 0
-4250z m4810 4195 c0 -16 -27 -32 -37 -22 -3 4 -3 13 0 22 8 20 37 20 37 0z
m1140 11 c0 -3 -4 -8 -10 -11 -5 -3 -10 -1 -10 4 0 6 5 11 10 11 6 0 10 -2 10
-4z m-1382 -18 c-3 -7 -11 -13 -18 -13 -7 0 -15 6 -17 13 -3 7 4 12 17 12 13
0 20 -5 18 -12z m440 -40 c-3 -7 -11 -13 -18 -13 -7 0 -15 6 -17 13 -3 7 4 12
17 12 13 0 20 -5 18 -12z m-1143 -9 c10 -15 -1 -23 -20 -15 -9 3 -13 10 -10
16 8 13 22 13 30 -1z m193 -26 c2 -8 -5 -13 -17 -13 -12 0 -21 6 -21 16 0 18
31 15 38 -3z m-473 -13 c0 -7 -6 -15 -12 -17 -8 -3 -13 4 -13 17 0 13 5 20 13
18 6 -3 12 -11 12 -18z m2105 10 c0 -5 -7 -10 -15 -10 -8 0 -15 5 -15 10 0 6
7 10 15 10 8 0 15 -4 15 -10z m-372 -27 c2 -8 -5 -13 -17 -13 -12 0 -21 6 -21
16 0 18 31 15 38 -3z m482 7 c0 -5 -7 -10 -15 -10 -8 0 -15 5 -15 10 0 6 7 10
15 10 8 0 15 -4 15 -10z m-1540 -25 c0 -15 -26 -32 -36 -23 -2 3 -2 13 2 22 8
20 34 21 34 1z m654 -8 c8 -12 7 -20 -2 -29 -16 -16 -47 13 -38 37 7 19 25 16
40 -8z m536 -3 c0 -16 -26 -19 -35 -4 -3 6 -4 14 0 20 8 13 35 1 35 -16z
m-1085 -4 c0 -22 -29 -18 -33 3 -3 14 1 18 15 15 10 -2 18 -10 18 -18z m1228
5 c1 -5 -6 -11 -15 -13 -11 -2 -18 3 -18 13 0 17 30 18 33 0z m-2233 -20 c0
-8 -7 -15 -15 -15 -16 0 -20 12 -8 23 11 12 23 8 23 -8z m600 0 c13 -16 6 -35
-15 -35 -18 0 -28 17 -21 35 7 19 20 19 36 0z m157 -18 c-5 -16 -37 -21 -50
-8 -18 18 11 43 35 30 10 -6 17 -16 15 -22z m-277 -2 c0 -19 -20 -29 -32 -17
-8 8 -7 16 2 26 14 17 30 12 30 -9z m687 8 c5 -15 -36 -28 -49 -15 -6 6 -7 15
-3 22 9 14 47 9 52 -7z m683 -18 c0 -18 -5 -25 -19 -25 -24 0 -33 13 -25 34
10 27 44 20 44 -9z m540 17 c0 -13 -12 -22 -22 -16 -10 6 -1 24 13 24 5 0 9
-4 9 -8z m-2705 -12 c3 -5 -1 -10 -9 -10 -9 0 -16 5 -16 10 0 6 4 10 9 10 6 0
13 -4 16 -10z m421 -11 c8 -14 -18 -31 -30 -19 -9 9 0 30 14 30 5 0 12 -5 16
-11z m1582 -22 c4 -20 -25 -34 -40 -19 -15 15 -1 44 19 40 10 -2 19 -11 21
-21z m292 -12 c0 -9 -10 -15 -25 -15 -18 0 -25 5 -25 18 0 10 3 22 6 25 10 10
44 -12 44 -28z m-1640 11 c0 -8 -5 -18 -11 -22 -14 -8 -33 11 -25 25 10 16 36
13 36 -3z m2180 -5 c0 -5 -7 -14 -15 -21 -18 -15 -42 1 -31 19 8 13 46 15 46
2z m237 3 c-3 -3 -12 -4 -19 -1 -8 3 -5 6 6 6 11 1 17 -2 13 -5z m108 -24 c3
-5 1 -10 -4 -10 -6 0 -11 5 -11 10 0 6 2 10 4 10 3 0 8 -4 11 -10z m-1520 -23
c21 -16 13 -37 -15 -37 -22 0 -34 15 -26 35 7 19 17 19 41 2z m745 9 c0 -2 3
-11 6 -20 5 -12 0 -16 -20 -16 -19 0 -26 5 -26 20 0 13 7 20 20 20 11 0 20 -2
20 -4z m-1877 -12 c9 -10 -4 -34 -18 -34 -17 0 -28 17 -20 30 7 11 28 13 38 4z
m471 -16 c13 -22 -14 -54 -38 -45 -16 6 -22 48 -9 61 11 11 35 3 47 -16z m793
-22 c-7 -17 -47 -22 -47 -7 0 5 7 17 16 26 19 19 40 6 31 -19z m-649 -3 c4
-28 -23 -49 -43 -33 -19 16 -19 25 1 45 20 20 38 15 42 -12z m146 11 c7 -19
-10 -44 -31 -44 -17 0 -27 24 -19 45 7 20 42 19 50 -1z m121 -12 c6 -17 -11
-32 -38 -32 -22 0 -33 26 -18 44 14 17 47 10 56 -12z m126 12 c11 -14 10 -18
-5 -29 -22 -17 -46 -9 -46 14 0 34 28 42 51 15z m1434 -5 c0 -7 -8 -15 -17
-17 -18 -3 -25 18 -11 32 10 10 28 1 28 -15z m-3045 -4 c0 -8 -7 -15 -15 -15
-8 0 -15 7 -15 15 0 8 7 15 15 15 8 0 15 -7 15 -15z m2608 -8 c2 -11 -3 -17
-17 -17 -23 0 -35 15 -26 31 10 15 39 6 43 -14z m-2440 -4 c5 -17 -26 -29 -40
-15 -6 6 -7 15 -3 22 9 14 37 9 43 -7z m1862 -3 c21 -14 0 -45 -31 -45 -19 0
-25 6 -27 28 -3 23 0 27 20 27 13 0 30 -5 38 -10z m108 -17 c2 -12 -4 -23 -13
-27 -32 -12 -48 17 -23 42 17 17 32 10 36 -15z m620 -1 c3 -17 -2 -22 -17 -22
-14 0 -21 6 -21 18 0 38 33 41 38 4z m-1960 -10 c2 -14 -2 -22 -12 -22 -19 0
-28 14 -20 35 9 21 28 14 32 -13z m139 7 c17 -17 4 -39 -22 -39 -27 0 -39 14
-31 35 6 18 37 20 53 4z m1305 -16 c27 -25 22 -43 -12 -43 -25 0 -30 4 -30 23
0 39 14 46 42 20z m928 -9 c0 -14 -21 -19 -33 -7 -9 9 13 34 24 27 5 -3 9 -12
9 -20z m-2514 1 c8 -20 -13 -45 -32 -38 -14 5 -19 34 -7 46 11 12 33 7 39 -8z
m2878 9 c23 -9 20 -24 -4 -24 -11 0 -20 7 -20 15 0 17 2 18 24 9z m-1129 -44
c0 -16 -6 -26 -19 -28 -27 -6 -40 12 -26 38 15 28 45 22 45 -10z m140 -1 c0
-19 -6 -25 -27 -27 -22 -3 -28 1 -28 17 0 20 27 43 45 37 6 -1 10 -14 10 -27z
m334 12 c12 -21 5 -31 -20 -31 -22 0 -33 16 -25 35 8 21 33 19 45 -4z m-2353
-2 c3 -6 -1 -18 -10 -27 -14 -14 -18 -15 -25 -3 -5 8 -7 20 -4 28 6 16 29 17
39 2z m-698 -17 c2 -7 -3 -12 -12 -12 -9 0 -16 7 -16 16 0 17 22 14 28 -4z
m1510 -24 c3 -22 -2 -29 -23 -34 -37 -9 -52 8 -37 41 17 36 56 31 60 -7z m99
16 c6 -17 -6 -46 -23 -51 -21 -6 -37 15 -30 41 7 30 43 36 53 10z m137 -7 c8
-14 8 -20 -4 -27 -38 -24 -76 3 -50 36 16 18 39 15 54 -9z m115 5 c11 -20 -2
-42 -25 -42 -18 0 -37 28 -30 45 8 21 43 19 55 -3z m1341 -12 c13 -24 5 -40
-20 -40 -22 0 -34 28 -19 46 16 19 26 17 39 -6z m-2590 -19 c0 -15 -29 -33
-45 -27 -18 7 -20 43 -2 49 14 5 47 -10 47 -22z m601 10 c20 -16 22 -21 10
-35 -17 -20 -50 -17 -64 6 -8 12 -7 21 2 32 17 20 24 20 52 -3z m143 3 c21
-21 4 -54 -28 -54 -39 0 -45 53 -8 63 10 3 18 5 19 6 1 0 9 -6 17 -15z m629
-5 c14 -22 2 -49 -22 -49 -22 0 -39 40 -26 60 9 15 35 9 48 -11z m136 2 c13
-24 -8 -55 -35 -49 -23 4 -30 33 -14 53 17 20 37 19 49 -4z m1359 -4 c2 -11
-3 -17 -17 -17 -23 0 -35 15 -26 31 10 15 39 6 43 -14z m-3238 -2 c0 -16 -27
-32 -37 -22 -3 4 -3 13 0 22 8 20 37 20 37 0z m2004 -8 c29 -21 16 -51 -22
-55 -28 -3 -32 0 -32 20 0 22 16 48 30 48 3 0 14 -6 24 -13z m594 -14 c3 -20
-1 -23 -27 -23 -33 0 -46 13 -37 36 9 25 60 14 64 -13z m-1764 11 c10 -4 16
-18 16 -36 0 -24 -4 -29 -21 -26 -31 4 -46 32 -30 52 15 18 14 18 35 10z
m1294 -22 c22 -28 14 -42 -22 -42 -38 0 -52 20 -36 50 11 21 37 17 58 -8z
m577 -2 c0 -16 -6 -26 -19 -28 -25 -5 -39 12 -31 38 10 31 50 24 50 -10z
m-2855 2 c0 -19 -23 -32 -37 -21 -20 17 -15 29 12 29 14 0 25 -4 25 -8z m2408
-4 c29 -29 1 -71 -39 -61 -33 9 -18 73 16 73 6 0 16 -5 23 -12z m832 -30 c0
-14 -6 -19 -22 -16 -26 3 -37 36 -17 49 17 10 39 -8 39 -33z m621 29 c-1 -12
-15 -9 -19 4 -3 6 1 10 8 8 6 -3 11 -8 11 -12z m-2986 -27 c0 -19 -6 -26 -24
-28 -29 -4 -43 15 -30 41 15 28 54 19 54 -13z m-517 -7 c-2 -10 -13 -19 -26
-21 -17 -3 -22 2 -22 17 0 16 6 21 26 21 19 0 25 -5 22 -17z m-103 -11 c0 -18
-20 -15 -23 4 -3 10 1 15 10 12 7 -3 13 -10 13 -16z m490 -12 c0 -20 -6 -26
-27 -28 -24 -3 -28 0 -28 21 0 30 9 39 35 35 14 -2 20 -10 20 -28z m1823 4 c3
-24 -21 -54 -44 -54 -21 0 -28 27 -15 56 14 32 54 30 59 -2z m822 7 c0 -22
-30 -37 -41 -20 -11 18 1 39 22 39 12 0 19 -7 19 -19z m-3512 -3 c-7 -20 -48
-23 -48 -4 0 11 9 16 26 16 16 0 24 -5 22 -12z m3090 -26 c3 -20 0 -23 -20
-20 -15 2 -24 11 -26 26 -3 20 0 23 20 20 15 -2 24 -11 26 -26z m137 -8 c0
-22 -5 -30 -22 -32 -20 -3 -23 1 -23 26 0 29 13 43 35 38 6 -2 10 -16 10 -32z
m-422 4 c17 -26 1 -50 -30 -46 -34 4 -43 36 -17 55 21 15 34 13 47 -9z m958 7
c-1 -15 -24 -12 -29 3 -3 9 2 13 12 10 10 -1 17 -7 17 -13z m-3013 -21 c4 -25
-22 -49 -43 -40 -15 5 -21 47 -8 60 14 14 48 1 51 -20z m-483 -14 c0 -18 -6
-26 -22 -28 -18 -3 -23 1 -23 21 0 28 9 39 30 35 9 -2 15 -14 15 -28z m-607
-2 c-3 -7 -11 -13 -18 -13 -7 0 -15 6 -17 13 -3 7 4 12 17 12 13 0 20 -5 18
-12z m987 -18 c0 -18 -6 -26 -23 -28 -13 -2 -25 3 -28 12 -10 26 4 48 28 44
17 -2 23 -10 23 -28z m2273 7 c5 -25 -16 -47 -44 -47 -18 0 -24 5 -24 23 0 13
6 29 12 35 18 18 52 11 56 -11z m670 0 c2 -12 -3 -17 -17 -17 -15 0 -21 6 -21
21 0 25 33 22 38 -4z m-248 -7 c8 -15 6 -21 -8 -29 -25 -14 -56 8 -46 32 8 23
41 22 54 -3z m570 -16 c0 -19 -28 -30 -42 -16 -8 8 -8 15 1 26 14 17 41 10 41
-10z m177 -10 c-9 -9 -28 6 -21 18 4 6 10 6 17 -1 6 -6 8 -13 4 -17z m-4207 6
c0 -5 -7 -10 -15 -10 -8 0 -15 5 -15 10 0 6 7 10 15 10 8 0 15 -4 15 -10z
m217 -6 c3 -8 1 -20 -6 -27 -14 -14 -47 15 -37 32 10 16 36 13 43 -5z m427 1
c9 -24 -4 -45 -29 -45 -25 0 -34 15 -27 43 5 21 48 23 56 2z m2536 -41 c0 -22
-4 -25 -26 -22 -38 4 -55 35 -30 53 26 19 56 2 56 -31z m-3560 11 c0 -8 -7
-15 -15 -15 -8 0 -15 7 -15 15 0 8 7 15 15 15 8 0 15 -7 15 -15z m915 -5 c7
-23 -10 -50 -31 -50 -21 0 -38 38 -23 56 17 21 47 17 54 -6z m3815 4 c0 -17
-22 -14 -28 4 -2 7 3 12 12 12 9 0 16 -7 16 -16z m-4204 -16 c4 -6 -3 -19 -16
-30 -21 -17 -25 -17 -38 -4 -13 12 -13 18 -2 30 15 19 46 21 56 4z m3164 -7
c7 -15 6 -23 -6 -35 -18 -19 -20 -19 -45 -6 -22 12 -25 30 -7 48 18 18 46 14
58 -7z m-3444 -2 c3 -6 1 -16 -5 -22 -9 -9 -14 -8 -21 3 -9 15 -4 30 10 30 5
0 12 -5 16 -11z m529 -28 c0 -28 -25 -47 -49 -38 -21 8 -21 31 0 52 23 22 49
15 49 -14z m3195 14 c18 -21 5 -45 -25 -45 -27 0 -41 20 -31 45 7 19 40 19 56
0z m630 -10 c0 -8 -7 -15 -15 -15 -8 0 -15 7 -15 15 0 8 7 15 15 15 8 0 15 -7
15 -15z m-820 -14 c14 -27 2 -51 -25 -51 -28 0 -43 34 -25 55 17 21 37 19 50
-4z m319 2 c11 -21 -3 -53 -24 -53 -26 0 -46 29 -35 51 13 24 46 25 59 2z
m751 7 c0 -5 -4 -10 -10 -10 -5 0 -10 5 -10 10 0 6 5 10 10 10 6 0 10 -4 10
-10z m-4930 -10 c0 -5 -7 -10 -15 -10 -8 0 -15 5 -15 10 0 6 7 10 15 10 8 0
15 -4 15 -10z m180 -11 c0 -5 -7 -9 -15 -9 -15 0 -20 12 -9 23 8 8 24 -1 24
-14z m307 -15 c4 -11 -1 -22 -12 -31 -16 -11 -21 -11 -35 3 -13 14 -13 17 4
30 26 18 35 18 43 -2z m233 1 c16 -19 -3 -45 -32 -45 -24 0 -34 26 -18 45 16
19 34 19 50 0z m3254 -31 c22 -21 4 -54 -30 -54 -35 0 -43 29 -15 52 28 22 26
22 45 2z m454 -2 c3 -9 -2 -13 -14 -10 -9 1 -19 9 -22 16 -3 9 2 13 14 10 9
-1 19 -9 22 -16z m102 -2 c0 -5 -4 -10 -10 -10 -5 0 -10 5 -10 10 0 6 5 10 10
10 6 0 10 -4 10 -10z m-226 -23 c7 -11 7 -20 0 -27 -15 -15 -44 -2 -44 19 0
35 25 39 44 8z m-4404 -2 c0 -8 -9 -15 -20 -15 -20 0 -26 11 -13 23 12 13 33
7 33 -8z m405 -5 c0 -22 -39 -19 -43 3 -3 15 1 18 20 15 12 -2 23 -10 23 -18z
m289 14 c20 -8 21 -38 2 -53 -11 -9 -20 -10 -35 -1 -25 13 -26 23 -5 44 18 18
17 18 38 10z m-486 -31 c-5 -26 -38 -29 -38 -4 0 15 6 21 21 21 14 0 19 -5 17
-17z m3967 -12 c3 -10 3 -26 -1 -35 -9 -23 -58 -17 -62 7 -8 40 51 66 63 28z
m745 -1 c0 -11 -6 -20 -14 -20 -18 0 -29 16 -21 30 11 18 35 11 35 -10z m-405
-41 c0 -17 -6 -25 -21 -27 -27 -4 -38 23 -17 43 21 21 38 14 38 -16z m-4169
-4 c8 -19 -13 -45 -31 -39 -16 7 -27 32 -19 45 9 15 44 10 50 -6z m248 -11 c8
-21 -1 -34 -24 -34 -19 0 -34 25 -24 41 9 15 41 10 48 -7z m4166 1 c0 -8 -6
-15 -14 -15 -17 0 -28 14 -19 24 12 12 33 6 33 -9z m-4677 -9 c8 -19 -15 -37
-32 -26 -17 10 -7 40 13 40 7 0 16 -6 19 -14z m4226 -10 c20 -24 -4 -58 -37
-54 -27 3 -39 25 -28 54 7 18 50 18 65 0z m-4084 -35 c0 -30 -14 -36 -40 -18
-25 19 -13 50 17 45 17 -2 23 -10 23 -27z m4373 1 c3 -18 -1 -22 -22 -22 -19
0 -26 5 -26 18 0 39 43 43 48 4z m-4112 3 c7 -18 -13 -45 -33 -45 -17 0 -27
24 -19 45 7 20 45 19 52 0z m4524 5 c0 -5 -4 -10 -10 -10 -5 0 -10 5 -10 10 0
6 5 10 10 10 6 0 10 -4 10 -10z m-5040 -35 c0 -9 -7 -18 -16 -22 -18 -7 -39
11 -30 26 11 17 46 13 46 -4z m4450 0 c20 -25 8 -50 -25 -50 -21 0 -31 5 -33
18 -4 21 14 47 33 47 7 0 18 -7 25 -15z m458 -7 c17 -17 15 -28 -7 -28 -22 0
-35 15 -26 30 8 13 18 13 33 -2z m221 -11 c13 -16 5 -27 -20 -27 -24 0 -35 20
-18 31 19 12 25 11 38 -4z m-4719 -33 c0 -17 -6 -24 -19 -24 -24 0 -39 39 -20
50 20 13 39 0 39 -26z m4340 1 c19 -23 8 -50 -20 -50 -16 0 -26 6 -28 18 -4
18 14 47 28 47 4 0 13 -7 20 -15z m-4890 -4 c0 -12 -20 -25 -27 -18 -7 7 6 27
18 27 5 0 9 -4 9 -9z m285 -16 c0 -30 -39 -27 -43 3 -3 20 0 23 20 20 15 -2
23 -10 23 -23z m4394 11 c18 -22 -4 -58 -32 -54 -25 3 -34 32 -17 53 16 19 34
19 49 1z m841 4 c0 -5 -4 -10 -10 -10 -5 0 -10 5 -10 10 0 6 5 10 10 10 6 0
10 -4 10 -10z m-5092 -49 c2 -13 -1 -28 -7 -34 -15 -15 -41 10 -41 40 0 20 4
24 23 21 14 -2 23 -11 25 -27z m4730 -3 c4 -21 -34 -34 -54 -17 -11 9 -12 15
-2 26 15 18 52 13 56 -9z m-4990 -15 c6 -19 -28 -29 -39 -12 -5 8 -9 18 -9 22
0 13 43 3 48 -10z m5206 -10 c4 -9 3 -20 -2 -25 -11 -11 -47 16 -38 30 11 17
33 15 40 -5z m-575 -7 c22 -26 -10 -63 -44 -50 -18 7 -20 35 -3 52 16 16 33
15 47 -2z m191 -1 c15 -18 6 -45 -13 -45 -20 0 -40 27 -33 45 7 19 30 19 46 0z
m284 -11 c8 -22 8 -24 -8 -24 -18 0 -29 16 -21 30 9 15 22 12 29 -6z m-5371
-25 c-7 -7 -20 -8 -30 -5 -17 7 -17 8 1 22 23 17 48 2 29 -17z m415 -7 c4 -28
-24 -41 -44 -20 -20 20 -7 50 20 46 13 -2 22 -12 24 -26z m-231 -8 c7 -19 -20
-49 -36 -40 -12 8 -15 39 -4 49 12 12 33 7 40 -9z m5431 -17 c2 -12 -3 -17
-17 -17 -12 0 -21 6 -21 13 0 31 32 34 38 4z m-608 -2 c20 -24 3 -57 -28 -53
-33 4 -42 36 -16 55 23 17 29 16 44 -2z m-5240 -16 c0 -5 -7 -9 -15 -9 -15 0
-20 12 -9 23 8 8 24 -1 24 -14z m5435 -3 c0 -30 -31 -44 -51 -24 -24 24 -11
50 23 46 20 -2 28 -9 28 -22z m-4895 -21 c15 -18 6 -45 -13 -45 -20 0 -40 27
-33 45 7 19 30 19 46 0z m5128 -19 c4 -21 -14 -37 -35 -29 -14 5 -18 35 -6 47
12 12 38 1 41 -18z m-5538 -6 c0 -5 -4 -10 -10 -10 -5 0 -10 5 -10 10 0 6 5
10 10 10 6 0 10 -4 10 -10z m160 -29 c0 -9 -4 -22 -9 -30 -8 -12 -12 -12 -25
-2 -19 16 -20 33 -5 48 15 15 39 5 39 -16z m5055 -12 c14 -42 -45 -66 -61 -24
-10 25 4 45 30 45 16 0 27 -7 31 -21z m210 -14 c0 -13 -8 -21 -23 -23 -26 -4
-42 25 -21 39 22 14 44 6 44 -16z m-5107 -18 c15 -17 -1 -40 -24 -35 -27 5
-32 48 -6 48 11 0 24 -6 30 -13z m4970 -14 c18 -35 -9 -69 -40 -52 -21 11 -24
39 -6 57 17 17 36 15 46 -5z m377 -18 c0 -22 -31 -33 -48 -16 -7 7 -6 15 3 26
17 21 45 15 45 -10z m-157 -8 c4 -21 -25 -34 -40 -19 -8 8 -8 16 2 27 16 19
34 15 38 -8z m-5958 3 c0 -5 -4 -10 -10 -10 -5 0 -10 5 -10 10 0 6 5 10 10 10
6 0 10 -4 10 -10z m674 -32 c7 -12 6 -21 -3 -32 -18 -21 -28 -20 -41 5 -9 15
-8 24 1 35 14 17 28 14 43 -8z m-514 5 c0 -5 -5 -15 -10 -23 -7 -11 -12 -12
-21 -3 -6 6 -8 16 -5 22 8 12 36 15 36 4z m355 -13 c0 -22 -39 -19 -43 3 -3
15 1 18 20 15 12 -2 23 -10 23 -18z m-255 0 c0 -5 -2 -10 -4 -10 -3 0 -8 5
-11 10 -3 6 -1 10 4 10 6 0 11 -4 11 -10z m6086 -21 c3 -6 1 -16 -4 -21 -13
-13 -45 8 -36 23 7 12 31 11 40 -2z m-148 -27 c3 -16 -2 -22 -17 -22 -24 0
-35 15 -27 36 9 23 40 13 44 -14z m-150 9 c20 -12 10 -46 -12 -46 -27 0 -46
33 -26 45 18 12 21 12 38 1z m-188 -16 c10 -12 10 -18 0 -30 -26 -31 -78 -8
-59 27 12 22 42 24 59 3z m-5426 -14 c3 -4 -1 -17 -9 -27 -10 -15 -16 -16 -26
-7 -6 6 -9 19 -6 27 7 17 32 22 41 7z m164 -17 c4 -25 -22 -49 -43 -40 -31 12
-9 70 25 64 8 -2 16 -13 18 -24z m5852 -24 c0 -5 -2 -10 -4 -10 -3 0 -8 5 -11
10 -3 6 -1 10 4 10 6 0 11 -4 11 -10z m-117 -14 c3 -8 -1 -20 -9 -27 -12 -10
-18 -9 -31 3 -8 9 -12 21 -9 27 10 16 43 14 49 -3z m-374 -30 c5 -29 -25 -47
-55 -34 -13 6 -24 16 -24 23 0 37 72 47 79 11z m-5801 3 c-2 -6 -8 -10 -13
-10 -5 0 -11 4 -13 10 -2 6 4 11 13 11 9 0 15 -5 13 -11z m5990 -12 c4 -20
-25 -34 -40 -19 -15 15 -1 44 19 40 10 -2 19 -11 21 -21z m-5818 4 c0 -6 -5
-13 -10 -16 -15 -9 -43 3 -35 15 8 13 45 13 45 1z m169 -10 c19 -12 4 -51 -19
-51 -25 0 -43 33 -28 48 14 14 28 15 47 3z m6001 -46 c0 -8 -4 -15 -10 -15 -5
0 -10 7 -10 15 0 8 5 15 10 15 6 0 10 -7 10 -15z m-465 -25 c0 -20 -6 -26 -28
-28 -18 -2 -29 2 -33 12 -11 28 4 48 33 44 22 -2 28 -8 28 -28z m363 -8 c4
-25 -19 -30 -37 -9 -8 10 -7 17 1 25 17 17 32 10 36 -16z m282 7 c0 -5 -7 -9
-15 -9 -15 0 -20 12 -9 23 8 8 24 -1 24 -14z m-6600 -3 c0 -19 -17 -29 -37
-22 -12 5 -13 9 -3 21 16 19 40 19 40 1z m165 -16 c7 -12 -12 -50 -26 -50 -13
0 -22 27 -15 45 6 17 32 20 41 5z m175 -19 c0 -22 -25 -45 -40 -36 -11 7 -14
38 -3 48 14 15 43 7 43 -12z m5818 -7 c4 -27 -20 -37 -44 -19 -16 11 -16 15
-5 29 19 22 45 16 49 -10z m-112 -38 c15 -12 17 -18 8 -33 -6 -10 -21 -18 -34
-18 -13 0 -28 8 -34 18 -9 15 -7 21 8 33 11 8 23 14 26 14 3 0 15 -6 26 -14z
m-6276 -20 c0 -18 -17 -29 -30 -21 -8 5 -7 11 1 21 15 18 29 18 29 0z m130 4
c0 -12 -28 -25 -36 -17 -9 9 6 27 22 27 8 0 14 -5 14 -10z m175 -15 c0 -13 -8
-21 -22 -23 -17 -3 -23 2 -23 16 0 10 3 22 7 26 13 13 38 1 38 -19z m6153 -12
c-3 -32 -44 -46 -54 -19 -10 26 4 46 31 46 23 0 26 -4 23 -27z m290 4 c2 -10
-3 -17 -12 -17 -18 0 -29 16 -21 31 9 14 29 6 33 -14z m-6248 -15 c0 -19 -28
-44 -46 -40 -25 4 -31 38 -9 54 18 13 55 3 55 -14z m6080 18 c0 -5 -4 -10 -10
-10 -5 0 -10 5 -10 10 0 6 5 10 10 10 6 0 10 -4 10 -10z m-227 -52 c8 -22 -13
-48 -37 -48 -28 0 -42 26 -25 46 14 17 56 18 62 2z m503 -19 c8 -14 -18 -31
-30 -19 -9 9 0 30 14 30 5 0 12 -5 16 -11z m-6766 -17 c0 -13 -12 -22 -22 -16
-10 6 -1 24 13 24 5 0 9 -4 9 -8z m6438 -16 c2 -10 -1 -23 -7 -29 -15 -15 -46
16 -37 38 8 21 40 15 44 -9z m-6120 -25 c4 -29 -9 -44 -31 -35 -20 7 -23 50
-4 57 20 9 32 2 35 -22z m-163 0 c0 -8 -8 -19 -17 -25 -22 -13 -44 5 -34 29 7
20 51 16 51 -4z m6179 -46 c6 -16 -18 -45 -38 -45 -8 0 -19 7 -26 15 -10 12
-10 18 0 30 16 19 56 19 64 0z m476 -20 c0 -8 -7 -15 -15 -15 -8 0 -15 7 -15
15 0 8 7 15 15 15 8 0 15 -7 15 -15z m-7050 -15 c0 -11 -7 -20 -15 -20 -15 0
-21 21 -8 33 12 13 23 7 23 -13z m7200 11 c0 -6 -4 -13 -10 -16 -5 -3 -10 1
-10 9 0 9 5 16 10 16 6 0 10 -4 10 -9z m-400 -21 c0 -24 -26 -38 -42 -22 -16
16 -2 42 22 42 13 0 20 -7 20 -20z m120 -11 c0 -20 -15 -26 -25 -9 -9 15 3 43
15 35 5 -3 10 -15 10 -26z m-6730 12 c0 -6 -5 -13 -10 -16 -15 -9 -43 3 -35
15 8 13 45 13 45 1z m104 -12 c-3 -5 -10 -7 -15 -3 -5 3 -7 10 -3 15 3 5 10 7
15 3 5 -3 7 -10 3 -15z m174 -3 c6 -29 -15 -43 -35 -24 -14 14 -14 20 -3 33
16 19 34 15 38 -9z m6181 -45 c13 -24 -8 -55 -34 -50 -28 6 -42 34 -26 53 18
22 48 20 60 -3z m-6579 -48 c0 -20 -24 -11 -28 10 -2 12 1 15 12 11 9 -3 16
-13 16 -21z m6748 -6 c4 -34 -25 -49 -44 -22 -10 13 -10 23 -3 37 15 27 43 18
47 -15z m-6423 -2 c0 -25 -40 -33 -49 -10 -9 24 2 37 27 33 14 -2 22 -10 22
-23z m6595 0 c0 -8 -9 -15 -20 -15 -11 0 -20 7 -20 15 0 8 9 15 20 15 11 0 20
-7 20 -15z m168 3 c-6 -18 -28 -21 -28 -4 0 9 7 16 16 16 9 0 14 -5 12 -12z
m167 2 c3 -5 -1 -10 -9 -10 -8 0 -18 5 -21 10 -3 6 1 10 9 10 8 0 18 -4 21
-10z m-7087 -38 c4 -30 -26 -42 -44 -17 -10 14 -11 22 -2 32 16 20 42 12 46
-15z m6487 -8 c22 -22 15 -48 -13 -52 -28 -4 -52 14 -52 38 0 31 40 39 65 14z
m-6767 -31 c-4 -22 -22 -20 -26 1 -2 10 3 16 13 16 10 0 15 -7 13 -17z m7130
-10 c3 -21 -22 -38 -39 -27 -13 8 -11 42 4 47 20 9 32 2 35 -20z m-6770 -2
c20 -12 11 -56 -12 -56 -27 0 -43 29 -27 49 15 18 21 19 39 7z m-163 -11 c9
-15 -14 -40 -36 -40 -19 0 -27 29 -12 43 10 11 41 8 48 -3z m3180 -10 c89 9
252 -1 276 -16 6 -3 21 -1 34 6 18 10 28 9 53 -4 17 -9 36 -16 43 -16 20 0 80
-51 76 -63 -2 -7 5 -17 17 -24 19 -10 17 -12 -22 -22 -23 -7 -42 -17 -42 -23
0 -9 3 -9 12 0 7 7 23 12 37 12 23 0 23 -1 7 -19 -11 -12 -25 -17 -34 -14 -15
6 -15 4 1 -14 9 -11 14 -23 10 -26 -3 -4 3 -7 15 -7 11 0 24 -4 27 -10 4 -6
-13 -10 -44 -10 -28 0 -68 -7 -90 -16 -30 -12 -44 -13 -59 -5 -19 10 -33 10
-110 -5 -18 -4 -59 -1 -90 5 -86 16 -105 17 -109 4 -3 -7 2 -13 11 -13 8 0 18
-5 21 -10 8 -13 -13 -40 -31 -40 -22 0 -16 20 7 28 13 5 -12 7 -59 6 -45 -1
-87 -6 -94 -10 -7 -5 -20 -8 -28 -6 -8 1 -22 -3 -30 -8 -12 -8 -13 -12 -2 -19
10 -6 4 -10 -18 -15 -71 -14 -110 -5 -89 21 9 10 3 13 -32 13 -24 0 -51 -5
-59 -10 -12 -8 -10 -10 8 -10 35 0 21 -23 -19 -32 -19 -4 -59 -9 -89 -12 -32
-3 -54 -9 -52 -15 3 -13 -11 -14 -23 -2 -13 12 -65 2 -65 -13 0 -7 -21 -11
-54 -12 -54 -2 -61 4 -42 35 7 11 2 13 -26 7 -19 -3 -54 -12 -79 -20 l-44 -14
43 -1 c23 -1 42 -5 42 -10 0 -5 10 -12 23 -15 12 -3 -3 -3 -33 -1 -77 6 -94 9
-100 16 -3 3 -24 9 -48 12 -30 4 -42 2 -39 -6 2 -7 13 -13 25 -15 27 -4 28
-10 0 -33 -23 -21 -78 -25 -108 -9 -13 7 -27 6 -46 -2 -22 -10 -28 -10 -32 0
-2 6 -11 12 -20 12 -14 -1 -12 -5 6 -20 20 -16 23 -27 19 -59 -3 -30 0 -41 12
-46 12 -5 13 -8 2 -14 -11 -7 -10 -11 5 -19 31 -17 7 -27 -70 -26 l-73 1 -12
-151 c-7 -83 -21 -227 -32 -321 -10 -93 -24 -278 -30 -410 -8 -172 -16 -246
-26 -263 -11 -18 -11 -23 -1 -27 10 -4 13 -102 14 -473 0 -304 5 -507 13 -581
10 -88 10 -115 1 -121 -7 -5 -8 -10 -2 -14 16 -9 59 -108 65 -148 7 -44 -5
-51 -60 -36 -68 18 -127 55 -191 116 -102 98 -120 153 -142 437 -6 77 -15 157
-19 177 -5 21 -5 40 1 46 5 5 5 19 0 33 -8 22 -9 174 -1 209 2 8 0 53 -5 100
-5 52 -4 120 3 175 6 50 13 173 16 275 6 196 8 226 17 235 3 3 1 26 -3 52 -5
27 -5 82 1 132 5 47 12 113 15 146 8 91 12 111 24 134 7 12 12 63 12 114 0
139 0 141 10 158 10 20 -6 29 -51 29 -16 0 -32 5 -35 10 -9 15 -28 12 -22 -4
4 -9 -3 -16 -19 -20 -15 -4 -22 -11 -18 -18 5 -8 -5 -9 -35 -5 -34 4 -47 1
-70 -19 -16 -13 -37 -24 -47 -24 -11 0 -39 -7 -63 -16 -32 -11 -46 -12 -51 -4
-7 12 -80 4 -80 -9 0 -14 -77 -35 -127 -34 -29 1 -53 -2 -53 -7 0 -15 -41 -19
-47 -4 -6 15 -43 20 -43 5 0 -5 -29 -9 -65 -9 -55 0 -70 4 -99 28 -102 80
-174 232 -129 272 18 17 270 60 391 67 7 1 11 5 7 10 -7 12 59 26 74 17 6 -4
24 0 40 9 17 8 49 15 73 15 24 0 51 7 61 15 11 7 26 11 35 8 10 -4 13 -2 8 5
-4 7 -3 12 3 12 5 0 13 -4 16 -10 10 -16 25 -12 25 8 0 15 2 15 10 2 9 -13 12
-13 23 0 6 8 19 16 27 17 8 1 28 5 44 9 21 5 27 4 22 -5 -11 -16 9 -13 24 4 7
8 21 15 31 15 10 0 20 4 23 8 3 5 19 8 36 7 16 -1 35 4 41 11 7 8 22 11 40 7
28 -5 29 -4 29 31 0 41 9 44 65 20 37 -15 104 -13 163 6 4 1 17 1 29 0 12 -1
39 7 59 16 21 10 53 17 71 16 19 -2 39 1 46 5 6 4 26 6 44 4 19 -1 33 2 33 8
0 6 10 10 23 10 12 -1 64 8 115 20 52 12 110 21 130 20 52 -1 144 18 152 32 6
8 9 8 14 0 4 -6 12 -9 17 -5 5 3 7 9 4 14 -6 10 47 20 170 30 197 16 350 32
354 36 3 2 14 1 25 -3 12 -3 39 -5 61 -3z m3590 -9 c0 -8 -8 -19 -17 -25 -14
-8 -21 -7 -34 6 -9 9 -13 21 -9 28 10 15 60 8 60 -9z m-140 -56 c0 -35 -24
-45 -49 -20 -22 22 -4 58 27 53 17 -2 22 -10 22 -33z m473 -13 c5 -17 -27 -27
-41 -13 -9 9 -8 14 3 21 18 11 32 8 38 -8z m-7170 -1 c17 -10 5 -61 -14 -61
-20 0 -34 31 -23 52 11 20 18 22 37 9z m172 -32 c0 -16 -5 -20 -27 -17 -30 3
-44 35 -22 49 19 11 49 -8 49 -32z m-460 16 c0 -8 -7 -15 -15 -15 -16 0 -20
12 -8 23 11 12 23 8 23 -8z m7186 0 c8 -20 -13 -45 -32 -38 -14 5 -19 34 -7
46 11 12 33 7 39 -8z m-7008 -18 c4 -20 -25 -34 -40 -19 -15 15 -1 44 19 40
10 -2 19 -11 21 -21z m7140 -20 c7 -8 7 -18 2 -27 -11 -18 -43 -2 -48 24 -4
20 30 22 46 3z m-263 -17 c10 -16 -14 -50 -36 -50 -22 0 -34 22 -25 45 6 17
51 21 61 5z m565 -16 c0 -8 -5 -12 -10 -9 -6 4 -8 11 -5 16 9 14 15 11 15 -7z
m-7205 -48 c0 -30 -31 -44 -51 -24 -15 14 -15 20 -4 33 18 21 55 15 55 -9z
m6998 -10 c3 -8 -1 -22 -8 -33 -13 -17 -15 -17 -31 -1 -14 14 -15 20 -4 32 16
20 36 20 43 2z m-7293 -8 c0 -22 -17 -41 -29 -34 -19 12 -13 46 9 46 11 0 20
-6 20 -12z m7135 -18 c0 -29 -32 -41 -41 -16 -9 24 4 48 23 44 12 -2 18 -12
18 -28z m-7285 5 c0 -16 -27 -32 -37 -22 -3 4 -3 13 0 22 8 20 37 20 37 0z
m261 -7 c2 -16 -2 -42 -6 -46 -2 -2 -13 -1 -24 3 -20 6 -28 34 -14 48 11 12
43 8 44 -5z m-461 -8 c0 -5 -4 -10 -10 -10 -5 0 -10 5 -10 10 0 6 5 10 10 10
6 0 10 -4 10 -10z m7940 -5 c0 -8 -4 -15 -10 -15 -5 0 -10 7 -10 15 0 8 5 15
10 15 6 0 10 -7 10 -15z m-595 -35 c0 -30 -35 -40 -54 -16 -20 24 -6 48 26 44
22 -2 28 -8 28 -28z m433 8 c-2 -13 -7 -23 -13 -23 -5 0 -11 10 -13 23 -2 15
2 22 13 22 11 0 15 -7 13 -22z m-7193 -19 c4 -13 2 -27 -7 -36 -13 -12 -18
-11 -38 5 -29 23 -21 52 14 52 16 0 27 -7 31 -21z m3434 12 c25 -16 -7 -22
-100 -20 -78 2 -89 5 -73 16 20 15 151 18 173 4z m-315 -26 c46 -19 46 -26 -1
-25 -21 1 -53 -2 -70 -6 -39 -8 -46 15 -10 32 31 16 40 16 81 -1z m-3436 -32
c-4 -22 -48 -31 -48 -10 0 19 10 27 32 27 13 0 18 -6 16 -17z m7269 -19 c3 -8
-1 -22 -9 -30 -12 -12 -17 -12 -33 -1 -23 17 -14 47 15 47 11 0 23 -7 27 -16z
m138 -9 c0 -11 -7 -21 -16 -23 -18 -3 -33 23 -23 39 10 17 39 5 39 -16z
m-7285 -6 c0 -14 -5 -19 -17 -17 -26 5 -29 38 -4 38 15 0 21 -6 21 -21z m6998
9 c16 -16 15 -33 -4 -52 -12 -12 -20 -13 -35 -6 -18 10 -26 50 -12 63 10 11
38 8 51 -5z m412 -13 c0 -8 -7 -15 -15 -15 -16 0 -20 12 -8 23 11 12 23 8 23
-8z m-4790 -15 c0 -5 -2 -10 -4 -10 -3 0 -8 5 -11 10 -3 6 -1 10 4 10 6 0 11
-4 11 -10z m-2482 -51 c-4 -30 -42 -38 -52 -12 -5 12 0 24 15 36 26 21 42 10
37 -24z m6920 -31 c18 -18 14 -46 -7 -58 -34 -18 -67 30 -39 58 7 7 17 12 23
12 6 0 16 -5 23 -12z m-7078 -28 c0 -23 -5 -30 -19 -30 -30 0 -45 25 -26 44
26 26 45 20 45 -14z m7224 21 c9 -14 -4 -41 -19 -41 -17 0 -38 27 -30 40 8 12
42 13 49 1z m-7384 -30 c0 -27 -19 -36 -37 -18 -18 18 -9 37 18 37 12 0 19 -7
19 -19z m260 -41 c0 -42 -42 -54 -61 -18 -9 18 -8 24 6 34 18 14 55 3 55 -16z
m7179 -19 c7 -13 6 -24 -3 -37 -12 -15 -16 -16 -30 -5 -16 14 -21 42 -9 54 12
13 32 7 42 -12z m-7349 -22 c0 -14 -7 -19 -25 -19 -18 0 -25 5 -25 19 0 11 8
21 18 24 24 5 32 -1 32 -24z m7496 16 c4 -8 3 -23 0 -32 -6 -15 -8 -15 -23 -1
-16 17 -12 48 7 48 6 0 13 -7 16 -15z m264 5 c0 -5 -2 -10 -4 -10 -3 0 -8 5
-11 10 -3 6 -1 10 4 10 6 0 11 -4 11 -10z m-7910 -16 c0 -17 -22 -14 -28 4 -2
7 3 12 12 12 9 0 16 -7 16 -16z m7355 -49 c0 -22 -31 -33 -47 -17 -17 17 -1
44 24 40 15 -2 23 -10 23 -23z m-7665 0 c0 -8 -7 -15 -15 -15 -8 0 -15 7 -15
15 0 8 7 15 15 15 8 0 15 -7 15 -15z m190 -14 c0 -22 -21 -33 -40 -21 -18 11
-4 40 20 40 13 0 20 -7 20 -19z m400 -25 c0 -21 -27 -38 -50 -31 -25 8 -28 52
-2 58 23 5 52 -10 52 -27z m7528 -18 c-6 -18 -28 -21 -28 -4 0 9 7 16 16 16 9
0 14 -5 12 -12z m-7698 -29 c0 -23 -23 -25 -41 -3 -10 13 -10 17 1 24 19 12
40 1 40 -21z m-140 -5 c0 -31 -23 -28 -28 4 -2 15 2 22 12 22 11 0 16 -9 16
-26z m7550 7 c0 -11 -5 -23 -11 -27 -15 -9 -33 12 -26 30 9 23 37 20 37 -3z
m123 -3 c7 -20 -12 -48 -28 -42 -15 6 -20 35 -8 47 11 11 31 8 36 -5z m-229
-13 c7 -20 -29 -56 -48 -49 -21 8 -28 34 -15 50 15 19 55 18 63 -1z m-7584
-20 c0 -25 -23 -35 -35 -15 -10 16 2 40 20 40 9 0 15 -9 15 -25z m8008 -34 c3
-8 -1 -12 -9 -9 -7 2 -15 10 -17 17 -3 8 1 12 9 9 7 -2 15 -10 17 -17z m-7613
-21 c0 -20 -5 -25 -24 -25 -31 0 -52 31 -31 45 27 18 55 7 55 -20z m-595 -10
c0 -5 -4 -10 -10 -10 -5 0 -10 5 -10 10 0 6 5 10 10 10 6 0 10 -4 10 -10z
m320 -30 c0 -15 -7 -20 -25 -20 -24 0 -34 18 -18 33 15 15 43 7 43 -13z m7598
11 c20 -12 10 -46 -15 -49 -26 -4 -43 35 -22 49 17 11 21 11 37 0z m-7483 -11
c12 -20 -6 -50 -31 -50 -24 0 -30 13 -18 44 7 18 39 22 49 6z m7370 -20 c0
-21 -5 -25 -30 -25 -25 0 -30 4 -33 28 -3 27 -1 28 30 25 28 -2 33 -7 33 -28z
m-7655 -19 c0 -11 -5 -23 -11 -27 -15 -9 -33 12 -26 30 9 23 37 20 37 -3z
m7930 -2 c0 -15 -5 -20 -22 -17 -34 5 -37 38 -4 38 20 0 26 -5 26 -21z m-7522
-33 c-4 -25 -40 -33 -57 -13 -24 29 17 67 47 44 7 -6 12 -20 10 -31z m7654 2
c-6 -6 -16 -7 -22 -3 -9 6 -9 9 1 16 17 10 34 0 21 -13z m-377 -28 c10 -16
-14 -50 -35 -50 -19 0 -36 32 -25 50 8 13 52 13 60 0z m133 -33 c5 -25 -28
-34 -44 -12 -21 28 -17 37 13 33 17 -2 29 -10 31 -21z m-7554 -30 c-8 -22 -43
-22 -51 -1 -9 25 26 49 44 31 8 -7 11 -21 7 -30z m-514 23 c0 -5 -4 -10 -10
-10 -5 0 -10 5 -10 10 0 6 5 10 10 10 6 0 10 -4 10 -10z m8218 -17 c-5 -26
-38 -29 -38 -4 0 15 6 21 21 21 14 0 19 -5 17 -17z m-7880 -5 c19 -19 14 -28
-13 -28 -18 0 -25 5 -25 20 0 22 20 26 38 8z m-110 -15 c-4 -22 -22 -20 -26 1
-2 10 3 16 13 16 10 0 15 -7 13 -17z m406 -8 c22 -22 9 -47 -23 -43 -29 3 -42
35 -19 49 18 12 24 11 42 -6z m7721 -25 c3 -5 -1 -10 -9 -10 -8 0 -18 5 -21
10 -3 6 1 10 9 10 8 0 18 -4 21 -10z m-8255 -21 c0 -5 -7 -9 -15 -9 -15 0 -20
12 -9 23 8 8 24 -1 24 -14z m7868 4 c13 -26 4 -43 -23 -43 -24 0 -42 30 -30
50 10 16 44 12 53 -7z m122 -7 c0 -34 -24 -51 -44 -31 -19 20 -20 27 -4 43 21
21 48 14 48 -12z m-7605 -51 c0 -27 -3 -30 -30 -30 -21 0 -31 5 -33 18 -5 25
17 49 42 45 16 -2 21 -10 21 -33z m121 -27 c9 -28 -20 -52 -47 -37 -22 11 -24
30 -7 47 19 19 46 14 54 -10z m7644 12 c13 -9 13 -11 0 -19 -16 -11 -43 5 -34
20 7 11 15 11 34 -1z m-7902 -28 c4 -28 -24 -41 -44 -20 -20 20 -7 50 20 46
13 -2 22 -12 24 -26z m-150 -6 c3 -13 -1 -17 -14 -14 -11 2 -20 11 -22 22 -3
13 1 17 14 14 11 -2 20 -11 22 -22z m8192 -7 c0 -20 -15 -26 -25 -9 -9 15 3
43 15 35 5 -3 10 -15 10 -26z m-7952 -42 c3 -23 0 -27 -22 -27 -28 0 -36 26
-14 48 18 18 33 9 36 -21z m7719 8 c2 -6 -3 -20 -11 -30 -14 -19 -16 -19 -32
-3 -22 22 -11 50 18 46 12 -2 23 -8 25 -13z m-159 -23 c3 -20 0 -23 -25 -20
-20 2 -29 9 -31 26 -3 20 0 23 25 20 20 -2 29 -9 31 -26z m-7678 -11 c0 -11
-5 -23 -11 -27 -15 -9 -33 12 -26 30 9 23 37 20 37 -3z m255 -36 c0 -27 -3
-30 -30 -30 -21 0 -31 5 -33 18 -6 33 6 49 35 45 24 -3 28 -8 28 -33z m7705
16 c0 -22 -29 -36 -43 -22 -15 15 0 41 23 41 13 0 20 -7 20 -19z m-8294 -42
c10 -17 -13 -36 -27 -22 -12 12 -4 33 11 33 5 0 12 -5 16 -11z m149 -14 c0 -5
-10 -11 -22 -13 -16 -2 -23 2 -23 13 0 11 7 15 23 13 12 -2 22 -7 22 -13z
m8295 8 c0 -17 -19 -35 -29 -29 -18 12 -12 36 9 36 11 0 20 -3 20 -7z m-8006
-18 c13 -36 -23 -65 -49 -39 -18 19 -19 26 -3 42 17 17 45 15 52 -3z m7703 -1
c3 -8 -1 -23 -10 -32 -15 -14 -17 -14 -23 1 -8 21 1 47 16 47 6 0 13 -7 17
-16z m-107 -9 c10 -12 10 -18 0 -30 -7 -8 -18 -15 -26 -15 -16 0 -37 37 -29
50 9 15 41 12 55 -5z m-7712 -58 c3 -22 -1 -27 -18 -27 -23 0 -35 22 -26 46
10 25 41 12 44 -19z m256 7 c9 -24 -12 -56 -36 -52 -30 4 -45 32 -29 52 17 21
57 21 65 0z m7727 -28 c-16 -19 -41 -10 -41 14 0 24 21 31 39 14 11 -10 12
-16 2 -28z m-8151 -42 c0 -15 -6 -24 -15 -24 -15 0 -21 40 -9 53 12 11 24 -3
24 -29z m7895 -9 c0 -38 -37 -48 -55 -15 -14 27 4 52 34 48 16 -2 21 -10 21
-33z m152 1 c-4 -9 -11 -16 -17 -16 -17 0 -24 31 -9 41 18 11 34 -5 26 -25z
m-8167 -11 c0 -8 -4 -15 -9 -15 -13 0 -22 16 -14 24 11 11 23 6 23 -9z m395
-25 c0 -28 -27 -39 -50 -20 -21 18 -1 52 28 48 16 -2 22 -10 22 -28z m-167
-13 c2 -18 -1 -27 -11 -27 -21 0 -40 27 -33 46 10 25 41 12 44 -19z m292 -6
c13 -25 13 -27 -6 -45 -12 -12 -20 -13 -35 -6 -18 10 -26 50 -12 63 13 14 43
7 53 -12z m7768 -25 c3 -13 -1 -17 -14 -14 -11 2 -20 11 -22 22 -3 13 1 17 14
14 11 -2 20 -11 22 -22z m-264 -48 c14 -23 -3 -52 -32 -56 -16 -2 -23 3 -28
22 -3 14 -3 33 0 42 8 20 45 15 60 -8z m-2304 -9 c41 -11 92 -25 114 -30 39
-11 52 -22 112 -97 l34 -43 -5 -122 c-6 -151 -12 -220 -24 -264 -5 -18 -6 -33
-2 -33 5 0 6 -30 3 -67 -2 -38 -5 -85 -6 -105 0 -21 -4 -38 -7 -38 -3 0 -7
-21 -7 -46 -1 -25 -7 -54 -12 -64 -7 -13 -7 -21 1 -25 7 -5 4 -14 -8 -28 -10
-11 -12 -17 -5 -13 21 12 14 -52 -8 -74 -16 -16 -17 -20 -5 -20 18 0 18 3 4
-79 -16 -101 -19 -112 -29 -106 -6 4 -7 -2 -1 -17 4 -13 7 -41 6 -63 -6 -90
-15 -157 -25 -175 -5 -10 -10 -32 -10 -48 0 -16 -7 -35 -15 -42 -8 -6 -13 -22
-12 -33 1 -13 -3 -21 -10 -19 -7 1 -13 -5 -13 -13 0 -8 5 -15 12 -15 7 0 4 -6
-5 -12 -9 -7 -18 -30 -19 -50 -2 -26 -8 -38 -18 -38 -12 0 -12 -2 -2 -8 9 -6
10 -16 3 -34 -5 -14 -7 -29 -3 -33 3 -3 2 -9 -4 -13 -5 -4 -18 -25 -28 -48
-10 -23 -29 -53 -42 -67 -13 -14 -20 -29 -14 -32 13 -8 2 -34 -32 -73 -15 -18
-28 -39 -28 -47 0 -8 -4 -15 -8 -15 -5 0 -21 -18 -38 -39 -24 -34 -52 -51 -86
-55 -3 -1 -10 -4 -14 -8 -15 -15 -26 -8 -13 8 12 15 11 16 -11 8 -14 -5 -44
-8 -67 -8 -24 0 -43 -4 -43 -9 0 -5 -6 -4 -14 2 -8 7 -34 13 -58 13 -23 1 -45
4 -48 8 -3 3 -41 16 -85 28 -44 13 -87 29 -95 36 -8 7 -36 23 -61 35 -50 23
-129 91 -129 110 0 7 5 9 10 6 6 -3 10 1 10 9 0 28 32 36 73 16 20 -10 37 -16
37 -13 0 4 8 -1 18 -9 33 -29 88 -46 164 -53 96 -9 171 11 208 56 14 16 35 41
48 55 12 14 22 30 22 35 0 6 9 22 20 36 11 14 22 40 26 59 3 19 10 34 15 34 5
0 9 7 9 15 0 9 18 69 41 133 22 64 42 139 45 166 3 27 9 57 13 65 9 16 32 140
36 191 1 14 5 50 9 80 3 30 8 73 10 95 3 22 5 40 6 40 1 0 3 31 5 68 2 38 8
83 14 100 11 38 21 173 13 181 -6 6 -72 -61 -72 -73 0 -4 -13 -20 -30 -36 -16
-16 -30 -33 -30 -38 0 -6 -8 -16 -17 -23 -10 -7 -18 -16 -18 -21 0 -15 -44
-65 -53 -59 -5 3 -16 -4 -25 -15 -18 -21 -22 -33 -8 -25 5 3 11 0 14 -7 5 -14
-18 -39 -27 -30 -3 4 -6 -4 -6 -16 0 -12 -4 -19 -10 -16 -5 3 -8 0 -5 -7 3 -7
-15 -35 -40 -62 -25 -27 -45 -52 -45 -56 0 -4 -17 -12 -38 -18 -44 -14 -103
-6 -153 19 -51 25 -150 131 -174 186 l-20 45 -20 -22 c-11 -12 -33 -29 -48
-37 -21 -10 -28 -20 -24 -34 4 -13 0 -19 -11 -20 -13 0 -13 -2 3 -8 11 -5 23
-7 28 -4 4 2 7 -1 7 -7 0 -7 -7 -10 -15 -6 -8 3 -14 0 -12 -6 1 -7 -7 -17 -18
-22 -11 -5 -40 -33 -65 -61 -39 -45 -58 -57 -140 -89 -52 -21 -98 -43 -102
-49 -5 -8 -8 -8 -8 -1 0 13 -62 6 -71 -9 -11 -16 -147 9 -213 38 -33 14 -71
39 -86 56 -16 16 -27 29 -26 29 2 0 -13 17 -33 38 -46 48 -113 184 -142 287
-33 118 -33 260 1 334 27 62 95 168 122 192 10 9 18 21 18 27 0 6 10 19 23 29
13 10 26 25 29 34 9 23 72 70 97 72 15 1 19 6 16 18 -4 12 1 20 17 24 13 4 32
15 43 24 31 26 81 51 101 51 9 0 26 8 36 17 32 28 158 19 236 -17 87 -40 188
-141 197 -196 4 -21 11 -54 17 -71 12 -42 -6 -73 -79 -133 -30 -25 -84 -73
-120 -107 -37 -34 -81 -69 -99 -78 -18 -8 -46 -26 -61 -39 -26 -22 -220 -116
-238 -116 -5 0 -16 -7 -26 -16 -28 -25 -102 -11 -128 24 -25 33 -26 23 -10
-81 14 -88 57 -178 94 -195 57 -26 195 -11 233 25 7 7 18 13 23 13 6 0 27 11
47 25 20 14 44 25 53 25 8 0 21 11 29 24 7 14 18 22 25 20 7 -3 16 -1 20 5 3
6 1 11 -6 11 -17 0 2 20 22 24 8 1 34 21 58 44 24 23 51 42 58 42 8 0 12 4 9
9 -6 9 66 61 85 61 20 0 68 54 75 83 5 26 68 144 83 157 3 3 18 30 33 61 47
95 259 295 392 370 49 27 129 54 171 58 6 1 44 -8 85 -20z m2420 6 c16 -20 1
-39 -26 -33 -27 5 -32 48 -6 48 11 0 25 -7 32 -15z m-8155 -25 c0 -22 -29 -18
-33 3 -3 14 1 18 15 15 10 -2 18 -10 18 -18z m410 -19 c0 -30 -15 -36 -40 -17
-17 12 -17 16 -6 30 20 24 46 16 46 -13z m109 -27 c20 -19 20 -25 2 -49 -12
-17 -18 -18 -40 -7 -28 12 -34 40 -14 60 16 16 33 15 52 -4z m6321 -28 c68
-34 184 -142 218 -203 35 -65 60 -174 55 -243 -5 -69 -46 -158 -133 -292 -202
-308 -405 -475 -553 -455 -89 11 -181 76 -262 184 -92 121 -116 244 -79 405
12 51 25 111 30 134 9 48 47 116 60 108 5 -3 9 6 9 19 0 31 124 267 169 321
29 35 66 36 133 5 l63 -30 17 21 c10 12 34 30 55 41 51 26 147 19 218 -15z
m-6615 -1 c0 -18 -5 -25 -20 -25 -21 0 -24 8 -14 34 10 25 34 19 34 -9z m8120
15 c11 -7 12 -12 3 -21 -13 -13 -33 -4 -33 17 0 16 9 18 30 4z m-302 -42 c30
-30 -1 -74 -33 -48 -22 18 -19 60 3 60 10 0 23 -5 30 -12z m562 2 c0 -5 -4
-10 -10 -10 -5 0 -10 5 -10 10 0 6 5 10 10 10 6 0 10 -4 10 -10z m-8492 -23
c3 -14 -1 -18 -20 -15 -12 2 -24 11 -26 21 -3 14 1 18 20 15 12 -2 24 -11 26
-21z m8095 7 c20 -7 9 -44 -14 -44 -22 0 -33 16 -25 35 6 16 16 18 39 9z
m-7799 -41 c9 -23 -17 -47 -43 -38 -20 6 -28 34 -14 48 13 13 51 7 57 -10z
m116 -33 c0 -25 -15 -40 -40 -40 -16 0 -32 5 -35 10 -10 16 4 48 23 53 20 4
52 -10 52 -23z m-275 -11 c0 -17 -6 -24 -20 -24 -23 0 -33 34 -13 46 20 13 33
5 33 -22z m-280 -9 c-5 -8 -11 -8 -17 -2 -6 6 -7 16 -3 22 5 8 11 8 17 2 6 -6
7 -16 3 -22z m8320 -8 c0 -18 -20 -15 -23 4 -3 10 1 15 10 12 7 -3 13 -10 13
-16z m-240 -22 c0 -18 -6 -26 -23 -28 -13 -2 -25 3 -28 12 -10 26 4 48 28 44
17 -2 23 -10 23 -28z m148 -6 c-7 -18 -38 -36 -47 -27 -13 13 -5 52 12 55 23
6 42 -10 35 -28z m-8095 -10 c-4 -23 -26 -30 -34 -10 -8 20 15 51 29 37 5 -5
7 -17 5 -27z m300 -6 c22 -22 14 -40 -15 -36 -34 4 -48 48 -16 48 11 0 24 -5
31 -12z m8162 -12 c0 -3 -4 -8 -10 -11 -5 -3 -10 -1 -10 4 0 6 5 11 10 11 6 0
10 -2 10 -4z m-8041 -30 c6 -7 9 -20 5 -29 -15 -39 -72 -19 -60 21 8 25 38 29
55 8z m-579 -41 c0 -8 -4 -15 -9 -15 -13 0 -22 16 -14 24 11 11 23 6 23 -9z
m308 -6 c4 -19 -19 -31 -38 -19 -18 11 -4 42 17 38 10 -2 19 -10 21 -19z
m7823 1 c16 0 10 -26 -11 -45 -23 -20 -50 -14 -50 13 0 23 21 44 38 37 8 -3
18 -5 23 -5z m-7655 -26 c7 -29 -6 -47 -31 -42 -28 5 -41 33 -26 52 21 25 50
20 57 -10z m7914 11 c0 -8 -7 -15 -15 -15 -8 0 -15 7 -15 15 0 8 7 15 15 15 8
0 15 -7 15 -15z m-136 -24 c8 -13 -3 -38 -20 -45 -15 -6 -38 29 -29 44 8 13
42 13 49 1z m254 -18 c-4 -22 -22 -20 -26 1 -2 10 3 16 13 16 10 0 15 -7 13
-17z m-8320 -17 c3 -13 -1 -17 -14 -14 -11 2 -20 11 -22 22 -3 13 1 17 14 14
11 -2 20 -11 22 -22z m400 -18 c3 -22 -2 -29 -22 -34 -32 -8 -46 1 -46 31 0
44 63 47 68 3z m-253 -18 c8 -25 -1 -40 -25 -40 -25 0 -33 15 -20 40 14 26 37
26 45 0z m7785 -38 c0 -39 -44 -57 -55 -22 -9 27 1 40 31 40 16 0 24 -6 24
-18z m214 2 c20 -8 21 -44 2 -44 -18 0 -39 27 -31 40 7 12 8 12 29 4z m-7894
-20 c18 -21 -9 -49 -39 -39 -20 6 -28 34 -14 48 11 12 40 7 53 -9z m7809 2 c9
-10 9 -16 1 -21 -16 -10 -40 2 -40 20 0 19 24 20 39 1z m-8129 -22 c0 -16 -16
-19 -25 -4 -8 13 4 32 16 25 5 -4 9 -13 9 -21z m469 -16 c12 -33 3 -48 -29
-48 -34 0 -44 20 -24 49 20 27 42 27 53 -1z m-299 -29 c0 -25 -33 -22 -38 4
-2 12 3 17 17 17 15 0 21 -6 21 -21z m8210 -3 c0 -21 -21 -31 -30 -15 -5 7 -6
17 -4 21 9 14 34 9 34 -6z m-395 -41 c0 -21 -31 -33 -46 -18 -5 5 -7 17 -3 27
9 24 49 17 49 -9z m-7658 -21 c3 -8 -2 -23 -11 -32 -15 -15 -17 -15 -33 0 -13
14 -14 20 -3 32 16 20 39 20 47 0z m7761 -20 c-5 -25 -35 -41 -49 -27 -18 18
-3 43 26 43 19 0 26 -5 23 -16z m-8052 -5 c9 -15 -11 -33 -30 -26 -9 4 -13 13
-10 22 7 17 30 20 40 4z m428 -5 c24 -24 20 -53 -9 -60 -46 -11 -77 42 -37 65
23 14 28 14 46 -5z m7761 -4 c0 -22 -39 -19 -43 3 -3 15 1 18 20 15 12 -2 23
-10 23 -18z m-245 -45 c0 -17 -15 -35 -30 -35 -23 0 -38 39 -19 51 11 7 49 -5
49 -16z m352 -17 c-15 -15 -26 -4 -18 18 5 13 9 15 18 6 9 -9 9 -15 0 -24z
m-8392 12 c0 -5 -4 -10 -10 -10 -5 0 -10 5 -10 10 0 6 5 10 10 10 6 0 10 -4
10 -10z m238 -28 c2 -7 -3 -12 -12 -12 -9 0 -16 7 -16 16 0 17 22 14 28 -4z
m177 -32 c8 -26 -1 -40 -26 -40 -22 0 -34 22 -25 45 8 22 44 18 51 -5z m7761
9 c8 -14 -18 -31 -30 -19 -9 9 0 30 14 30 5 0 12 -5 16 -11z m-7636 -14 c20
-25 8 -50 -25 -50 -24 0 -31 5 -33 24 -6 37 34 55 58 26z m-252 -63 c3 -17 -2
-22 -17 -22 -14 0 -21 6 -21 18 0 38 33 41 38 4z m7730 -8 c4 -25 -22 -49 -43
-40 -15 5 -21 47 -8 60 14 14 48 1 51 -20z m392 -12 c0 -4 -5 -14 -10 -22 -9
-13 -11 -13 -19 0 -6 9 -6 19 1 27 10 12 28 9 28 -5z m-162 -19 c-5 -26 -38
-29 -38 -4 0 15 6 21 21 21 14 0 19 -5 17 -17z m-131 -36 c-5 -17 -38 -21 -48
-6 -13 21 9 41 33 28 10 -6 17 -16 15 -22z m-7942 13 c3 -5 1 -10 -4 -10 -6 0
-11 5 -11 10 0 6 2 10 4 10 3 0 8 -4 11 -10z m395 -21 c7 -11 9 -27 6 -35 -7
-19 -50 -18 -66 1 -10 13 -10 19 5 35 23 26 41 25 55 -1z m-135 -8 c0 -8 -8
-19 -17 -25 -22 -13 -44 5 -34 29 7 20 51 16 51 -4z m8095 -21 c0 -5 -4 -10
-10 -10 -5 0 -10 5 -10 10 0 6 5 10 10 10 6 0 10 -4 10 -10z m-542 -12 c15
-15 16 -45 2 -53 -19 -12 -50 6 -50 29 0 36 24 48 48 24z m-7674 -25 c4 -9 2
-21 -3 -26 -15 -15 -41 0 -41 23 0 25 35 28 44 3z m8014 -20 c-4 -22 -22 -20
-26 1 -2 10 3 16 13 16 10 0 15 -7 13 -17z m-233 -28 c0 -23 -34 -33 -45 -14
-13 20 1 40 24 37 13 -2 21 -10 21 -23z m-7945 -26 c0 -10 -7 -19 -15 -19 -15
0 -21 31 -9 43 11 10 24 -3 24 -24z m300 16 c15 -18 5 -35 -20 -35 -22 0 -34
15 -26 35 7 19 30 19 46 0z m150 0 c19 -23 4 -45 -30 -45 -38 0 -52 27 -25 46
24 18 40 18 55 -1z m7623 -12 c8 -7 -11 -33 -24 -33 -5 0 -9 9 -9 20 0 19 20
27 33 13z m-245 -21 c17 -12 4 -42 -18 -42 -23 0 -34 16 -26 35 6 17 24 19 44
7z m426 -43 c-3 -5 -10 -7 -15 -3 -5 3 -7 10 -3 15 3 5 10 7 15 3 5 -3 7 -10
3 -15z m-8046 -43 c-2 -13 -10 -21 -23 -21 -23 0 -32 30 -14 51 16 19 41 -1
37 -30z m102 -1 c15 -18 5 -35 -20 -35 -22 0 -34 15 -26 35 7 19 30 19 46 0z
m153 -6 c15 -24 1 -49 -27 -49 -19 0 -27 7 -32 24 -3 14 -3 30 1 36 10 15 46
8 58 -11z m7467 -20 c0 -15 -5 -20 -22 -17 -34 5 -37 38 -4 38 20 0 26 -5 26
-21z m-142 -31 c2 -9 -6 -22 -17 -27 -17 -9 -22 -8 -31 9 -6 11 -8 25 -5 31
10 16 49 6 53 -13z m402 -8 c0 -5 -4 -10 -10 -10 -5 0 -10 5 -10 10 0 6 5 10
10 10 6 0 10 -4 10 -10z m-8000 -20 c0 -5 -7 -10 -15 -10 -8 0 -15 5 -15 10 0
6 7 10 15 10 8 0 15 -4 15 -10z m7890 -41 c0 -15 -30 -23 -42 -11 -6 6 -8 18
-4 27 4 13 10 14 26 5 11 -6 20 -15 20 -21z m-7710 -28 c0 -23 -28 -35 -46
-20 -17 14 -18 31 -2 47 15 15 48 -3 48 -27z m7516 28 c10 -17 -23 -46 -37
-32 -7 7 -9 19 -6 27 7 18 33 21 43 5z m-7391 -24 c0 -14 -8 -21 -27 -23 -22
-3 -28 1 -28 16 0 25 10 33 35 30 12 -2 20 -10 20 -23z m7245 -50 c17 -20 5
-45 -20 -45 -23 0 -35 22 -26 45 7 19 30 19 46 0z m110 -41 c0 -8 -2 -14 -4
-14 -2 0 -11 -3 -20 -6 -11 -4 -16 0 -16 13 0 11 3 22 6 26 10 9 34 -4 34 -19z
m-7292 -18 c4 -20 -13 -36 -41 -36 -20 0 -32 23 -23 46 8 22 60 15 64 -10z
m-330 -14 c3 -17 -2 -22 -17 -22 -16 0 -21 6 -21 26 0 33 33 30 38 -4z m7786
19 c3 -5 -1 -14 -9 -21 -13 -10 -15 -9 -15 9 0 21 14 28 24 12z m-7626 -29 c3
-17 -2 -22 -17 -22 -14 0 -21 6 -21 18 0 38 33 41 38 4z m7312 -27 c15 -18 6
-45 -15 -45 -18 0 -30 24 -21 45 7 19 20 19 36 0z m147 -51 c7 -20 -22 -45
-43 -37 -17 6 -18 25 -2 41 17 17 38 15 45 -4z m-7238 -47 c-12 -10 -27 -16
-33 -14 -19 6 -19 40 0 54 15 11 21 10 37 -4 18 -17 18 -18 -4 -36z m-322 9
c-4 -9 -11 -16 -17 -16 -11 0 -14 33 -3 44 11 10 26 -11 20 -28z m186 2 c6
-18 -11 -48 -28 -48 -19 0 -27 16 -20 40 7 22 41 27 48 8z m7520 -13 c1 -5 -6
-11 -15 -13 -11 -2 -18 3 -18 13 0 17 30 18 33 0z m-325 -27 c17 -17 15 -36
-7 -47 -27 -15 -56 9 -47 37 8 24 35 29 54 10z m-7023 -32 c22 -16 14 -46 -13
-46 -29 0 -48 26 -32 45 15 18 21 19 45 1z m-475 -21 c0 -8 -4 -15 -10 -15 -5
0 -10 7 -10 15 0 8 5 15 10 15 6 0 10 -7 10 -15z m330 -10 c16 -20 6 -45 -19
-45 -20 0 -37 32 -26 50 9 15 31 12 45 -5z m7308 -22 c2 -8 -5 -13 -17 -13
-21 0 -35 13 -24 24 10 10 36 3 41 -11z m250 5 c-6 -18 -28 -21 -28 -4 0 9 7
16 16 16 9 0 14 -5 12 -12z m-7748 -13 c0 -8 -7 -15 -15 -15 -16 0 -20 12 -8
23 11 12 23 8 23 -8z m-70 -35 c0 -5 -7 -10 -15 -10 -8 0 -15 5 -15 10 0 6 7
10 15 10 8 0 15 -4 15 -10z m7380 -5 c17 -20 5 -45 -20 -45 -23 0 -35 22 -26
45 7 19 30 19 46 0z m-6942 -42 c4 -29 -28 -47 -53 -29 -12 9 -15 19 -10 35 9
30 59 26 63 -6z m7180 -6 c4 -20 -25 -34 -40 -19 -15 15 -1 44 19 40 10 -2 19
-11 21 -21z m-7500 -25 c3 -19 -1 -23 -15 -20 -10 2 -19 14 -21 26 -3 19 1 23
15 20 10 -2 19 -14 21 -26z m7352 2 c0 -8 -7 -14 -15 -14 -15 0 -21 21 -9 33
10 9 24 -2 24 -19z m-7166 -11 c9 -22 -2 -33 -30 -33 -19 0 -24 5 -24 24 0 37
41 43 54 9z m7030 -29 c8 -21 -1 -34 -24 -34 -19 0 -34 25 -24 41 9 15 41 10
48 -7z m-6863 -24 c10 -6 19 -17 19 -25 0 -18 -37 -38 -56 -31 -17 7 -18 38
-2 54 15 15 15 15 39 2z m-486 -21 c10 -15 -1 -23 -20 -15 -9 3 -13 10 -10 16
8 13 22 13 30 -1z m180 -9 c8 -13 -14 -42 -26 -34 -5 3 -9 14 -9 25 0 20 24
26 35 9z m7300 -20 c0 -8 -10 -16 -22 -18 -18 -3 -23 2 -23 18 0 16 5 21 23
18 12 -2 22 -10 22 -18z m293 -14 c3 -12 -1 -17 -10 -14 -7 3 -15 13 -16 22
-3 12 1 17 10 14 7 -3 15 -13 16 -22z m-7413 -6 c0 -8 -8 -16 -17 -18 -13 -2
-18 3 -18 18 0 15 5 20 18 18 9 -2 17 -10 17 -18z m7245 5 c0 -8 -9 -15 -20
-15 -11 0 -20 7 -20 15 0 8 9 15 20 15 11 0 20 -7 20 -15z m-302 -4 c19 -12
11 -45 -12 -49 -25 -5 -39 12 -31 37 7 22 21 26 43 12z m-7343 -41 c3 -5 1
-10 -4 -10 -6 0 -11 5 -11 10 0 6 2 10 4 10 3 0 8 -4 11 -10z m590 -20 c0 -19
-6 -26 -26 -28 -14 -2 -31 4 -39 12 -18 22 5 48 39 44 20 -2 26 -9 26 -28z
m-255 -40 c0 -24 -26 -38 -42 -22 -16 16 -2 42 22 42 13 0 20 -7 20 -20z m104
-3 c8 -13 7 -20 -3 -26 -19 -12 -41 -3 -41 18 0 35 25 39 44 8z m-256 -6 c3
-8 -1 -12 -9 -9 -7 2 -15 10 -17 17 -3 8 1 12 9 9 7 -2 15 -10 17 -17z m7235
5 c3 -8 -1 -22 -8 -33 -13 -16 -15 -17 -30 -2 -9 9 -13 23 -9 32 8 21 40 22
47 3z m-138 -16 c7 -23 -10 -50 -31 -50 -20 0 -34 31 -23 52 13 24 46 23 54
-2z m413 -17 c-5 -26 -38 -29 -38 -4 0 15 6 21 21 21 14 0 19 -5 17 -17z
m-124 -14 c-3 -5 -10 -7 -15 -3 -5 3 -7 10 -3 15 3 5 10 7 15 3 5 -3 7 -10 3
-15z m-6915 -8 c15 -26 -21 -60 -44 -41 -18 15 -20 46 -2 53 24 10 36 7 46
-12z m-149 -26 c15 -18 6 -45 -13 -45 -8 0 -20 7 -27 15 -10 12 -10 18 0 30
16 19 24 19 40 0z m7440 1 c0 -3 -4 -8 -10 -11 -5 -3 -10 -1 -10 4 0 6 5 11
10 11 6 0 10 -2 10 -4z m-711 -44 c11 -20 -2 -42 -25 -42 -18 0 -37 28 -30 45
8 21 43 19 55 -3z m-7149 -8 c0 -8 -4 -12 -10 -9 -5 3 -10 10 -10 16 0 5 5 9
10 9 6 0 10 -7 10 -16z m300 -4 c0 -5 -5 -12 -11 -16 -14 -8 -33 11 -25 25 7
11 36 4 36 -9z m6990 5 c15 -18 5 -35 -21 -35 -24 0 -37 29 -18 41 19 12 25
11 39 -6z m-6662 -29 c-2 -13 -12 -22 -25 -24 -19 -3 -23 1 -23 21 0 14 6 27
13 30 22 7 38 -5 35 -27z m6782 13 c0 -24 -23 -21 -28 4 -2 10 3 17 12 17 10
0 16 -9 16 -21z m-6913 -62 c-2 -7 -13 -13 -25 -15 -26 -4 -42 26 -21 38 16
11 52 -7 46 -23z m6714 -13 c11 -14 10 -18 -5 -29 -24 -18 -46 -8 -46 21 0 28
30 33 51 8z m-6981 -15 c0 -5 -4 -9 -10 -9 -5 0 -10 7 -10 16 0 8 5 12 10 9 6
-3 10 -10 10 -16z m468 9 c7 -7 12 -18 12 -25 0 -16 -39 -33 -57 -26 -26 10
-7 63 22 63 6 0 16 -5 23 -12z m6372 -23 c16 -19 4 -35 -25 -35 -28 0 -38 12
-29 34 8 20 38 21 54 1z m-6699 -11 c10 -13 10 -17 -1 -24 -14 -9 -50 4 -50
19 0 24 32 28 51 5z m6993 -7 c7 -11 7 -20 0 -27 -15 -15 -44 -2 -44 19 0 35
25 39 44 8z m-6824 -42 c18 -22 3 -57 -23 -53 -31 4 -39 68 -9 68 11 0 25 -7
32 -15z m-356 -16 c-3 -5 -10 -7 -15 -3 -5 3 -7 10 -3 15 3 5 10 7 15 3 5 -3
7 -10 3 -15z m581 -14 c0 -25 -4 -31 -27 -33 -22 -3 -29 2 -34 22 -8 34 3 48
34 44 23 -2 27 -8 27 -33z m6365 10 c10 -12 10 -18 0 -30 -25 -30 -61 -7 -46
30 3 8 12 15 19 15 8 0 20 -7 27 -15z m-140 -30 c13 -16 6 -35 -15 -35 -18 0
-28 17 -21 35 7 19 20 19 36 0z m303 9 c11 -11 -5 -34 -24 -34 -18 0 -26 20
-12 33 8 9 28 9 36 1z m-6878 -59 c0 -21 -31 -33 -46 -18 -5 5 -7 17 -3 27 9
24 49 17 49 -9z m225 -3 c0 -16 -24 -32 -47 -32 -28 0 -32 34 -6 49 18 9 53
-2 53 -17z m6960 13 c-7 -8 -16 -12 -21 -9 -13 8 -1 24 18 24 13 0 13 -3 3
-15z m-180 -10 c0 -8 -4 -15 -10 -15 -5 0 -10 7 -10 15 0 8 5 15 10 15 6 0 10
-7 10 -15z m-7130 -10 c13 -16 6 -35 -15 -35 -15 0 -28 27 -19 41 8 13 20 11
34 -6z m565 -24 c9 -30 -5 -51 -35 -51 -33 0 -49 32 -30 55 18 21 57 19 65 -4z
m6353 -13 c14 -14 -2 -48 -22 -48 -19 0 -29 30 -15 46 14 17 22 17 37 2z
m-135 -22 c7 -19 -18 -40 -38 -32 -15 6 -20 28 -8 39 12 12 41 7 46 -7z m-158
-26 c0 -18 -6 -26 -23 -28 -13 -2 -25 3 -28 12 -10 26 4 48 28 44 17 -2 23
-10 23 -28z m-6380 -6 c0 -10 -8 -20 -18 -22 -22 -4 -35 27 -16 39 20 12 34 5
34 -17z m6966 3 c-13 -13 -26 -3 -16 12 3 6 11 8 17 5 6 -4 6 -10 -1 -17z
m-6833 -6 c23 -14 10 -46 -21 -49 -28 -3 -34 9 -21 42 7 18 22 20 42 7z m6664
-43 c-15 -15 -26 -4 -18 18 5 13 9 15 18 6 9 -9 9 -15 0 -24z m-6437 -27 c0
-34 -32 -52 -50 -27 -19 25 -2 58 28 54 16 -2 22 -10 22 -27z m5953 -9 c-2
-10 -15 -18 -31 -20 -21 -3 -27 1 -27 15 0 11 5 24 12 31 15 15 50 -4 46 -26z
m-6253 -32 c0 -18 -6 -26 -22 -28 -20 -3 -23 1 -23 28 0 27 3 31 23 28 16 -2
22 -10 22 -28z m6403 12 c3 -9 -2 -13 -14 -10 -9 1 -19 9 -22 16 -3 9 2 13 14
10 9 -1 19 -9 22 -16z m-6233 -27 c0 -13 -8 -21 -22 -23 -19 -3 -23 1 -23 23
0 22 4 26 23 23 14 -2 22 -10 22 -23z m-497 -18 c2 -10 -3 -17 -12 -17 -10 0
-16 9 -16 21 0 24 23 21 28 -4z m170 12 c-2 -6 -8 -10 -13 -10 -5 0 -11 4 -13
10 -2 6 4 11 13 11 9 0 15 -5 13 -11z m571 -8 c8 -14 6 -22 -8 -35 -36 -32
-73 -7 -51 35 14 24 46 25 59 0z m5886 -4 c21 -16 13 -37 -15 -37 -19 0 -34
25 -24 41 7 12 17 11 39 -4z m-157 -9 c19 -19 15 -48 -8 -48 -23 0 -35 22 -26
45 7 18 18 19 34 3z m472 -3 c0 -8 -4 -15 -9 -15 -13 0 -22 16 -14 24 11 11
23 6 23 -9z m-129 -38 c-13 -13 -26 -3 -16 12 3 6 11 8 17 5 6 -4 6 -10 -1
-17z m321 1 c-7 -7 -12 -8 -12 -2 0 14 12 26 19 19 2 -3 -1 -11 -7 -17z
m-6532 -3 c7 -8 10 -22 6 -30 -7 -20 -55 -20 -62 0 -7 17 12 45 31 45 7 0 18
-7 25 -15z m-175 -20 c0 -13 -8 -21 -22 -23 -19 -3 -23 1 -23 23 0 22 4 26 23
23 14 -2 22 -10 22 -23z m-167 -18 c2 -12 -3 -17 -17 -17 -15 0 -21 6 -21 21
0 25 33 22 38 -4z m553 7 c17 -21 0 -49 -32 -49 -24 0 -36 23 -25 51 7 19 40
18 57 -2z m5594 -29 c0 -22 -31 -33 -47 -17 -17 17 -1 44 24 40 15 -2 23 -10
23 -23z m143 -1 c4 -25 -24 -40 -43 -24 -7 6 -11 20 -8 31 7 27 47 22 51 -7z
m-6390 -31 c2 -8 -5 -13 -17 -13 -12 0 -21 6 -21 16 0 18 31 15 38 -3z m6560
-26 c4 -20 -25 -34 -39 -20 -14 14 1 45 20 41 9 -2 17 -11 19 -21z m-6033 -12
c0 -13 -8 -21 -22 -23 -17 -3 -23 2 -23 16 0 10 3 22 7 26 13 13 38 1 38 -19z
m-330 -5 c0 -8 -10 -16 -22 -18 -18 -3 -23 2 -23 18 0 16 5 21 23 18 12 -2 22
-10 22 -18z m164 1 c12 -21 5 -31 -19 -31 -22 0 -44 25 -35 40 10 17 43 11 54
-9z m384 -2 c15 -24 1 -49 -28 -49 -21 0 -25 5 -25 28 0 16 3 32 7 36 11 10
35 3 46 -15z m5407 6 c15 -18 6 -45 -13 -45 -21 0 -38 25 -31 44 8 20 28 21
44 1z m503 -20 c0 -6 -7 -11 -16 -13 -12 -3 -15 1 -11 13 7 17 25 17 27 0z
m-353 -20 c0 -26 -18 -33 -37 -14 -16 16 -5 39 18 39 14 0 19 -7 19 -25z
m-5702 -32 c3 -22 -28 -40 -48 -28 -12 7 -13 38 -3 49 15 14 48 1 51 -21z
m-738 -19 c0 -8 -5 -12 -10 -9 -6 4 -8 11 -5 16 9 14 15 11 15 -7z m971 0 c17
-21 0 -49 -32 -49 -27 0 -37 28 -19 50 16 19 34 19 51 -1z m5597 -5 c4 -19
-19 -31 -38 -19 -18 11 -4 42 17 38 10 -2 19 -10 21 -19z m-6150 -42 c4 -20
-25 -34 -39 -20 -14 14 1 45 20 41 9 -2 17 -11 19 -21z m181 4 c16 -28 -13
-51 -36 -28 -18 18 -11 47 11 47 9 0 20 -9 25 -19z m5599 -9 c3 -20 0 -23 -20
-20 -15 2 -24 11 -26 26 -3 20 0 23 20 20 15 -2 24 -11 26 -26z m200 2 c4 -26
-20 -37 -43 -21 -10 8 -14 19 -9 30 9 25 48 18 52 -9z m342 1 c0 -8 -4 -15
-10 -15 -5 0 -10 7 -10 15 0 8 5 15 10 15 6 0 10 -7 10 -15z m-232 -19 c4 -21
-14 -37 -35 -29 -14 5 -18 35 -6 47 12 12 38 1 41 -18z m-6260 -4 c3 -9 -2
-13 -14 -10 -9 1 -19 9 -22 16 -3 9 2 13 14 10 9 -1 19 -9 22 -16z m599 -8 c4
-11 -1 -22 -12 -31 -16 -11 -21 -11 -33 1 -8 8 -12 22 -9 30 8 21 46 21 54 0z
m191 -26 c16 -16 -3 -48 -29 -48 -22 0 -34 22 -25 45 6 18 37 20 54 3z m5070
-12 c6 -27 -11 -38 -33 -22 -17 12 -17 16 -6 30 17 20 35 16 39 -8z m-5428
-27 c0 -20 -24 -26 -35 -9 -8 13 14 42 26 34 5 -3 9 -14 9 -25z m461 1 c23
-13 25 -43 3 -61 -31 -26 -70 25 -44 56 15 18 16 18 41 5z m5136 -34 c-8 -20
-43 -21 -51 -1 -3 8 2 22 11 30 14 15 18 15 31 1 8 -8 12 -22 9 -30z m-5785 9
c0 -5 -5 -11 -11 -13 -6 -2 -11 4 -11 13 0 9 5 15 11 13 6 -2 11 -8 11 -13z
m6131 -16 c-17 -17 -37 -1 -22 17 8 10 15 12 23 4 7 -7 7 -13 -1 -21z m-597
-18 c-4 -6 -16 -11 -27 -11 -21 0 -27 35 -6 43 16 6 41 -18 33 -32z m729 29
c-3 -5 -12 -10 -18 -10 -7 0 -6 4 3 10 19 12 23 12 15 0z m-5847 -12 c8 -8 9
-15 1 -25 -14 -17 -46 -17 -52 0 -11 32 25 51 51 25z m-153 -29 c-8 -12 -35
-12 -35 0 0 11 22 20 33 14 4 -2 5 -9 2 -14z m5400 -14 c0 -21 -31 -33 -46
-18 -5 5 -7 17 -3 27 9 24 49 17 49 -9z m255 5 c0 -5 -4 -10 -10 -10 -5 0 -10
5 -10 10 0 6 5 10 10 10 6 0 10 -4 10 -10z m-5152 -24 c4 -20 -13 -36 -41 -36
-20 0 -32 23 -23 46 8 22 60 15 64 -10z m-858 -7 c0 -5 -7 -9 -15 -9 -8 0 -15
7 -15 15 0 9 6 12 15 9 8 -4 15 -10 15 -15z m218 -6 c-5 -23 -23 -20 -26 4 -3
18 0 21 13 17 9 -4 15 -13 13 -21z m5892 3 c0 -3 -4 -8 -10 -11 -5 -3 -10 -1
-10 4 0 6 5 11 10 11 6 0 10 -2 10 -4z m-5482 -39 c4 -36 -23 -47 -49 -20 -27
26 -15 55 20 51 20 -2 27 -9 29 -31z m4877 3 c0 -16 -6 -26 -18 -28 -19 -4
-32 20 -23 44 9 25 41 13 41 -16z m407 -2 c8 -21 -2 -38 -23 -38 -19 0 -27 29
-12 43 11 11 31 8 35 -5z m328 -8 c0 -5 -5 -10 -11 -10 -5 0 -7 5 -4 10 3 6 8
10 11 10 2 0 4 -4 4 -10z m-5786 -16 c8 -21 -1 -34 -25 -34 -14 0 -19 7 -19
25 0 29 34 36 44 9z m510 0 c20 -8 21 -48 1 -64 -17 -14 -51 -5 -59 16 -3 9
-1 24 4 35 11 20 27 23 54 13z m4721 -24 c0 -8 -10 -16 -22 -18 -18 -3 -23 2
-23 18 0 16 5 21 23 18 12 -2 22 -10 22 -18z m-287 1 c19 -11 11 -45 -11 -49
-28 -6 -49 16 -36 39 10 20 26 24 47 10z m415 -5 c7 -18 -1 -26 -25 -26 -20 0
-21 1 -12 24 8 20 30 21 37 2z m190 8 c11 -11 -5 -34 -24 -34 -18 0 -26 20
-12 33 8 9 28 9 36 1z m-5253 -44 c0 -22 -19 -31 -42 -18 -21 10 -24 44 -5 51
19 7 47 -12 47 -33z m-662 -27 c2 -8 -5 -13 -17 -13 -12 0 -21 6 -21 16 0 18
31 15 38 -3z m968 9 c17 -12 23 -39 11 -51 -18 -18 -55 -13 -62 9 -11 34 23
62 51 42z m4512 -20 c2 -14 -2 -22 -12 -22 -19 0 -29 17 -22 36 8 22 30 12 34
-14z m-5248 9 c0 -11 -26 -22 -34 -14 -12 12 -5 23 14 23 11 0 20 -4 20 -9z
m220 -11 c0 -13 -7 -20 -20 -20 -13 0 -20 7 -20 20 0 13 7 20 20 20 13 0 20
-7 20 -20z m318 -18 c-5 -24 -52 -23 -56 2 -2 10 2 22 9 27 18 11 51 -9 47
-29z m4440 -15 c3 -22 -1 -27 -18 -27 -23 0 -35 22 -26 46 10 25 41 12 44 -19z
m397 -8 c0 -15 -7 -25 -18 -27 -22 -4 -33 24 -17 43 18 21 35 13 35 -16z m273
14 c-4 -22 -22 -20 -26 1 -2 10 3 16 13 16 10 0 15 -7 13 -17z m-5508 -18 c0
-19 -20 -29 -32 -17 -15 15 -2 43 17 36 8 -3 15 -12 15 -19z m494 -28 c9 -15
7 -21 -9 -33 -10 -8 -24 -13 -29 -11 -17 6 -29 34 -23 51 9 22 46 17 61 -7z
m226 -10 c0 -20 -22 -37 -47 -37 -18 0 -23 6 -23 25 0 29 27 47 52 34 10 -5
18 -15 18 -22z m4304 17 c12 -31 -23 -54 -53 -35 -10 7 -11 13 -2 30 14 25 46
28 55 5z m-4798 -15 c3 -6 -1 -18 -10 -27 -15 -15 -17 -15 -32 0 -19 19 -11
38 16 38 10 0 22 -5 26 -11z m4528 -5 c9 -22 -1 -34 -29 -34 -13 0 -26 4 -29
9 -11 17 6 41 29 41 13 0 26 -7 29 -16z m594 -25 c-2 -6 -8 -10 -13 -10 -5 0
-11 4 -13 10 -2 6 4 11 13 11 9 0 15 -5 13 -11z m-5248 -13 c0 -20 -19 -31
-32 -18 -6 6 -7 15 -4 21 10 16 36 13 36 -3z m4785 -15 c0 -8 -8 -19 -18 -25
-22 -14 -42 11 -25 32 14 16 43 12 43 -7z m-4565 -6 c0 -9 -7 -18 -16 -22 -18
-7 -39 11 -30 26 11 17 46 13 46 -4z m495 -14 c0 -34 -32 -52 -50 -28 -20 28
-8 59 24 55 20 -2 26 -9 26 -27z m3815 -2 c0 -14 -7 -19 -25 -19 -18 0 -25 5
-25 19 0 11 6 21 13 24 20 7 37 -4 37 -24z m-4013 10 c16 -16 5 -39 -17 -39
-25 0 -35 18 -20 35 15 18 22 19 37 4z m4501 -12 c2 -12 -3 -17 -17 -17 -12 0
-21 6 -21 13 0 31 32 34 38 4z m-4184 -33 c22 -21 20 -31 -8 -49 -43 -29 -89
18 -54 53 17 17 44 15 62 -4z m-986 -12 c2 -7 -3 -12 -12 -12 -9 0 -16 7 -16
16 0 17 22 14 28 -4z m4556 3 c13 -34 -24 -66 -50 -44 -15 12 -19 41 -7 52 12
13 51 7 57 -8z m263 -42 c-15 -16 -18 -16 -33 -2 -14 15 -14 18 2 33 15 16 18
16 33 2 14 -15 14 -18 -2 -33z m211 30 c2 -8 -5 -13 -17 -13 -12 0 -21 6 -21
16 0 18 31 15 38 -3z m-4510 -2 c19 -11 11 -45 -11 -49 -19 -4 -32 20 -23 43
6 17 15 19 34 6z m4782 -12 c0 -5 -7 -9 -15 -9 -15 0 -20 12 -9 23 8 8 24 -1
24 -14z m-4516 -24 c3 -9 -4 -25 -15 -36 -16 -16 -23 -18 -35 -8 -15 12 -19
41 -7 52 12 13 51 7 57 -8z m4606 -15 c-21 -14 -30 -12 -30 4 0 18 22 27 35
14 6 -6 5 -12 -5 -18z m-4303 5 c2 -6 -3 -20 -11 -30 -12 -16 -18 -18 -33 -9
-10 6 -19 21 -21 33 -3 20 0 22 29 19 18 -2 34 -8 36 -13z m3355 -2 c6 -24 -1
-43 -17 -43 -19 0 -38 27 -31 45 8 21 43 19 48 -2z m273 -14 c8 -26 -6 -42
-28 -33 -17 6 -23 35 -10 47 13 14 32 7 38 -14z m-3827 -15 c4 -26 -20 -37
-44 -20 -24 18 -11 48 18 44 14 -2 24 -11 26 -24z m4039 10 c3 -8 1 -20 -6
-27 -14 -14 -47 15 -37 32 10 16 36 13 43 -5z m-4277 -29 c0 -7 -7 -16 -15
-19 -20 -7 -33 23 -14 34 16 10 29 4 29 -15z m565 -5 c0 -19 -6 -26 -26 -28
-29 -3 -54 20 -45 44 4 10 16 14 38 12 28 -2 33 -7 33 -28z m-855 5 c10 -12
10 -19 2 -27 -15 -15 -48 14 -38 31 10 15 21 14 36 -4z m3971 5 c23 -13 25
-33 5 -49 -11 -9 -20 -10 -35 -1 -24 12 -27 30 -9 48 15 15 15 15 39 2z m859
-25 c0 -8 -4 -16 -9 -19 -12 -8 -34 21 -27 33 9 14 36 2 36 -14z m-4174 0 c8
-19 -13 -45 -36 -45 -23 0 -44 26 -36 45 3 9 18 15 36 15 18 0 33 -6 36 -15z
m3564 -15 c0 -24 -26 -38 -42 -22 -16 16 -2 42 22 42 13 0 20 -7 20 -20z
m-4360 -10 c0 -5 -4 -10 -10 -10 -5 0 -10 5 -10 10 0 6 5 10 10 10 6 0 10 -4
10 -10z m557 -16 c3 -8 1 -20 -6 -27 -14 -14 -47 15 -37 32 10 16 36 13 43 -5z
m3443 -8 c0 -25 -30 -43 -50 -31 -14 9 -12 42 3 48 30 13 47 7 47 -17z m-3752
2 c-3 -7 -11 -13 -18 -13 -7 0 -15 6 -17 13 -3 7 4 12 17 12 13 0 20 -5 18
-12z m850 -9 c-5 -32 -34 -48 -53 -28 -23 23 -9 49 27 49 24 0 29 -4 26 -21z
m3502 -5 c0 -8 -9 -14 -20 -14 -22 0 -28 26 -7 33 16 6 27 -1 27 -19z m510 22
c0 -3 -4 -8 -10 -11 -5 -3 -10 -1 -10 4 0 6 5 11 10 11 6 0 10 -2 10 -4z
m-4226 -16 c29 -10 34 -31 12 -49 -26 -22 -69 19 -51 49 8 12 8 12 39 0z
m3936 -10 c0 -11 -4 -20 -10 -20 -5 0 -10 9 -10 20 0 11 5 20 10 20 6 0 10 -9
10 -20z m-3595 -34 c0 -39 -31 -58 -51 -32 -18 25 -18 31 2 51 25 24 49 15 49
-19z m2669 18 c9 -22 -1 -34 -29 -34 -29 0 -41 16 -25 35 16 20 46 19 54 -1z
m364 -11 c3 -19 -1 -23 -22 -23 -28 0 -41 14 -32 36 9 24 50 13 54 -13z m192
2 c0 -8 -7 -15 -15 -15 -16 0 -20 12 -8 23 11 12 23 8 23 -8z m-3753 -6 c16
-16 5 -39 -17 -39 -23 0 -34 16 -26 35 6 18 28 19 43 4z m4053 -4 c0 -8 -9
-15 -20 -15 -11 0 -20 7 -20 15 0 8 9 15 20 15 11 0 20 -7 20 -15z m-3393 -21
c8 -22 -10 -49 -32 -49 -22 0 -40 27 -32 49 8 21 56 21 64 0z m-1042 -15 c0
-7 -8 -15 -17 -17 -18 -3 -25 18 -11 32 10 10 28 1 28 -15z m3449 -1 c15 -24
-13 -53 -43 -43 -23 7 -28 34 -9 53 16 16 38 12 52 -10z m371 -3 c0 -22 -31
-33 -48 -16 -7 7 -6 15 3 26 17 21 45 15 45 -10z m-3130 -16 c0 -19 -5 -24
-24 -24 -30 0 -37 17 -15 39 22 22 39 15 39 -15z m476 15 c13 -16 4 -44 -19
-52 -14 -4 -46 44 -37 58 9 15 41 12 56 -6z m3367 -6 c-2 -6 -10 -14 -16 -16
-7 -2 -10 2 -6 12 7 18 28 22 22 4z m-1234 -4 c19 -7 21 -50 4 -57 -18 -6 -48
11 -48 26 0 7 5 18 12 25 14 14 12 14 32 6z m776 -8 c0 -8 -6 -16 -12 -19 -20
-7 -37 3 -31 19 7 18 43 18 43 0z m-3852 -23 c5 -17 -26 -29 -40 -15 -6 6 -7
15 -3 22 9 14 37 9 43 -7z m1056 -5 c8 -14 7 -21 -6 -34 -30 -30 -75 9 -48 42
16 18 39 15 54 -8z m-448 1 c3 -6 -1 -18 -9 -27 -13 -13 -19 -13 -31 -2 -9 7
-16 19 -16 26 0 17 46 19 56 3z m2872 -12 c4 -21 -25 -34 -40 -19 -8 8 -8 16
2 27 16 19 34 15 38 -8z m-510 -11 c2 -10 -1 -23 -7 -29 -15 -15 -46 16 -37
38 8 21 40 15 44 -9z m-1783 -5 c13 -42 -22 -72 -50 -41 -13 15 -14 23 -5 39
13 26 47 27 55 2z m2795 9 c0 -5 -5 -10 -11 -10 -5 0 -7 5 -4 10 3 6 8 10 11
10 2 0 4 -4 4 -10z m-3630 -20 c0 -24 -26 -38 -42 -22 -16 16 -2 42 22 42 13
0 20 -7 20 -20z m3335 10 c-3 -5 -10 -10 -16 -10 -5 0 -9 5 -9 10 0 6 7 10 16
10 8 0 12 -4 9 -10z m-807 -24 c5 -25 -12 -39 -37 -31 -20 6 -28 34 -14 49 13
13 48 1 51 -18z m460 1 c4 -21 -25 -34 -40 -19 -8 8 -8 16 2 27 16 19 34 15
38 -8z m-3138 3 c0 -5 -4 -10 -9 -10 -6 0 -13 5 -16 10 -3 6 1 10 9 10 9 0 16
-4 16 -10z m640 -15 c10 -12 10 -18 0 -30 -27 -32 -71 -8 -56 30 3 8 14 15 24
15 11 0 25 -7 32 -15z m-110 -11 c11 -12 11 -18 -2 -30 -14 -14 -17 -14 -31 1
-18 17 -13 45 8 45 7 0 18 -7 25 -16z m575 -19 c0 -23 -5 -31 -22 -33 -17 -3
-24 3 -29 22 -8 32 3 48 29 44 17 -2 22 -10 22 -33z m1440 14 c4 -13 2 -27 -7
-35 -12 -12 -17 -12 -36 2 -18 12 -20 19 -12 35 14 25 47 24 55 -2z m475 1 c0
-24 -26 -38 -42 -22 -16 16 -2 42 22 42 13 0 20 -7 20 -20z m-3142 -8 c2 -7
-3 -12 -12 -12 -9 0 -16 7 -16 16 0 17 22 14 28 -4z m1360 -18 c4 -29 -23 -51
-43 -34 -16 13 -20 42 -8 54 14 14 48 1 51 -20z m1177 -16 c-9 -22 -35 -31
-51 -17 -21 17 -17 39 9 48 27 11 51 -8 42 -31z m469 26 c7 -19 -10 -44 -30
-44 -20 0 -36 34 -22 48 17 17 45 15 52 -4z m-2074 -22 c0 -14 -24 -32 -42
-32 -27 0 -35 30 -13 46 18 13 55 3 55 -14z m-535 -7 c0 -30 -39 -27 -43 3 -3
20 0 23 20 20 15 -2 23 -10 23 -23z m2001 -1 c8 -30 -6 -47 -32 -42 -23 4 -31
47 -12 59 23 15 37 10 44 -17z m-921 -14 c0 -18 -6 -26 -23 -28 -13 -2 -25 3
-28 12 -10 26 4 48 28 44 17 -2 23 -10 23 -28z m129 15 c12 -33 -29 -76 -52
-53 -16 16 -15 55 1 61 24 10 45 7 51 -8z m1866 0 c10 -12 9 -16 -5 -21 -19
-8 -40 9 -31 25 10 15 21 14 36 -4z m200 0 c0 -8 -7 -15 -15 -15 -8 0 -15 7
-15 15 0 8 7 15 15 15 8 0 15 -7 15 -15z m-1915 -30 c0 -25 -4 -30 -24 -30
-28 0 -47 25 -38 49 5 12 16 16 34 14 24 -3 28 -8 28 -33z m113 23 c16 -16 15
-30 -2 -53 -12 -16 -16 -17 -30 -6 -9 7 -16 21 -16 30 0 17 18 41 30 41 3 0
11 -5 18 -12z m376 -3 c8 -9 13 -22 10 -30 -8 -20 -38 -19 -55 1 -11 14 -10
18 6 30 23 17 20 17 39 -1z m1751 5 c3 -5 -1 -10 -10 -10 -9 0 -13 5 -10 10 3
6 8 10 10 10 2 0 7 -4 10 -10z m-1880 -31 c0 -17 -6 -25 -22 -27 -19 -3 -23 1
-23 21 0 25 14 38 35 33 6 -2 10 -14 10 -27z m-1095 -10 c0 -12 -7 -19 -19
-19 -23 0 -35 15 -27 35 7 20 46 7 46 -16z m980 12 c0 -24 -23 -43 -44 -35
-16 6 -22 35 -9 47 3 4 17 7 30 7 16 0 23 -6 23 -19z m-852 -29 c-5 -24 -52
-23 -56 2 -2 10 2 22 9 27 18 11 51 -9 47 -29z m1725 31 c11 -10 -13 -33 -34
-33 -18 0 -26 20 -12 33 8 9 38 9 46 0z m-2378 -13 c3 -5 -1 -10 -9 -10 -8 0
-18 5 -21 10 -3 6 1 10 9 10 8 0 18 -4 21 -10z m775 -45 c0 -13 -6 -25 -12
-28 -22 -7 -38 4 -38 28 0 13 6 25 13 28 21 7 37 -4 37 -28z m1477 19 c8 -21
-19 -46 -40 -38 -20 7 -23 40 -4 47 23 10 38 7 44 -9z m523 -4 c0 -13 -7 -20
-19 -20 -22 0 -35 15 -26 30 12 19 45 11 45 -10z m-3360 -5 c0 -9 -6 -12 -15
-9 -8 4 -15 10 -15 15 0 5 7 9 15 9 8 0 15 -7 15 -15z m315 -5 c0 -22 -39 -19
-43 3 -3 15 1 18 20 15 12 -2 23 -10 23 -18z m2380 -10 c0 -20 -5 -25 -25 -25
-28 0 -41 32 -18 46 23 15 43 5 43 -21z m505 11 c0 -11 -4 -22 -8 -25 -14 -9
-35 12 -29 28 9 23 37 20 37 -3z m-2446 -6 c3 -9 -1 -18 -10 -22 -19 -7 -39
11 -30 26 10 16 33 13 40 -4z m3181 5 c3 -5 -1 -10 -9 -10 -9 0 -16 5 -16 10
0 6 4 10 9 10 6 0 13 -4 16 -10z m-2430 -30 c0 -16 -6 -26 -18 -28 -19 -4 -32
20 -23 44 9 25 41 13 41 -16z m1055 5 c0 -18 -5 -25 -19 -25 -11 0 -23 5 -26
10 -11 18 3 40 25 40 15 0 20 -7 20 -25z m-805 -16 c0 -28 -29 -38 -39 -13 -7
19 11 47 28 41 6 -2 11 -14 11 -28z m-885 -9 c-21 -14 -30 -12 -30 4 0 18 22
27 35 14 6 -6 5 -12 -5 -18z m-411 11 c16 -10 6 -31 -15 -31 -8 0 -14 2 -14 4
0 2 -3 11 -6 20 -7 18 12 21 35 7z m3051 -5 c0 -8 -4 -17 -9 -21 -12 -7 -24
12 -16 25 9 15 25 12 25 -4z m-2490 -5 c0 -20 -13 -41 -25 -41 -18 0 -28 17
-21 35 6 16 46 21 46 6z m875 -1 c12 -20 -6 -50 -31 -50 -18 0 -24 5 -24 23 0
13 3 27 7 30 10 10 41 8 48 -3z m182 -6 c8 -21 -19 -46 -40 -38 -20 7 -23 40
-4 47 23 10 38 7 44 -9z m231 -1 c5 -17 -26 -29 -40 -15 -6 6 -7 15 -3 22 9
14 37 9 43 -7z m712 -1 c0 -26 -11 -34 -27 -21 -10 9 -10 15 -2 25 16 19 29
17 29 -4z m-1393 -8 c3 -8 -1 -23 -10 -31 -23 -23 -52 0 -36 28 12 23 37 25
46 3z m813 -4 c0 -13 -7 -20 -20 -20 -13 0 -20 7 -20 20 0 13 7 20 20 20 13 0
20 -7 20 -20z m-282 -2 c16 -16 15 -45 -2 -51 -8 -3 -22 3 -31 13 -15 16 -15
22 -5 35 15 18 22 19 38 3z m739 -4 c10 -26 -14 -41 -35 -21 -15 16 -15 19 -2
27 21 14 30 12 37 -6z m-2297 -14 c0 -5 -2 -10 -4 -10 -3 0 -8 5 -11 10 -3 6
-1 10 4 10 6 0 11 -4 11 -10z m550 2 c0 -14 -11 -21 -26 -15 -21 8 -17 23 6
23 11 0 20 -4 20 -8z m1648 -25 c4 -20 -25 -34 -40 -19 -15 15 -1 44 19 40 10
-2 19 -11 21 -21z m502 -7 c0 -12 -28 -25 -36 -17 -9 9 6 27 22 27 8 0 14 -5
14 -10z m506 -17 c-10 -10 -19 5 -10 18 6 11 8 11 12 0 2 -7 1 -15 -2 -18z
m-3036 -24 c0 -25 -33 -22 -38 4 -2 12 3 17 17 17 15 0 21 -6 21 -21z m1598
-8 c-2 -9 -11 -17 -21 -19 -21 -4 -35 27 -17 38 19 12 42 0 38 -19z m-1088 -1
c0 -23 -22 -27 -39 -7 -13 16 -5 27 21 27 11 0 18 -7 18 -20z m138 -7 c-4 -22
-22 -20 -26 1 -2 10 3 16 13 16 10 0 15 -7 13 -17z m272 -3 c0 -21 -33 -29
-45 -10 -9 15 4 30 26 30 12 0 19 -7 19 -20z m977 4 c9 -23 -13 -40 -32 -24
-8 7 -15 19 -15 26 0 19 39 18 47 -2z m-459 -17 c2 -10 -3 -17 -12 -17 -10 0
-16 9 -16 21 0 24 23 21 28 -4z m-358 -2 c0 -8 -7 -15 -15 -15 -16 0 -20 12
-8 23 11 12 23 8 23 -8z m-940 -5 c0 -5 -2 -10 -4 -10 -3 0 -8 5 -11 10 -3 6
-1 10 4 10 6 0 11 -4 11 -10z m1200 -9 c0 -27 -19 -36 -37 -18 -18 18 -9 37
18 37 12 0 19 -7 19 -19z m400 4 c0 -16 -35 -21 -44 -6 -8 12 4 21 26 21 10 0
18 -7 18 -15z m-1412 -28 c2 -11 -3 -17 -17 -17 -23 0 -35 15 -26 31 10 15 39
6 43 -14z m847 13 c3 -5 -1 -10 -10 -10 -9 0 -13 5 -10 10 3 6 8 10 10 10 2 0
7 -4 10 -10z m-1200 -40 c-3 -5 -11 -10 -16 -10 -6 0 -7 5 -4 10 3 6 11 10 16
10 6 0 7 -4 4 -10z m465 -30 c0 -5 -7 -7 -15 -4 -8 4 -12 10 -9 15 6 11 24 2
24 -11z m1630 10 c0 -5 -9 -10 -21 -10 -11 0 -17 5 -14 10 3 6 13 10 21 10 8
0 14 -4 14 -10z m-1290 -15 c0 -9 -6 -12 -15 -9 -8 4 -15 10 -15 15 0 5 7 9
15 9 8 0 15 -7 15 -15z m-572 -13 c3 -9 -2 -13 -14 -10 -9 1 -19 9 -22 16 -3
9 2 13 14 10 9 -1 19 -9 22 -16z m882 3 c0 -8 -7 -15 -15 -15 -8 0 -15 7 -15
15 0 8 7 15 15 15 8 0 15 -7 15 -15z m313 9 c9 -10 -4 -34 -18 -34 -17 0 -28
17 -20 30 7 11 28 13 38 4z m-465 -21 c-4 -22 -22 -20 -26 1 -2 10 3 16 13 16
10 0 15 -7 13 -17z m757 7 c3 -6 -1 -13 -10 -16 -19 -8 -30 0 -20 15 8 14 22
14 30 1z m-1215 -90 c0 -5 -7 -10 -15 -10 -8 0 -15 5 -15 10 0 6 7 10 15 10 8
0 15 -4 15 -10z"/>
<path d="M4581 6040 c-9 -5 -4 -10 14 -14 34 -9 40 -4 16 11 -10 6 -23 8 -30
3z"/>
<path d="M4255 6031 c-6 -11 33 -26 43 -16 4 3 0 10 -8 15 -19 12 -27 12 -35
1z"/>
<path d="M4669 6024 c-10 -12 -3 -14 42 -13 30 0 47 3 39 6 -63 20 -69 21 -81
7z"/>
<path d="M4180 6015 c0 -8 2 -15 4 -15 2 0 6 7 10 15 3 8 1 15 -4 15 -6 0 -10
-7 -10 -15z"/>
<path d="M4137 6013 c-12 -11 -8 -23 8 -23 8 0 15 7 15 15 0 16 -12 20 -23 8z"/>
<path d="M4215 5960 c3 -5 10 -10 16 -10 5 0 9 5 9 10 0 6 -7 10 -16 10 -8 0
-12 -4 -9 -10z"/>
<path d="M3528 5903 c7 -3 16 -2 19 1 4 3 -2 6 -13 5 -11 0 -14 -3 -6 -6z"/>
<path d="M3370 5890 c0 -5 5 -10 11 -10 5 0 7 5 4 10 -3 6 -8 10 -11 10 -2 0
-4 -4 -4 -10z"/>
<path d="M3180 5865 c0 -8 5 -15 10 -15 6 0 10 7 10 15 0 8 -4 15 -10 15 -5 0
-10 -7 -10 -15z"/>
<path d="M3235 5870 c3 -5 14 -10 23 -10 15 0 15 2 2 10 -20 13 -33 13 -25 0z"/>
<path d="M3138 5853 c7 -3 16 -2 19 1 4 3 -2 6 -13 5 -11 0 -14 -3 -6 -6z"/>
<path d="M3106 5814 c-4 -10 -1 -14 6 -12 15 5 23 28 10 28 -5 0 -13 -7 -16
-16z"/>
<path d="M3268 5813 c7 -3 16 -2 19 1 4 3 -2 6 -13 5 -11 0 -14 -3 -6 -6z"/>
<path d="M3275 5780 c-8 -13 5 -13 25 0 13 8 13 10 -2 10 -9 0 -20 -4 -23 -10z"/>
<path d="M2595 5741 c-40 -10 -52 -17 -37 -19 32 -5 133 18 127 29 -7 11 -15
10 -90 -10z"/>
<path d="M2390 5680 c0 -5 5 -10 11 -10 5 0 7 5 4 10 -3 6 -8 10 -11 10 -2 0
-4 -4 -4 -10z"/>
<path d="M2681 5631 c26 -21 35 -20 26 4 -4 8 -16 15 -28 15 -21 0 -21 0 2
-19z"/>
<path d="M2390 5580 c0 -5 5 -10 11 -10 5 0 7 5 4 10 -3 6 -8 10 -11 10 -2 0
-4 -4 -4 -10z"/>
<path d="M2128 5473 c7 -3 16 -2 19 1 4 3 -2 6 -13 5 -11 0 -14 -3 -6 -6z"/>
<path d="M2926 4861 c-4 -7 -5 -15 -2 -18 9 -9 19 4 14 18 -4 11 -6 11 -12 0z"/>
<path d="M2900 4140 c0 -5 5 -10 11 -10 5 0 7 5 4 10 -3 6 -8 10 -11 10 -2 0
-4 -4 -4 -10z"/>
<path d="M2930 3276 c0 -9 5 -16 10 -16 6 0 10 4 10 9 0 6 -4 13 -10 16 -5 3
-10 -1 -10 -9z"/>
<path d="M4800 4358 c-58 -16 -169 -88 -230 -149 -31 -31 -61 -58 -66 -60 -12
-5 -46 -70 -40 -76 5 -6 128 57 137 70 10 15 61 37 70 31 5 -3 9 3 9 13 1 16
47 56 110 93 39 23 80 62 80 77 0 15 -20 15 -70 1z"/>
<path d="M5781 4293 c-74 -51 -189 -165 -239 -240 -23 -34 -42 -66 -42 -71 0
-5 -9 -21 -21 -36 -11 -14 -16 -26 -10 -26 6 0 0 -20 -13 -45 -14 -25 -22 -45
-19 -45 3 0 -1 -7 -8 -16 -7 -9 -12 -29 -11 -44 2 -16 -1 -31 -7 -35 -13 -8
-15 -35 -2 -35 10 0 72 80 108 139 12 19 29 41 37 47 9 6 16 16 16 22 0 10 29
46 83 103 9 11 17 24 17 29 0 6 20 35 45 65 25 31 48 67 51 80 3 14 9 25 13
25 4 0 13 16 20 35 7 19 16 35 20 35 5 0 16 11 25 25 24 36 2 32 -63 -12z"/>
<path d="M5912 3982 c-11 -25 -11 -25 4 -10 9 9 15 21 13 27 -2 6 -10 -2 -17
-17z"/>
<path d="M5095 3640 c-3 -6 1 -7 9 -4 18 7 21 14 7 14 -6 0 -13 -4 -16 -10z"/>
<path d="M4986 3475 c-11 -8 -15 -15 -9 -15 6 0 16 7 23 15 16 19 11 19 -14 0z"/>
<path d="M5994 2860 c0 -13 4 -16 10 -10 7 7 7 13 0 20 -6 6 -10 3 -10 -10z"/>
<path d="M6987 4306 c-56 -21 -117 -66 -117 -87 0 -11 -4 -19 -10 -19 -5 0
-10 5 -10 10 0 6 -11 10 -24 10 -13 0 -29 7 -36 15 -7 8 -20 15 -30 15 -20 0
-100 -82 -100 -103 0 -8 -7 -20 -16 -28 -17 -14 -66 -104 -70 -129 -2 -8 -17
-55 -34 -105 -40 -115 -68 -304 -52 -340 11 -23 15 -25 54 -19 56 9 99 26 178
74 162 99 428 473 447 630 5 43 3 49 -18 63 -36 23 -117 29 -162 13z"/>
</g>
</svg>
