<svg xmlns="http://www.w3.org/2000/svg" version="1.1" xmlns:xlink="http://www.w3.org/1999/xlink" xmlns:svgjs="http://svgjs.com/svgjs" width="786px" height="534px"><svg xmlns="http://www.w3.org/2000/svg" version="1.1" width="786px" height="534px" style="shape-rendering:geometricPrecision; text-rendering:geometricPrecision; image-rendering:optimizeQuality; fill-rule:evenodd; clip-rule:evenodd" xmlns:xlink="http://www.w3.org/1999/xlink">
<g><path style="opacity:1" fill="#fefefe" d="M -0.5,-0.5 C 261.5,-0.5 523.5,-0.5 785.5,-0.5C 785.5,177.5 785.5,355.5 785.5,533.5C 523.5,533.5 261.5,533.5 -0.5,533.5C -0.5,355.5 -0.5,177.5 -0.5,-0.5 Z"></path></g>
<g><path style="opacity:1" fill="#8c6635" d="M 12.5,2.5 C 24.1667,2.5 35.8333,2.5 47.5,2.5C 46.9094,3.15149 46.2427,3.81815 45.5,4.5C 44.8919,6.68412 45.5586,8.68412 47.5,10.5C 46.0878,12.1973 45.7545,13.864 46.5,15.5C 36.1667,15.5 25.8333,15.5 15.5,15.5C 15.167,183.334 15.5003,351.001 16.5,518.5C 26.1667,518.5 35.8333,518.5 45.5,518.5C 45.7031,520.044 46.3698,521.378 47.5,522.5C 45.9815,524.967 45.3149,527.634 45.5,530.5C 34.1667,530.5 22.8333,530.5 11.5,530.5C 10.0474,529.175 10.3808,528.342 12.5,528C 11.0745,526.286 11.4078,524.953 13.5,524C 10.4557,523.641 10.1224,522.974 12.5,522C 11.273,520.413 11.6063,519.079 13.5,518C 12.1667,516.667 12.1667,515.333 13.5,514C 12.8333,513.667 12.1667,513.333 11.5,513C 12.2035,509.313 12.2035,505.813 11.5,502.5C 13.9458,501.017 13.6124,499.851 10.5,499C 11.8333,498.333 11.8333,497.667 10.5,497C 12.8075,496.646 13.1408,495.646 11.5,494C 11.9054,493.055 12.572,492.388 13.5,492C 10.4557,491.641 10.1224,490.974 12.5,490C 11.273,488.413 11.6063,487.079 13.5,486C 12.1667,484.667 12.1667,483.333 13.5,482C 12.8333,481.667 12.1667,481.333 11.5,481C 12.2035,477.313 12.2035,473.813 11.5,470.5C 13.9458,469.017 13.6124,467.851 10.5,467C 11.8333,466.333 11.8333,465.667 10.5,465C 12.8075,464.646 13.1408,463.646 11.5,462C 11.9054,461.055 12.572,460.388 13.5,460C 10.4557,459.641 10.1224,458.974 12.5,458C 11.273,456.413 11.6063,455.079 13.5,454C 12.1667,452.667 12.1667,451.333 13.5,450C 12.8333,449.667 12.1667,449.333 11.5,449C 12.2035,445.313 12.2035,441.813 11.5,438.5C 13.9458,437.017 13.6124,435.851 10.5,435C 11.8333,434.333 11.8333,433.667 10.5,433C 12.8075,432.646 13.1408,431.646 11.5,430C 11.9054,429.055 12.572,428.388 13.5,428C 10.4557,427.641 10.1224,426.974 12.5,426C 11.273,424.413 11.6063,423.079 13.5,422C 12.1667,420.667 12.1667,419.333 13.5,418C 12.8333,417.667 12.1667,417.333 11.5,417C 12.2035,413.313 12.2035,409.813 11.5,406.5C 13.9458,405.017 13.6124,403.851 10.5,403C 11.8333,402.333 11.8333,401.667 10.5,401C 12.8075,400.646 13.1408,399.646 11.5,398C 11.9054,397.055 12.572,396.388 13.5,396C 10.4557,395.641 10.1224,394.974 12.5,394C 11.273,392.413 11.6063,391.079 13.5,390C 12.1667,388.667 12.1667,387.333 13.5,386C 12.8333,385.667 12.1667,385.333 11.5,385C 12.2035,381.313 12.2035,377.813 11.5,374.5C 13.9458,373.017 13.6124,371.851 10.5,371C 11.8333,370.333 11.8333,369.667 10.5,369C 12.8075,368.646 13.1408,367.646 11.5,366C 11.9054,365.055 12.572,364.388 13.5,364C 10.4557,363.641 10.1224,362.974 12.5,362C 11.273,360.413 11.6063,359.079 13.5,358C 12.1667,356.667 12.1667,355.333 13.5,354C 12.8333,353.667 12.1667,353.333 11.5,353C 12.2035,349.313 12.2035,345.813 11.5,342.5C 13.9458,341.017 13.6124,339.851 10.5,339C 11.8333,338.333 11.8333,337.667 10.5,337C 12.8075,336.646 13.1408,335.646 11.5,334C 11.9054,333.055 12.572,332.388 13.5,332C 10.4557,331.641 10.1224,330.974 12.5,330C 11.273,328.413 11.6063,327.079 13.5,326C 12.1667,324.667 12.1667,323.333 13.5,322C 12.8333,321.667 12.1667,321.333 11.5,321C 12.2035,317.313 12.2035,313.813 11.5,310.5C 13.9458,309.017 13.6124,307.851 10.5,307C 11.8333,306.333 11.8333,305.667 10.5,305C 12.8075,304.646 13.1408,303.646 11.5,302C 11.9054,301.055 12.572,300.388 13.5,300C 10.4557,299.641 10.1224,298.974 12.5,298C 11.273,296.413 11.6063,295.079 13.5,294C 12.1667,292.667 12.1667,291.333 13.5,290C 12.8333,289.667 12.1667,289.333 11.5,289C 12.2035,285.313 12.2035,281.813 11.5,278.5C 13.9458,277.017 13.6124,275.851 10.5,275C 11.8333,274.333 11.8333,273.667 10.5,273C 12.8075,272.646 13.1408,271.646 11.5,270C 11.9054,269.055 12.572,268.388 13.5,268C 10.4557,267.641 10.1224,266.974 12.5,266C 11.273,264.413 11.6063,263.079 13.5,262C 12.1667,260.667 12.1667,259.333 13.5,258C 12.8333,257.667 12.1667,257.333 11.5,257C 12.2035,253.313 12.2035,249.813 11.5,246.5C 13.9458,245.017 13.6124,243.851 10.5,243C 11.8333,242.333 11.8333,241.667 10.5,241C 12.8075,240.646 13.1408,239.646 11.5,238C 11.9054,237.055 12.572,236.388 13.5,236C 10.4557,235.641 10.1224,234.974 12.5,234C 11.273,232.413 11.6063,231.079 13.5,230C 12.1667,228.667 12.1667,227.333 13.5,226C 12.8333,225.667 12.1667,225.333 11.5,225C 12.2035,221.313 12.2035,217.813 11.5,214.5C 13.9458,213.017 13.6124,211.851 10.5,211C 11.8333,210.333 11.8333,209.667 10.5,209C 12.8075,208.646 13.1408,207.646 11.5,206C 11.9054,205.055 12.572,204.388 13.5,204C 10.4557,203.641 10.1224,202.974 12.5,202C 11.273,200.413 11.6063,199.079 13.5,198C 12.1667,196.667 12.1667,195.333 13.5,194C 12.8333,193.667 12.1667,193.333 11.5,193C 12.2035,189.313 12.2035,185.813 11.5,182.5C 13.9458,181.017 13.6124,179.851 10.5,179C 11.8333,178.333 11.8333,177.667 10.5,177C 12.8075,176.646 13.1408,175.646 11.5,174C 11.9054,173.055 12.572,172.388 13.5,172C 10.4557,171.641 10.1224,170.974 12.5,170C 11.273,168.413 11.6063,167.079 13.5,166C 12.1667,164.667 12.1667,163.333 13.5,162C 12.8333,161.667 12.1667,161.333 11.5,161C 12.2035,157.313 12.2035,153.813 11.5,150.5C 13.9458,149.017 13.6124,147.851 10.5,147C 11.8333,146.333 11.8333,145.667 10.5,145C 12.8075,144.646 13.1408,143.646 11.5,142C 11.9054,141.055 12.572,140.388 13.5,140C 10.4557,139.641 10.1224,138.974 12.5,138C 11.273,136.413 11.6063,135.079 13.5,134C 12.1667,132.667 12.1667,131.333 13.5,130C 12.8333,129.667 12.1667,129.333 11.5,129C 12.2035,125.313 12.2035,121.813 11.5,118.5C 13.9458,117.017 13.6124,115.851 10.5,115C 11.8333,114.333 11.8333,113.667 10.5,113C 12.8075,112.646 13.1408,111.646 11.5,110C 11.9054,109.055 12.572,108.388 13.5,108C 10.4557,107.641 10.1224,106.974 12.5,106C 11.273,104.413 11.6063,103.079 13.5,102C 12.1667,100.667 12.1667,99.3333 13.5,98C 12.8333,97.6667 12.1667,97.3333 11.5,97C 12.2035,93.3133 12.2035,89.8133 11.5,86.5C 13.9458,85.0172 13.6124,83.8505 10.5,83C 11.8333,82.3333 11.8333,81.6667 10.5,81C 12.8075,80.6458 13.1408,79.6458 11.5,78C 11.9054,77.0546 12.572,76.3879 13.5,76C 10.4557,75.6411 10.1224,74.9745 12.5,74C 11.273,72.4126 11.6063,71.0793 13.5,70C 12.1667,68.6667 12.1667,67.3333 13.5,66C 12.8333,65.6667 12.1667,65.3333 11.5,65C 12.2035,61.3133 12.2035,57.8133 11.5,54.5C 13.9458,53.0172 13.6124,51.8505 10.5,51C 11.8333,50.3333 11.8333,49.6667 10.5,49C 12.8075,48.6458 13.1408,47.6458 11.5,46C 11.9054,45.0546 12.572,44.3879 13.5,44C 10.4557,43.6411 10.1224,42.9745 12.5,42C 11.273,40.4126 11.6063,39.0793 13.5,38C 12.1667,36.6667 12.1667,35.3333 13.5,34C 12.8333,33.6667 12.1667,33.3333 11.5,33C 12.2035,29.3133 12.2035,25.8133 11.5,22.5C 13.9458,21.0172 13.6124,19.8505 10.5,19C 11.8333,18.3333 11.8333,17.6667 10.5,17C 12.8075,16.6458 13.1408,15.6458 11.5,14C 11.9054,13.0546 12.572,12.3879 13.5,12C 10.4557,11.6411 10.1224,10.9745 12.5,10C 11.273,8.41262 11.6063,7.07929 13.5,6C 12.6634,4.98873 12.33,3.82207 12.5,2.5 Z"></path></g>
<g><path style="opacity:1" fill="#9a7743" d="M 47.5,2.5 C 58.1667,2.5 68.8333,2.5 79.5,2.5C 78.9094,3.15149 78.2427,3.81815 77.5,4.5C 78.1667,4.83333 78.8333,5.16667 79.5,5.5C 77.5245,6.74926 77.1912,8.24926 78.5,10C 76.0087,10.6259 76.0087,11.4593 78.5,12.5C 77.2086,13.5272 77.2086,14.5272 78.5,15.5C 67.8333,15.5 57.1667,15.5 46.5,15.5C 45.7545,13.864 46.0878,12.1973 47.5,10.5C 45.5586,8.68412 44.8919,6.68412 45.5,4.5C 46.2427,3.81815 46.9094,3.15149 47.5,2.5 Z"></path></g>
<g><path style="opacity:1" fill="#a4844e" d="M 79.5,2.5 C 90.8333,2.5 102.167,2.5 113.5,2.5C 113.514,5.33243 113.847,7.83243 114.5,10C 113.939,11.676 112.939,13.0094 111.5,14C 112.737,14.2321 113.737,14.7321 114.5,15.5C 102.5,15.5 90.5,15.5 78.5,15.5C 77.2086,14.5272 77.2086,13.5272 78.5,12.5C 76.0087,11.4593 76.0087,10.6259 78.5,10C 77.1912,8.24926 77.5245,6.74926 79.5,5.5C 78.8333,5.16667 78.1667,4.83333 77.5,4.5C 78.2427,3.81815 78.9094,3.15149 79.5,2.5 Z"></path></g>
<g><path style="opacity:1" fill="#b1955d" d="M 113.5,2.5 C 130.5,2.5 147.5,2.5 164.5,2.5C 164.918,3.22158 165.584,3.72158 166.5,4C 165.833,4.33333 165.167,4.66667 164.5,5C 166.731,7.46979 166.731,9.80313 164.5,12C 165.305,13.1127 165.972,14.2794 166.5,15.5C 149.167,15.5 131.833,15.5 114.5,15.5C 113.737,14.7321 112.737,14.2321 111.5,14C 112.939,13.0094 113.939,11.676 114.5,10C 113.847,7.83243 113.514,5.33243 113.5,2.5 Z"></path></g>
<g><path style="opacity:1" fill="#bca368" d="M 164.5,2.5 C 174.833,2.5 185.167,2.5 195.5,2.5C 195.519,4.80517 195.519,7.1385 195.5,9.5C 194.975,10.1924 194.308,10.6924 193.5,11C 194.91,11.3678 195.91,12.2011 196.5,13.5C 196.154,14.6956 195.654,14.6956 195,13.5C 194.536,14.0944 194.369,14.7611 194.5,15.5C 185.167,15.5 175.833,15.5 166.5,15.5C 165.972,14.2794 165.305,13.1127 164.5,12C 166.731,9.80313 166.731,7.46979 164.5,5C 165.167,4.66667 165.833,4.33333 166.5,4C 165.584,3.72158 164.918,3.22158 164.5,2.5 Z"></path></g>
<g><path style="opacity:1" fill="#c5af72" d="M 195.5,2.5 C 206.833,2.5 218.167,2.5 229.5,2.5C 229.918,3.22158 230.584,3.72158 231.5,4C 230.062,4.21893 228.729,4.71893 227.5,5.5C 228.826,5.2052 230.159,5.7052 231.5,7C 230.529,8.20363 229.529,8.70363 228.5,8.5C 228.977,9.47758 229.643,10.3109 230.5,11C 229.692,11.3076 229.025,11.8076 228.5,12.5C 229.791,13.5272 229.791,14.5272 228.5,15.5C 217.167,15.5 205.833,15.5 194.5,15.5C 194.369,14.7611 194.536,14.0944 195,13.5C 195.654,14.6956 196.154,14.6956 196.5,13.5C 195.91,12.2011 194.91,11.3678 193.5,11C 194.308,10.6924 194.975,10.1924 195.5,9.5C 195.519,7.1385 195.519,4.80517 195.5,2.5 Z"></path></g>
<g><path style="opacity:1" fill="#ceba7b" d="M 229.5,2.5 C 240.167,2.5 250.833,2.5 261.5,2.5C 261.918,3.22158 262.584,3.72158 263.5,4C 262.062,4.21893 260.729,4.71893 259.5,5.5C 260.262,5.9106 261.262,6.07727 262.5,6C 259.833,7.66667 259.833,9.33333 262.5,11C 261.692,11.3076 261.025,11.8076 260.5,12.5C 261.791,13.5272 261.791,14.5272 260.5,15.5C 249.833,15.5 239.167,15.5 228.5,15.5C 229.791,14.5272 229.791,13.5272 228.5,12.5C 229.025,11.8076 229.692,11.3076 230.5,11C 229.643,10.3109 228.977,9.47758 228.5,8.5C 229.529,8.70363 230.529,8.20363 231.5,7C 230.159,5.7052 228.826,5.2052 227.5,5.5C 228.729,4.71893 230.062,4.21893 231.5,4C 230.584,3.72158 229.918,3.22158 229.5,2.5 Z"></path></g>
<g><path style="opacity:1" fill="#dbcb89" d="M 261.5,2.5 C 278.167,2.5 294.833,2.5 311.5,2.5C 312.752,4.33883 312.752,6.17216 311.5,8C 312.167,8.33333 312.833,8.66667 313.5,9C 309.701,10.1138 309.701,11.4471 313.5,13C 312.244,13.4169 311.577,14.2502 311.5,15.5C 294.5,15.5 277.5,15.5 260.5,15.5C 261.791,14.5272 261.791,13.5272 260.5,12.5C 261.025,11.8076 261.692,11.3076 262.5,11C 259.833,9.33333 259.833,7.66667 262.5,6C 261.262,6.07727 260.262,5.9106 259.5,5.5C 260.729,4.71893 262.062,4.21893 263.5,4C 262.584,3.72158 261.918,3.22158 261.5,2.5 Z"></path></g>
<g><path style="opacity:1" fill="#e6d995" d="M 311.5,2.5 C 322.167,2.5 332.833,2.5 343.5,2.5C 344.752,4.33883 344.752,6.17216 343.5,8C 344.167,8.33333 344.833,8.66667 345.5,9C 344.376,9.24917 343.376,9.74917 342.5,10.5C 342.389,12.1086 342.722,13.7753 343.5,15.5C 332.833,15.5 322.167,15.5 311.5,15.5C 311.577,14.2502 312.244,13.4169 313.5,13C 309.701,11.4471 309.701,10.1138 313.5,9C 312.833,8.66667 312.167,8.33333 311.5,8C 312.752,6.17216 312.752,4.33883 311.5,2.5 Z"></path></g>
<g><path style="opacity:1" fill="#f1e8a2" d="M 343.5,2.5 C 376.5,2.5 409.5,2.5 442.5,2.5C 441.587,4.08609 441.587,5.58609 442.5,7C 440.146,8.37799 440.146,9.87799 442.5,11.5C 441.568,12.9798 441.568,14.3131 442.5,15.5C 409.5,15.5 376.5,15.5 343.5,15.5C 342.722,13.7753 342.389,12.1086 342.5,10.5C 343.376,9.74917 344.376,9.24917 345.5,9C 344.833,8.66667 344.167,8.33333 343.5,8C 344.752,6.17216 344.752,4.33883 343.5,2.5 Z"></path></g>
<g><path style="opacity:1" fill="#e6d995" d="M 442.5,2.5 C 453.167,2.5 463.833,2.5 474.5,2.5C 473.587,4.08609 473.587,5.58609 474.5,7C 472.146,8.37799 472.146,9.87799 474.5,11.5C 473.568,12.9798 473.568,14.3131 474.5,15.5C 463.833,15.5 453.167,15.5 442.5,15.5C 441.568,14.3131 441.568,12.9798 442.5,11.5C 440.146,9.87799 440.146,8.37799 442.5,7C 441.587,5.58609 441.587,4.08609 442.5,2.5 Z"></path></g>
<g><path style="opacity:1" fill="#d9c887" d="M 474.5,2.5 C 490.833,2.5 507.167,2.5 523.5,2.5C 524.682,4.90438 524.682,7.40438 523.5,10C 527.5,10.6667 527.5,11.3333 523.5,12C 524.337,13.0113 524.67,14.1779 524.5,15.5C 507.833,15.5 491.167,15.5 474.5,15.5C 473.568,14.3131 473.568,12.9798 474.5,11.5C 472.146,9.87799 472.146,8.37799 474.5,7C 473.587,5.58609 473.587,4.08609 474.5,2.5 Z"></path></g>
<g><path style="opacity:1" fill="#ccb779" d="M 523.5,2.5 C 537.5,2.5 551.5,2.5 565.5,2.5C 565.918,3.22158 566.584,3.72158 567.5,4C 566.833,4.33333 566.167,4.66667 565.5,5C 565.566,7.1086 565.899,9.27526 566.5,11.5C 565.975,12.1924 565.308,12.6924 564.5,13C 565.942,13.3768 566.942,14.2101 567.5,15.5C 553.167,15.5 538.833,15.5 524.5,15.5C 524.67,14.1779 524.337,13.0113 523.5,12C 527.5,11.3333 527.5,10.6667 523.5,10C 524.682,7.40438 524.682,4.90438 523.5,2.5 Z"></path></g>
<g><path style="opacity:1" fill="#bea56a" d="M 565.5,2.5 C 585.5,2.5 605.5,2.5 625.5,2.5C 628.746,5.74492 628.746,8.74492 625.5,11.5C 626.616,11.402 627.616,11.902 628.5,13C 627.491,13.3546 626.824,14.1879 626.5,15.5C 606.833,15.5 587.167,15.5 567.5,15.5C 566.942,14.2101 565.942,13.3768 564.5,13C 565.308,12.6924 565.975,12.1924 566.5,11.5C 565.899,9.27526 565.566,7.1086 565.5,5C 566.167,4.66667 566.833,4.33333 567.5,4C 566.584,3.72158 565.918,3.22158 565.5,2.5 Z"></path></g>
<g><path style="opacity:1" fill="#b0945b" d="M 625.5,2.5 C 636.5,2.5 647.5,2.5 658.5,2.5C 658.461,3.58317 658.127,4.58317 657.5,5.5C 658.025,6.19238 658.692,6.69238 659.5,7C 658.469,9.56383 658.469,12.3972 659.5,15.5C 648.5,15.5 637.5,15.5 626.5,15.5C 626.824,14.1879 627.491,13.3546 628.5,13C 627.616,11.902 626.616,11.402 625.5,11.5C 628.746,8.74492 628.746,5.74492 625.5,2.5 Z"></path></g>
<g><path style="opacity:1" fill="#a78851" d="M 658.5,2.5 C 668.833,2.5 679.167,2.5 689.5,2.5C 688.402,3.39695 688.402,4.23029 689.5,5C 687.203,6.15967 687.536,7.15967 690.5,8C 687.536,8.84033 687.203,9.84033 689.5,11C 688.833,11.6667 688.167,12.3333 687.5,13C 688.252,13.6708 688.586,14.5041 688.5,15.5C 678.833,15.5 669.167,15.5 659.5,15.5C 658.469,12.3972 658.469,9.56383 659.5,7C 658.692,6.69238 658.025,6.19238 657.5,5.5C 658.127,4.58317 658.461,3.58317 658.5,2.5 Z"></path></g>
<g><path style="opacity:1" fill="#9a7743" d="M 689.5,2.5 C 706.5,2.5 723.5,2.5 740.5,2.5C 740.047,3.45837 739.381,4.2917 738.5,5C 739.456,8.39364 739.789,11.8936 739.5,15.5C 722.5,15.5 705.5,15.5 688.5,15.5C 688.586,14.5041 688.252,13.6708 687.5,13C 688.167,12.3333 688.833,11.6667 689.5,11C 687.203,9.84033 687.536,8.84033 690.5,8C 687.536,7.15967 687.203,6.15967 689.5,5C 688.402,4.23029 688.402,3.39695 689.5,2.5 Z"></path></g>
<g><path style="opacity:1" fill="#906a3b" d="M 740.5,2.5 C 751.833,2.5 763.167,2.5 774.5,2.5C 774.579,3.93047 774.246,5.26381 773.5,6.5C 776.076,7.8834 775.742,8.71673 772.5,9C 773.5,9.33333 774.5,9.66667 775.5,10C 774.167,11.3333 774.167,12.6667 775.5,14C 774.5,14.3333 773.5,14.6667 772.5,15C 774.602,16.7328 774.935,18.7328 773.5,21C 775.891,22.3086 775.891,23.3086 773.5,24C 774.479,25.7785 774.146,27.4452 772.5,29C 774.229,32.0615 774.563,35.2281 773.5,38.5C 776.076,39.8834 775.742,40.7167 772.5,41C 773.5,41.3333 774.5,41.6667 775.5,42C 774.167,43.3333 774.167,44.6667 775.5,46C 774.5,46.3333 773.5,46.6667 772.5,47C 774.602,48.7328 774.935,50.7328 773.5,53C 775.891,54.3086 775.891,55.3086 773.5,56C 774.479,57.7785 774.146,59.4452 772.5,61C 774.229,64.0615 774.563,67.2281 773.5,70.5C 776.076,71.8834 775.742,72.7167 772.5,73C 773.5,73.3333 774.5,73.6667 775.5,74C 774.167,75.3333 774.167,76.6667 775.5,78C 774.5,78.3333 773.5,78.6667 772.5,79C 774.602,80.7328 774.935,82.7328 773.5,85C 775.891,86.3086 775.891,87.3086 773.5,88C 774.479,89.7785 774.146,91.4452 772.5,93C 774.229,96.0615 774.563,99.2281 773.5,102.5C 776.076,103.883 775.742,104.717 772.5,105C 773.5,105.333 774.5,105.667 775.5,106C 774.167,107.333 774.167,108.667 775.5,110C 774.5,110.333 773.5,110.667 772.5,111C 774.602,112.733 774.935,114.733 773.5,117C 775.891,118.309 775.891,119.309 773.5,120C 774.479,121.779 774.146,123.445 772.5,125C 774.229,128.061 774.563,131.228 773.5,134.5C 776.076,135.883 775.742,136.717 772.5,137C 773.5,137.333 774.5,137.667 775.5,138C 774.167,139.333 774.167,140.667 775.5,142C 774.5,142.333 773.5,142.667 772.5,143C 774.602,144.733 774.935,146.733 773.5,149C 775.891,150.309 775.891,151.309 773.5,152C 774.479,153.779 774.146,155.445 772.5,157C 774.229,160.061 774.563,163.228 773.5,166.5C 776.076,167.883 775.742,168.717 772.5,169C 773.5,169.333 774.5,169.667 775.5,170C 774.167,171.333 774.167,172.667 775.5,174C 774.5,174.333 773.5,174.667 772.5,175C 774.602,176.733 774.935,178.733 773.5,181C 775.891,182.309 775.891,183.309 773.5,184C 774.479,185.779 774.146,187.445 772.5,189C 774.229,192.061 774.563,195.228 773.5,198.5C 776.076,199.883 775.742,200.717 772.5,201C 773.5,201.333 774.5,201.667 775.5,202C 774.167,203.333 774.167,204.667 775.5,206C 774.5,206.333 773.5,206.667 772.5,207C 774.602,208.733 774.935,210.733 773.5,213C 775.891,214.309 775.891,215.309 773.5,216C 774.479,217.779 774.146,219.445 772.5,221C 774.229,224.061 774.563,227.228 773.5,230.5C 776.076,231.883 775.742,232.717 772.5,233C 773.5,233.333 774.5,233.667 775.5,234C 774.167,235.333 774.167,236.667 775.5,238C 774.5,238.333 773.5,238.667 772.5,239C 774.602,240.733 774.935,242.733 773.5,245C 775.891,246.309 775.891,247.309 773.5,248C 774.479,249.779 774.146,251.445 772.5,253C 774.229,256.061 774.563,259.228 773.5,262.5C 776.076,263.883 775.742,264.717 772.5,265C 773.5,265.333 774.5,265.667 775.5,266C 774.167,267.333 774.167,268.667 775.5,270C 774.5,270.333 773.5,270.667 772.5,271C 774.602,272.733 774.935,274.733 773.5,277C 775.891,278.309 775.891,279.309 773.5,280C 774.479,281.779 774.146,283.445 772.5,285C 774.229,288.061 774.563,291.228 773.5,294.5C 776.076,295.883 775.742,296.717 772.5,297C 773.5,297.333 774.5,297.667 775.5,298C 774.167,299.333 774.167,300.667 775.5,302C 774.5,302.333 773.5,302.667 772.5,303C 774.602,304.733 774.935,306.733 773.5,309C 775.891,310.309 775.891,311.309 773.5,312C 774.479,313.779 774.146,315.445 772.5,317C 774.229,320.061 774.563,323.228 773.5,326.5C 776.076,327.883 775.742,328.717 772.5,329C 773.5,329.333 774.5,329.667 775.5,330C 774.167,331.333 774.167,332.667 775.5,334C 774.5,334.333 773.5,334.667 772.5,335C 774.602,336.733 774.935,338.733 773.5,341C 775.891,342.309 775.891,343.309 773.5,344C 774.479,345.779 774.146,347.445 772.5,349C 774.229,352.061 774.563,355.228 773.5,358.5C 776.076,359.883 775.742,360.717 772.5,361C 773.5,361.333 774.5,361.667 775.5,362C 774.167,363.333 774.167,364.667 775.5,366C 774.5,366.333 773.5,366.667 772.5,367C 774.602,368.733 774.935,370.733 773.5,373C 775.891,374.309 775.891,375.309 773.5,376C 774.479,377.779 774.146,379.445 772.5,381C 774.229,384.061 774.563,387.228 773.5,390.5C 776.076,391.883 775.742,392.717 772.5,393C 773.5,393.333 774.5,393.667 775.5,394C 774.167,395.333 774.167,396.667 775.5,398C 774.5,398.333 773.5,398.667 772.5,399C 774.602,400.733 774.935,402.733 773.5,405C 775.891,406.309 775.891,407.309 773.5,408C 774.479,409.779 774.146,411.445 772.5,413C 774.229,416.061 774.563,419.228 773.5,422.5C 776.076,423.883 775.742,424.717 772.5,425C 773.5,425.333 774.5,425.667 775.5,426C 774.167,427.333 774.167,428.667 775.5,430C 774.5,430.333 773.5,430.667 772.5,431C 774.602,432.733 774.935,434.733 773.5,437C 775.891,438.309 775.891,439.309 773.5,440C 774.479,441.779 774.146,443.445 772.5,445C 774.229,448.061 774.563,451.228 773.5,454.5C 776.076,455.883 775.742,456.717 772.5,457C 773.5,457.333 774.5,457.667 775.5,458C 774.167,459.333 774.167,460.667 775.5,462C 774.5,462.333 773.5,462.667 772.5,463C 774.602,464.733 774.935,466.733 773.5,469C 775.891,470.309 775.891,471.309 773.5,472C 774.479,473.779 774.146,475.445 772.5,477C 774.229,480.061 774.563,483.228 773.5,486.5C 776.076,487.883 775.742,488.717 772.5,489C 773.5,489.333 774.5,489.667 775.5,490C 774.167,491.333 774.167,492.667 775.5,494C 774.5,494.333 773.5,494.667 772.5,495C 774.602,496.733 774.935,498.733 773.5,501C 775.891,502.309 775.891,503.309 773.5,504C 774.479,505.779 774.146,507.445 772.5,509C 774.229,512.061 774.563,515.228 773.5,518.5C 776.076,519.883 775.742,520.717 772.5,521C 773.5,521.333 774.5,521.667 775.5,522C 774.167,523.333 774.167,524.667 775.5,526C 774.5,526.333 773.5,526.667 772.5,527C 773.823,527.816 774.489,528.983 774.5,530.5C 762.5,530.5 750.5,530.5 738.5,530.5C 738.577,529.25 739.244,528.417 740.5,528C 739.549,524.943 739.216,521.777 739.5,518.5C 749.5,518.5 759.5,518.5 769.5,518.5C 769.5,351.167 769.5,183.833 769.5,16.5C 759.681,15.506 749.681,15.1726 739.5,15.5C 739.789,11.8936 739.456,8.39364 738.5,5C 739.381,4.2917 740.047,3.45837 740.5,2.5 Z"></path></g>
<g><path style="opacity:1" fill="#d3c3ab" d="M 46.5,15.5 C 57.1667,15.5 67.8333,15.5 78.5,15.5C 90.5,15.5 102.5,15.5 114.5,15.5C 131.833,15.5 149.167,15.5 166.5,15.5C 175.833,15.5 185.167,15.5 194.5,15.5C 205.833,15.5 217.167,15.5 228.5,15.5C 239.167,15.5 249.833,15.5 260.5,15.5C 277.5,15.5 294.5,15.5 311.5,15.5C 322.167,15.5 332.833,15.5 343.5,15.5C 376.5,15.5 409.5,15.5 442.5,15.5C 453.167,15.5 463.833,15.5 474.5,15.5C 491.167,15.5 507.833,15.5 524.5,15.5C 538.833,15.5 553.167,15.5 567.5,15.5C 587.167,15.5 606.833,15.5 626.5,15.5C 637.5,15.5 648.5,15.5 659.5,15.5C 669.167,15.5 678.833,15.5 688.5,15.5C 705.5,15.5 722.5,15.5 739.5,15.5C 749.681,15.1726 759.681,15.506 769.5,16.5C 518.5,16.5 267.5,16.5 16.5,16.5C 16.5,183.833 16.5,351.167 16.5,518.5C 15.5003,351.001 15.167,183.334 15.5,15.5C 25.8333,15.5 36.1667,15.5 46.5,15.5 Z"></path></g>
<g><path style="opacity:1" fill="#fefefe" d="M 769.5,16.5 C 769.5,183.833 769.5,351.167 769.5,518.5C 759.5,518.5 749.5,518.5 739.5,518.5C 722.5,518.5 705.5,518.5 688.5,518.5C 678.5,518.5 668.5,518.5 658.5,518.5C 645.167,518.5 631.833,518.5 618.5,518.5C 607.833,518.5 597.167,518.5 586.5,518.5C 571.167,518.5 555.833,518.5 540.5,518.5C 529.5,518.5 518.5,518.5 507.5,518.5C 496.5,518.5 485.5,518.5 474.5,518.5C 457.833,518.5 441.167,518.5 424.5,518.5C 403.833,518.5 383.167,518.5 362.5,518.5C 351.5,518.5 340.5,518.5 329.5,518.5C 318.167,518.5 306.833,518.5 295.5,518.5C 284.167,518.5 272.833,518.5 261.5,518.5C 251.5,518.5 241.5,518.5 231.5,518.5C 214.167,518.5 196.833,518.5 179.5,518.5C 167.833,518.5 156.167,518.5 144.5,518.5C 134.167,518.5 123.833,518.5 113.5,518.5C 90.8333,518.5 68.1667,518.5 45.5,518.5C 35.8333,518.5 26.1667,518.5 16.5,518.5C 16.5,351.167 16.5,183.833 16.5,16.5C 267.5,16.5 518.5,16.5 769.5,16.5 Z"></path></g>
<g><path style="opacity:1" fill="#926e3c" d="M 227.5,70.5 C 226.668,73.6336 226.001,77.1336 225.5,81C 225.305,83.3523 225.972,85.3523 227.5,87C 227.848,90.2913 227.181,93.7913 225.5,97.5C 225.106,99.4236 225.773,101.257 227.5,103C 226.863,105.505 226.196,108.338 225.5,111.5C 226.353,115.939 227.019,120.105 227.5,124C 226.302,126.79 225.635,129.457 225.5,132C 227.507,134.988 227.507,138.155 225.5,141.5C 218.5,141.5 211.5,141.5 204.5,141.5C 210.978,117.925 217.311,94.2579 223.5,70.5C 224.833,70.5 226.167,70.5 227.5,70.5 Z"></path></g>
<g><path style="opacity:1" fill="#9a7743" d="M 227.5,70.5 C 231.833,70.5 236.167,70.5 240.5,70.5C 241.439,74.7866 241.773,78.9533 241.5,83C 238.833,84.3333 238.833,85.6667 241.5,87C 240.757,96.1526 240.757,105.486 241.5,115C 238.833,116.333 238.833,117.667 241.5,119C 240.543,126.289 240.543,133.789 241.5,141.5C 236.167,141.5 230.833,141.5 225.5,141.5C 227.507,138.155 227.507,134.988 225.5,132C 225.635,129.457 226.302,126.79 227.5,124C 227.019,120.105 226.353,115.939 225.5,111.5C 226.196,108.338 226.863,105.505 227.5,103C 225.773,101.257 225.106,99.4236 225.5,97.5C 227.181,93.7913 227.848,90.2913 227.5,87C 225.972,85.3523 225.305,83.3523 225.5,81C 226.001,77.1336 226.668,73.6336 227.5,70.5 Z"></path></g>
<g><path style="opacity:1" fill="#a4844e" d="M 240.5,70.5 C 246.5,70.5 252.5,70.5 258.5,70.5C 257.831,78.4965 257.831,86.3298 258.5,94C 256.109,94.6914 256.109,95.6914 258.5,97C 258.01,106.49 258.01,116.157 258.5,126C 256.109,126.691 256.109,127.691 258.5,129C 258.433,132.91 258.1,137.077 257.5,141.5C 252.167,141.5 246.833,141.5 241.5,141.5C 240.543,133.789 240.543,126.289 241.5,119C 238.833,117.667 238.833,116.333 241.5,115C 240.757,105.486 240.757,96.1526 241.5,87C 238.833,85.6667 238.833,84.3333 241.5,83C 241.773,78.9533 241.439,74.7866 240.5,70.5 Z"></path></g>
<g><path style="opacity:1" fill="#b59b61" d="M 272.5,70.5 C 280.196,70.1692 287.862,70.5025 295.5,71.5C 288.386,94.2881 282.053,117.288 276.5,140.5C 275.833,140.833 275.167,141.167 274.5,141.5C 273.722,140.844 273.056,140.011 272.5,139C 272.606,137.071 272.939,135.071 273.5,133C 273.095,132.055 272.428,131.388 271.5,131C 273.335,130.072 273.668,128.906 272.5,127.5C 273.093,125.618 273.76,123.785 274.5,122C 272.219,120.518 272.219,118.851 274.5,117C 273.707,115.915 273.04,114.748 272.5,113.5C 273.833,112.5 273.833,111.5 272.5,110.5C 273.025,109.808 273.692,109.308 274.5,109C 273.572,108.612 272.905,107.945 272.5,107C 272.606,105.071 272.939,103.071 273.5,101C 273.095,100.055 272.428,99.3879 271.5,99C 273.335,98.0723 273.668,96.9056 272.5,95.5C 273.093,93.6183 273.76,91.7849 274.5,90C 272.219,88.5177 272.219,86.851 274.5,85C 273.707,83.9148 273.04,82.7481 272.5,81.5C 273.833,80.5 273.833,79.5 272.5,78.5C 273.025,77.8076 273.692,77.3076 274.5,77C 273.572,76.6121 272.905,75.9454 272.5,75C 273.58,73.5447 273.58,72.0447 272.5,70.5 Z"></path></g>
<g><path style="opacity:1" fill="#e9dd99" d="M 368.5,70.5 C 367.953,154.98 367.953,239.647 368.5,324.5C 368.007,326.806 367.674,329.139 367.5,331.5C 365.833,331.5 364.167,331.5 362.5,331.5C 361.209,329.189 361.209,326.856 362.5,324.5C 360.625,323.031 360.625,321.198 362.5,319C 361.707,317.915 361.04,316.748 360.5,315.5C 361.711,314.28 361.711,313.113 360.5,312C 361.167,311.667 361.833,311.333 362.5,311C 361.633,304.295 361.633,298.128 362.5,292.5C 360.625,291.031 360.625,289.198 362.5,287C 361.707,285.915 361.04,284.748 360.5,283.5C 361.711,282.28 361.711,281.113 360.5,280C 361.167,279.667 361.833,279.333 362.5,279C 361.633,272.295 361.633,266.128 362.5,260.5C 360.625,259.031 360.625,257.198 362.5,255C 361.707,253.915 361.04,252.748 360.5,251.5C 361.711,250.28 361.711,249.113 360.5,248C 361.167,247.667 361.833,247.333 362.5,247C 361.633,240.295 361.633,234.128 362.5,228.5C 360.625,227.031 360.625,225.198 362.5,223C 361.707,221.915 361.04,220.748 360.5,219.5C 361.711,218.28 361.711,217.113 360.5,216C 361.167,215.667 361.833,215.333 362.5,215C 361.633,208.295 361.633,202.128 362.5,196.5C 360.625,195.031 360.625,193.198 362.5,191C 361.707,189.915 361.04,188.748 360.5,187.5C 361.711,186.28 361.711,185.113 360.5,184C 361.167,183.667 361.833,183.333 362.5,183C 361.633,176.295 361.633,170.128 362.5,164.5C 360.625,163.031 360.625,161.198 362.5,159C 361.707,157.915 361.04,156.748 360.5,155.5C 361.711,154.28 361.711,153.113 360.5,152C 361.167,151.667 361.833,151.333 362.5,151C 361.633,144.295 361.633,138.128 362.5,132.5C 360.625,131.031 360.625,129.198 362.5,127C 361.636,124.929 360.303,123.262 358.5,122C 359.433,117.395 359.433,113.062 358.5,109C 360.636,106.349 360.302,103.849 357.5,101.5C 360.929,91.3545 363.595,81.0211 365.5,70.5C 366.5,70.5 367.5,70.5 368.5,70.5 Z"></path></g>
<g><path style="opacity:1" fill="#eee49e" d="M 368.5,70.5 C 371.5,70.5 374.5,70.5 377.5,70.5C 378.735,72.7729 378.402,74.6062 376.5,76C 377.833,77.6667 377.833,79.3333 376.5,81C 377.668,83.1634 378.335,85.1634 378.5,87C 377.833,87.3333 377.167,87.6667 376.5,88C 378.957,89.5123 378.957,90.8456 376.5,92C 378.433,95.5085 378.433,98.8418 376.5,102C 378.434,104.271 378.434,106.271 376.5,108C 377.833,109.667 377.833,111.333 376.5,113C 377.668,115.163 378.335,117.163 378.5,119C 377.833,119.333 377.167,119.667 376.5,120C 378.957,121.512 378.957,122.846 376.5,124C 378.433,127.509 378.433,130.842 376.5,134C 378.434,136.271 378.434,138.271 376.5,140C 377.833,141.667 377.833,143.333 376.5,145C 377.668,147.163 378.335,149.163 378.5,151C 377.833,151.333 377.167,151.667 376.5,152C 378.957,153.512 378.957,154.846 376.5,156C 378.433,159.509 378.433,162.842 376.5,166C 378.434,168.271 378.434,170.271 376.5,172C 377.833,173.667 377.833,175.333 376.5,177C 377.668,179.163 378.335,181.163 378.5,183C 377.833,183.333 377.167,183.667 376.5,184C 378.957,185.512 378.957,186.846 376.5,188C 378.433,191.509 378.433,194.842 376.5,198C 378.434,200.271 378.434,202.271 376.5,204C 377.833,205.667 377.833,207.333 376.5,209C 377.668,211.163 378.335,213.163 378.5,215C 377.833,215.333 377.167,215.667 376.5,216C 378.957,217.512 378.957,218.846 376.5,220C 378.433,223.509 378.433,226.842 376.5,230C 378.434,232.271 378.434,234.271 376.5,236C 377.833,237.667 377.833,239.333 376.5,241C 377.668,243.163 378.335,245.163 378.5,247C 377.833,247.333 377.167,247.667 376.5,248C 378.957,249.512 378.957,250.846 376.5,252C 378.433,255.509 378.433,258.842 376.5,262C 378.434,264.271 378.434,266.271 376.5,268C 377.833,269.667 377.833,271.333 376.5,273C 377.763,274.705 378.097,276.372 377.5,278C 379.996,280.241 379.663,282.241 376.5,284C 377.423,286.041 377.756,288.208 377.5,290.5C 375.246,302.133 372.246,313.467 368.5,324.5C 367.953,239.647 367.953,154.98 368.5,70.5 Z"></path></g>
<g><path style="opacity:1" fill="#f8f0a8" d="M 384.5,70.5 C 389.5,70.5 394.5,70.5 399.5,70.5C 398.898,116.028 398.898,162.028 399.5,208.5C 394.996,226.85 390.329,245.183 385.5,263.5C 384.827,199.32 384.493,134.986 384.5,70.5 Z"></path></g>
<g><path style="opacity:1" fill="#eee49e" d="M 406.5,70.5 C 409.5,70.5 412.5,70.5 415.5,70.5C 415.903,93.7014 415.903,117.035 415.5,140.5C 415.453,142.038 416.12,143.038 417.5,143.5C 414.018,155.757 410.685,168.091 407.5,180.5C 405.364,178.612 405.364,176.445 407.5,174C 407.047,171.107 407.047,168.107 407.5,165C 406.833,164.667 406.167,164.333 405.5,164C 406.167,162.333 406.833,160.667 407.5,159C 406.534,156.599 406.534,153.933 407.5,151C 406.833,150.333 406.167,149.667 405.5,149C 405.331,146.677 405.997,144.344 407.5,142C 407.047,139.107 407.047,136.107 407.5,133C 406.833,132.667 406.167,132.333 405.5,132C 406.167,130.333 406.833,128.667 407.5,127C 406.534,124.599 406.534,121.933 407.5,119C 406.833,118.333 406.167,117.667 405.5,117C 405.331,114.677 405.997,112.344 407.5,110C 407.047,107.107 407.047,104.107 407.5,101C 406.833,100.667 406.167,100.333 405.5,100C 406.167,98.3333 406.833,96.6667 407.5,95C 406.534,92.5994 406.534,89.9328 407.5,87C 406.833,86.3333 406.167,85.6667 405.5,85C 405.331,82.6775 405.997,80.3441 407.5,78C 407.457,75.5003 407.123,73.0003 406.5,70.5 Z"></path></g>
<g><path style="opacity:1" fill="#e6d995" d="M 415.5,70.5 C 420.833,70.5 426.167,70.5 431.5,70.5C 430.617,93.9416 430.617,117.608 431.5,141.5C 426.381,140.897 421.715,141.564 417.5,143.5C 416.12,143.038 415.453,142.038 415.5,140.5C 415.903,117.035 415.903,93.7014 415.5,70.5 Z"></path></g>
<g><path style="opacity:1" fill="#ceba7b" d="M 455.5,70.5 C 460.5,70.5 465.5,70.5 470.5,70.5C 469.167,94.1667 469.167,117.833 470.5,141.5C 465.167,141.5 459.833,141.5 454.5,141.5C 455.125,139.473 455.125,137.64 454.5,136C 456.434,133.729 456.434,131.729 454.5,130C 455.01,125.078 455.01,120.411 454.5,116C 456.731,113.803 456.731,111.47 454.5,109C 454.888,107.192 454.888,105.525 454.5,104C 456.434,101.729 456.434,99.7287 454.5,98C 455.01,93.0779 455.01,88.4113 454.5,84C 456.731,81.8031 456.731,79.4698 454.5,77C 454.67,74.7289 455.003,72.5622 455.5,70.5 Z"></path></g>
<g><path style="opacity:1" fill="#c7b174" d="M 470.5,70.5 C 473.5,70.5 476.5,70.5 479.5,70.5C 478.536,74.8315 478.203,79.3315 478.5,84C 479.167,85.6667 479.833,87.3333 480.5,89C 479.833,89.3333 479.167,89.6667 478.5,90C 479.083,91.6187 479.083,93.452 478.5,95.5C 479.025,96.1924 479.692,96.6924 480.5,97C 479.167,98 479.167,99 480.5,100C 479.833,101.667 479.167,103.333 478.5,105C 479.332,108.493 479.332,112.16 478.5,116C 479.167,117.667 479.833,119.333 480.5,121C 479.833,121.333 479.167,121.667 478.5,122C 479.083,123.619 479.083,125.452 478.5,127.5C 479.025,128.192 479.692,128.692 480.5,129C 479.167,130 479.167,131 480.5,132C 478.751,135.119 478.084,138.286 478.5,141.5C 475.833,141.5 473.167,141.5 470.5,141.5C 469.167,117.833 469.167,94.1667 470.5,70.5 Z"></path></g>
<g><path style="opacity:1" fill="#c0a96d" d="M 479.5,70.5 C 483.167,70.5 486.833,70.5 490.5,70.5C 489.377,94.0441 489.377,117.711 490.5,141.5C 486.5,141.5 482.5,141.5 478.5,141.5C 478.084,138.286 478.751,135.119 480.5,132C 479.167,131 479.167,130 480.5,129C 479.692,128.692 479.025,128.192 478.5,127.5C 479.083,125.452 479.083,123.619 478.5,122C 479.167,121.667 479.833,121.333 480.5,121C 479.833,119.333 479.167,117.667 478.5,116C 479.332,112.16 479.332,108.493 478.5,105C 479.167,103.333 479.833,101.667 480.5,100C 479.167,99 479.167,98 480.5,97C 479.692,96.6924 479.025,96.1924 478.5,95.5C 479.083,93.452 479.083,91.6187 478.5,90C 479.167,89.6667 479.833,89.3333 480.5,89C 479.833,87.3333 479.167,85.6667 478.5,84C 478.203,79.3315 478.536,74.8315 479.5,70.5 Z"></path></g>
<g><path style="opacity:1" fill="#baa166" d="M 490.5,70.5 C 494.5,70.5 498.5,70.5 502.5,70.5C 502.64,72.1238 501.973,73.2904 500.5,74C 501.684,96.4824 501.684,118.982 500.5,141.5C 497.167,141.5 493.833,141.5 490.5,141.5C 489.377,117.711 489.377,94.0441 490.5,70.5 Z"></path></g>
<g><path style="opacity:1" fill="#b49960" d="M 502.5,70.5 C 505.167,70.5 507.833,70.5 510.5,70.5C 511.438,94.2407 511.438,117.907 510.5,141.5C 507.167,141.5 503.833,141.5 500.5,141.5C 501.684,118.982 501.684,96.4824 500.5,74C 501.973,73.2904 502.64,72.1238 502.5,70.5 Z"></path></g>
<g><path style="opacity:1" fill="#ac8e56" d="M 510.5,70.5 C 515.5,70.5 520.5,70.5 525.5,70.5C 525.577,71.7498 526.244,72.5831 527.5,73C 526.833,74 526.167,75 525.5,76C 525.513,82.6828 525.847,89.8494 526.5,97.5C 526.61,99.374 525.944,100.874 524.5,102C 525.26,103.441 525.926,104.941 526.5,106.5C 526.151,113.674 526.151,121.341 526.5,129.5C 526.61,131.374 525.944,132.874 524.5,134C 526.068,136.523 526.734,139.023 526.5,141.5C 521.167,141.5 515.833,141.5 510.5,141.5C 511.438,117.907 511.438,94.2407 510.5,70.5 Z"></path></g>
<g><path style="opacity:1" fill="#a58650" d="M 525.5,70.5 C 528.5,70.5 531.5,70.5 534.5,70.5C 535.953,71.8249 535.619,72.6582 533.5,73C 536.167,74.3333 536.167,75.6667 533.5,77C 533.549,81.0246 533.549,85.0246 533.5,89C 535.973,90.4019 535.973,91.9019 533.5,93.5C 533.694,95.7366 533.694,97.9033 533.5,100C 534.167,101.333 534.833,102.667 535.5,104C 533.109,104.691 533.109,105.691 535.5,107C 534.833,107.667 534.167,108.333 533.5,109C 533.549,113.025 533.549,117.025 533.5,121C 535.973,122.402 535.973,123.902 533.5,125.5C 533.694,127.737 533.694,129.903 533.5,132C 534.167,133.333 534.833,134.667 535.5,136C 533.109,136.691 533.109,137.691 535.5,139C 534.619,139.708 533.953,140.542 533.5,141.5C 531.167,141.5 528.833,141.5 526.5,141.5C 526.734,139.023 526.068,136.523 524.5,134C 525.944,132.874 526.61,131.374 526.5,129.5C 526.151,121.341 526.151,113.674 526.5,106.5C 525.926,104.941 525.26,103.441 524.5,102C 525.944,100.874 526.61,99.374 526.5,97.5C 525.847,89.8494 525.513,82.6828 525.5,76C 526.167,75 526.833,74 527.5,73C 526.244,72.5831 525.577,71.7498 525.5,70.5 Z"></path></g>
<g><path style="opacity:1" fill="#9f7e49" d="M 534.5,70.5 C 538.833,70.5 543.167,70.5 547.5,70.5C 546.859,71.4822 546.193,72.4822 545.5,73.5C 545.694,75.0701 545.694,76.5701 545.5,78C 548.167,78.6667 548.167,79.3333 545.5,80C 545.343,84.0274 545.676,88.194 546.5,92.5C 545.96,93.7481 545.293,94.9148 544.5,96C 545.167,96.3333 545.833,96.6667 546.5,97C 546.499,98.3988 546.165,99.8988 545.5,101.5C 546.025,102.192 546.692,102.692 547.5,103C 546.643,103.689 545.977,104.522 545.5,105.5C 545.694,107.07 545.694,108.57 545.5,110C 548.167,110.667 548.167,111.333 545.5,112C 545.343,116.027 545.676,120.194 546.5,124.5C 545.96,125.748 545.293,126.915 544.5,128C 545.167,128.333 545.833,128.667 546.5,129C 546.499,130.399 546.165,131.899 545.5,133.5C 546.025,134.192 546.692,134.692 547.5,135C 545.76,137.148 545.427,139.314 546.5,141.5C 542.167,141.5 537.833,141.5 533.5,141.5C 533.953,140.542 534.619,139.708 535.5,139C 533.109,137.691 533.109,136.691 535.5,136C 534.833,134.667 534.167,133.333 533.5,132C 533.694,129.903 533.694,127.737 533.5,125.5C 535.973,123.902 535.973,122.402 533.5,121C 533.549,117.025 533.549,113.025 533.5,109C 534.167,108.333 534.833,107.667 535.5,107C 533.109,105.691 533.109,104.691 535.5,104C 534.833,102.667 534.167,101.333 533.5,100C 533.694,97.9033 533.694,95.7366 533.5,93.5C 535.973,91.9019 535.973,90.4019 533.5,89C 533.549,85.0246 533.549,81.0246 533.5,77C 536.167,75.6667 536.167,74.3333 533.5,73C 535.619,72.6582 535.953,71.8249 534.5,70.5 Z"></path></g>
<g><path style="opacity:1" fill="#987441" d="M 547.5,70.5 C 551.167,70.5 554.833,70.5 558.5,70.5C 558.261,72.4672 558.594,74.3005 559.5,76C 558.833,76.6667 558.167,77.3333 557.5,78C 558.833,80.6667 558.833,83.3333 557.5,86C 559.891,87.3086 559.891,88.3086 557.5,89C 558.167,89.3333 558.833,89.6667 559.5,90C 559.255,96.0883 559.255,102.088 559.5,108C 558.833,108.667 558.167,109.333 557.5,110C 558.833,112.667 558.833,115.333 557.5,118C 559.891,119.309 559.891,120.309 557.5,121C 558.167,121.333 558.833,121.667 559.5,122C 558.626,127.1 558.293,132.1 558.5,137C 558.387,138.699 559.053,139.866 560.5,140.5C 556.03,141.486 551.363,141.819 546.5,141.5C 545.427,139.314 545.76,137.148 547.5,135C 546.692,134.692 546.025,134.192 545.5,133.5C 546.165,131.899 546.499,130.399 546.5,129C 545.833,128.667 545.167,128.333 544.5,128C 545.293,126.915 545.96,125.748 546.5,124.5C 545.676,120.194 545.343,116.027 545.5,112C 548.167,111.333 548.167,110.667 545.5,110C 545.694,108.57 545.694,107.07 545.5,105.5C 545.977,104.522 546.643,103.689 547.5,103C 546.692,102.692 546.025,102.192 545.5,101.5C 546.165,99.8988 546.499,98.3988 546.5,97C 545.833,96.6667 545.167,96.3333 544.5,96C 545.293,94.9148 545.96,93.7481 546.5,92.5C 545.676,88.194 545.343,84.0274 545.5,80C 548.167,79.3333 548.167,78.6667 545.5,78C 545.694,76.5701 545.694,75.0701 545.5,73.5C 546.193,72.4822 546.859,71.4822 547.5,70.5 Z"></path></g>
<g><path style="opacity:1" fill="#916c3a" d="M 558.5,70.5 C 565.5,70.5 572.5,70.5 579.5,70.5C 572.861,93.7183 566.528,117.052 560.5,140.5C 559.053,139.866 558.387,138.699 558.5,137C 558.293,132.1 558.626,127.1 559.5,122C 558.833,121.667 558.167,121.333 557.5,121C 559.891,120.309 559.891,119.309 557.5,118C 558.833,115.333 558.833,112.667 557.5,110C 558.167,109.333 558.833,108.667 559.5,108C 559.255,102.088 559.255,96.0883 559.5,90C 558.833,89.6667 558.167,89.3333 557.5,89C 559.891,88.3086 559.891,87.3086 557.5,86C 558.833,83.3333 558.833,80.6667 557.5,78C 558.167,77.3333 558.833,76.6667 559.5,76C 558.594,74.3005 558.261,72.4672 558.5,70.5 Z"></path></g>
<g><path style="opacity:1" fill="#e0d28f" d="M 431.5,70.5 C 433.833,70.5 436.167,70.5 438.5,70.5C 439.833,94.1667 439.833,117.833 438.5,141.5C 436.167,141.5 433.833,141.5 431.5,141.5C 430.617,117.608 430.617,93.9416 431.5,70.5 Z"></path></g>
<g><path style="opacity:1" fill="#e4d794" d="M 357.5,101.5 C 360.302,103.849 360.636,106.349 358.5,109C 359.433,113.062 359.433,117.395 358.5,122C 360.303,123.262 361.636,124.929 362.5,127C 360.625,129.198 360.625,131.031 362.5,132.5C 361.633,138.128 361.633,144.295 362.5,151C 361.833,151.333 361.167,151.667 360.5,152C 361.711,153.113 361.711,154.28 360.5,155.5C 361.04,156.748 361.707,157.915 362.5,159C 360.625,161.198 360.625,163.031 362.5,164.5C 361.633,170.128 361.633,176.295 362.5,183C 361.833,183.333 361.167,183.667 360.5,184C 361.711,185.113 361.711,186.28 360.5,187.5C 361.04,188.748 361.707,189.915 362.5,191C 360.625,193.198 360.625,195.031 362.5,196.5C 361.633,202.128 361.633,208.295 362.5,215C 361.833,215.333 361.167,215.667 360.5,216C 361.711,217.113 361.711,218.28 360.5,219.5C 361.04,220.748 361.707,221.915 362.5,223C 360.625,225.198 360.625,227.031 362.5,228.5C 361.633,234.128 361.633,240.295 362.5,247C 361.833,247.333 361.167,247.667 360.5,248C 361.711,249.113 361.711,250.28 360.5,251.5C 361.04,252.748 361.707,253.915 362.5,255C 360.625,257.198 360.625,259.031 362.5,260.5C 361.633,266.128 361.633,272.295 362.5,279C 361.833,279.333 361.167,279.667 360.5,280C 361.711,281.113 361.711,282.28 360.5,283.5C 361.04,284.748 361.707,285.915 362.5,287C 360.625,289.198 360.625,291.031 362.5,292.5C 361.633,298.128 361.633,304.295 362.5,311C 361.833,311.333 361.167,311.667 360.5,312C 361.711,313.113 361.711,314.28 360.5,315.5C 361.04,316.748 361.707,317.915 362.5,319C 360.625,321.198 360.625,323.031 362.5,324.5C 361.209,326.856 361.209,329.189 362.5,331.5C 359.167,331.5 355.833,331.5 352.5,331.5C 352.232,263.667 352.565,196.001 353.5,128.5C 353.006,126.974 352.339,125.641 351.5,124.5C 353.344,116.791 355.344,109.124 357.5,101.5 Z"></path></g>
<g><path style="opacity:1" fill="#d7c685" d="M 438.5,70.5 C 444.167,70.5 449.833,70.5 455.5,70.5C 455.003,72.5622 454.67,74.7289 454.5,77C 456.731,79.4698 456.731,81.8031 454.5,84C 455.01,88.4113 455.01,93.0779 454.5,98C 456.434,99.7287 456.434,101.729 454.5,104C 454.888,105.525 454.888,107.192 454.5,109C 456.731,111.47 456.731,113.803 454.5,116C 455.01,120.411 455.01,125.078 454.5,130C 456.434,131.729 456.434,133.729 454.5,136C 455.125,137.64 455.125,139.473 454.5,141.5C 449.167,141.5 443.833,141.5 438.5,141.5C 439.833,117.833 439.833,94.1667 438.5,70.5 Z"></path></g>
<g><path style="opacity:1" fill="#ad9058" d="M 258.5,70.5 C 263.167,70.5 267.833,70.5 272.5,70.5C 273.58,72.0447 273.58,73.5447 272.5,75C 272.905,75.9454 273.572,76.6121 274.5,77C 273.692,77.3076 273.025,77.8076 272.5,78.5C 273.833,79.5 273.833,80.5 272.5,81.5C 273.04,82.7481 273.707,83.9148 274.5,85C 272.219,86.851 272.219,88.5177 274.5,90C 273.76,91.7849 273.093,93.6183 272.5,95.5C 273.668,96.9056 273.335,98.0723 271.5,99C 272.428,99.3879 273.095,100.055 273.5,101C 272.939,103.071 272.606,105.071 272.5,107C 272.905,107.945 273.572,108.612 274.5,109C 273.692,109.308 273.025,109.808 272.5,110.5C 273.833,111.5 273.833,112.5 272.5,113.5C 273.04,114.748 273.707,115.915 274.5,117C 272.219,118.851 272.219,120.518 274.5,122C 273.76,123.785 273.093,125.618 272.5,127.5C 273.668,128.906 273.335,130.072 271.5,131C 272.428,131.388 273.095,132.055 273.5,133C 272.939,135.071 272.606,137.071 272.5,139C 273.056,140.011 273.722,140.844 274.5,141.5C 268.833,141.5 263.167,141.5 257.5,141.5C 258.1,137.077 258.433,132.91 258.5,129C 256.109,127.691 256.109,126.691 258.5,126C 258.01,116.157 258.01,106.49 258.5,97C 256.109,95.6914 256.109,94.6914 258.5,94C 257.831,86.3298 257.831,78.4965 258.5,70.5 Z"></path></g>
<g><path style="opacity:1" fill="#f3eaa3" d="M 399.5,70.5 C 401.833,70.5 404.167,70.5 406.5,70.5C 407.123,73.0003 407.457,75.5003 407.5,78C 405.997,80.3441 405.331,82.6775 405.5,85C 406.167,85.6667 406.833,86.3333 407.5,87C 406.534,89.9328 406.534,92.5994 407.5,95C 406.833,96.6667 406.167,98.3333 405.5,100C 406.167,100.333 406.833,100.667 407.5,101C 407.047,104.107 407.047,107.107 407.5,110C 405.997,112.344 405.331,114.677 405.5,117C 406.167,117.667 406.833,118.333 407.5,119C 406.534,121.933 406.534,124.599 407.5,127C 406.833,128.667 406.167,130.333 405.5,132C 406.167,132.333 406.833,132.667 407.5,133C 407.047,136.107 407.047,139.107 407.5,142C 405.997,144.344 405.331,146.677 405.5,149C 406.167,149.667 406.833,150.333 407.5,151C 406.534,153.933 406.534,156.599 407.5,159C 406.833,160.667 406.167,162.333 405.5,164C 406.167,164.333 406.833,164.667 407.5,165C 407.047,168.107 407.047,171.107 407.5,174C 405.364,176.445 405.364,178.612 407.5,180.5C 405.199,190.046 402.533,199.379 399.5,208.5C 398.898,162.028 398.898,116.028 399.5,70.5 Z"></path></g>
<g><path style="opacity:1" fill="#dfd18f" d="M 351.5,124.5 C 352.339,125.641 353.006,126.974 353.5,128.5C 352.565,196.001 352.232,263.667 352.5,331.5C 350.167,331.5 347.833,331.5 345.5,331.5C 346.206,329.694 345.873,327.861 344.5,326C 346.433,322.842 346.433,319.509 344.5,316C 346.957,314.846 346.957,313.512 344.5,312C 345.167,311.667 345.833,311.333 346.5,311C 345.167,310.333 345.167,309.667 346.5,309C 345.833,307.667 345.167,306.333 344.5,305C 345.833,303.333 345.833,301.667 344.5,300C 346.434,298.271 346.434,296.271 344.5,294C 346.433,290.842 346.433,287.509 344.5,284C 346.957,282.846 346.957,281.512 344.5,280C 345.167,279.667 345.833,279.333 346.5,279C 345.167,278.333 345.167,277.667 346.5,277C 345.833,275.667 345.167,274.333 344.5,273C 345.833,271.333 345.833,269.667 344.5,268C 346.434,266.271 346.434,264.271 344.5,262C 346.433,258.842 346.433,255.509 344.5,252C 346.957,250.846 346.957,249.512 344.5,248C 345.167,247.667 345.833,247.333 346.5,247C 345.167,246.333 345.167,245.667 346.5,245C 345.833,243.667 345.167,242.333 344.5,241C 345.833,239.333 345.833,237.667 344.5,236C 346.434,234.271 346.434,232.271 344.5,230C 346.433,226.842 346.433,223.509 344.5,220C 346.957,218.846 346.957,217.512 344.5,216C 345.167,215.667 345.833,215.333 346.5,215C 345.167,214.333 345.167,213.667 346.5,213C 345.833,211.667 345.167,210.333 344.5,209C 345.833,207.333 345.833,205.667 344.5,204C 346.434,202.271 346.434,200.271 344.5,198C 346.433,194.842 346.433,191.509 344.5,188C 346.957,186.846 346.957,185.512 344.5,184C 345.167,183.667 345.833,183.333 346.5,183C 345.167,182.333 345.167,181.667 346.5,181C 345.833,179.667 345.167,178.333 344.5,177C 345.833,175.333 345.833,173.667 344.5,172C 346.434,170.271 346.434,168.271 344.5,166C 346.433,162.842 346.433,159.509 344.5,156C 347.051,154.484 346.718,153.651 343.5,153.5C 345.767,143.703 348.433,134.037 351.5,124.5 Z"></path></g>
<g><path style="opacity:1" fill="#e0d5c3" d="M 276.5,140.5 C 264.852,141.832 252.852,142.499 240.5,142.5C 228.329,142.5 216.329,142.167 204.5,141.5C 211.5,141.5 218.5,141.5 225.5,141.5C 230.833,141.5 236.167,141.5 241.5,141.5C 246.833,141.5 252.167,141.5 257.5,141.5C 263.167,141.5 268.833,141.5 274.5,141.5C 275.167,141.167 275.833,140.833 276.5,140.5 Z"></path></g>
<g><path style="opacity:1" fill="#896231" d="M 12.5,2.5 C 12.33,3.82207 12.6634,4.98873 13.5,6C 11.6063,7.07929 11.273,8.41262 12.5,10C 10.1224,10.9745 10.4557,11.6411 13.5,12C 12.572,12.3879 11.9054,13.0546 11.5,14C 13.1408,15.6458 12.8075,16.6458 10.5,17C 11.8333,17.6667 11.8333,18.3333 10.5,19C 13.6124,19.8505 13.9458,21.0172 11.5,22.5C 12.2035,25.8133 12.2035,29.3133 11.5,33C 12.1667,33.3333 12.8333,33.6667 13.5,34C 12.1667,35.3333 12.1667,36.6667 13.5,38C 11.6063,39.0793 11.273,40.4126 12.5,42C 10.1224,42.9745 10.4557,43.6411 13.5,44C 12.572,44.3879 11.9054,45.0546 11.5,46C 13.1408,47.6458 12.8075,48.6458 10.5,49C 11.8333,49.6667 11.8333,50.3333 10.5,51C 13.6124,51.8505 13.9458,53.0172 11.5,54.5C 12.2035,57.8133 12.2035,61.3133 11.5,65C 12.1667,65.3333 12.8333,65.6667 13.5,66C 12.1667,67.3333 12.1667,68.6667 13.5,70C 11.6063,71.0793 11.273,72.4126 12.5,74C 10.1224,74.9745 10.4557,75.6411 13.5,76C 12.572,76.3879 11.9054,77.0546 11.5,78C 13.1408,79.6458 12.8075,80.6458 10.5,81C 11.8333,81.6667 11.8333,82.3333 10.5,83C 13.6124,83.8505 13.9458,85.0172 11.5,86.5C 12.2035,89.8133 12.2035,93.3133 11.5,97C 12.1667,97.3333 12.8333,97.6667 13.5,98C 12.1667,99.3333 12.1667,100.667 13.5,102C 11.6063,103.079 11.273,104.413 12.5,106C 10.1224,106.974 10.4557,107.641 13.5,108C 12.572,108.388 11.9054,109.055 11.5,110C 13.1408,111.646 12.8075,112.646 10.5,113C 11.8333,113.667 11.8333,114.333 10.5,115C 13.6124,115.851 13.9458,117.017 11.5,118.5C 12.2035,121.813 12.2035,125.313 11.5,129C 12.1667,129.333 12.8333,129.667 13.5,130C 12.1667,131.333 12.1667,132.667 13.5,134C 11.6063,135.079 11.273,136.413 12.5,138C 10.1224,138.974 10.4557,139.641 13.5,140C 12.572,140.388 11.9054,141.055 11.5,142C 13.1408,143.646 12.8075,144.646 10.5,145C 11.8333,145.667 11.8333,146.333 10.5,147C 13.6124,147.851 13.9458,149.017 11.5,150.5C 12.2035,153.813 12.2035,157.313 11.5,161C 12.1667,161.333 12.8333,161.667 13.5,162C 12.1667,163.333 12.1667,164.667 13.5,166C 11.6063,167.079 11.273,168.413 12.5,170C 10.1224,170.974 10.4557,171.641 13.5,172C 12.572,172.388 11.9054,173.055 11.5,174C 13.1408,175.646 12.8075,176.646 10.5,177C 11.8333,177.667 11.8333,178.333 10.5,179C 13.6124,179.851 13.9458,181.017 11.5,182.5C 12.2035,185.813 12.2035,189.313 11.5,193C 12.1667,193.333 12.8333,193.667 13.5,194C 12.1667,195.333 12.1667,196.667 13.5,198C 11.6063,199.079 11.273,200.413 12.5,202C 10.1224,202.974 10.4557,203.641 13.5,204C 12.572,204.388 11.9054,205.055 11.5,206C 13.1408,207.646 12.8075,208.646 10.5,209C 11.8333,209.667 11.8333,210.333 10.5,211C 13.6124,211.851 13.9458,213.017 11.5,214.5C 12.2035,217.813 12.2035,221.313 11.5,225C 12.1667,225.333 12.8333,225.667 13.5,226C 12.1667,227.333 12.1667,228.667 13.5,230C 11.6063,231.079 11.273,232.413 12.5,234C 10.1224,234.974 10.4557,235.641 13.5,236C 12.572,236.388 11.9054,237.055 11.5,238C 13.1408,239.646 12.8075,240.646 10.5,241C 11.8333,241.667 11.8333,242.333 10.5,243C 13.6124,243.851 13.9458,245.017 11.5,246.5C 12.2035,249.813 12.2035,253.313 11.5,257C 12.1667,257.333 12.8333,257.667 13.5,258C 12.1667,259.333 12.1667,260.667 13.5,262C 11.6063,263.079 11.273,264.413 12.5,266C 10.1224,266.974 10.4557,267.641 13.5,268C 12.572,268.388 11.9054,269.055 11.5,270C 13.1408,271.646 12.8075,272.646 10.5,273C 11.8333,273.667 11.8333,274.333 10.5,275C 13.6124,275.851 13.9458,277.017 11.5,278.5C 12.2035,281.813 12.2035,285.313 11.5,289C 12.1667,289.333 12.8333,289.667 13.5,290C 12.1667,291.333 12.1667,292.667 13.5,294C 11.6063,295.079 11.273,296.413 12.5,298C 10.1224,298.974 10.4557,299.641 13.5,300C 12.572,300.388 11.9054,301.055 11.5,302C 13.1408,303.646 12.8075,304.646 10.5,305C 11.8333,305.667 11.8333,306.333 10.5,307C 13.6124,307.851 13.9458,309.017 11.5,310.5C 12.2035,313.813 12.2035,317.313 11.5,321C 12.1667,321.333 12.8333,321.667 13.5,322C 12.1667,323.333 12.1667,324.667 13.5,326C 11.6063,327.079 11.273,328.413 12.5,330C 10.1224,330.974 10.4557,331.641 13.5,332C 12.572,332.388 11.9054,333.055 11.5,334C 13.1408,335.646 12.8075,336.646 10.5,337C 11.8333,337.667 11.8333,338.333 10.5,339C 13.6124,339.851 13.9458,341.017 11.5,342.5C 12.2035,345.813 12.2035,349.313 11.5,353C 12.1667,353.333 12.8333,353.667 13.5,354C 12.1667,355.333 12.1667,356.667 13.5,358C 11.6063,359.079 11.273,360.413 12.5,362C 10.1224,362.974 10.4557,363.641 13.5,364C 12.572,364.388 11.9054,365.055 11.5,366C 13.1408,367.646 12.8075,368.646 10.5,369C 11.8333,369.667 11.8333,370.333 10.5,371C 13.6124,371.851 13.9458,373.017 11.5,374.5C 12.2035,377.813 12.2035,381.313 11.5,385C 12.1667,385.333 12.8333,385.667 13.5,386C 12.1667,387.333 12.1667,388.667 13.5,390C 11.6063,391.079 11.273,392.413 12.5,394C 10.1224,394.974 10.4557,395.641 13.5,396C 12.572,396.388 11.9054,397.055 11.5,398C 13.1408,399.646 12.8075,400.646 10.5,401C 11.8333,401.667 11.8333,402.333 10.5,403C 13.6124,403.851 13.9458,405.017 11.5,406.5C 12.2035,409.813 12.2035,413.313 11.5,417C 12.1667,417.333 12.8333,417.667 13.5,418C 12.1667,419.333 12.1667,420.667 13.5,422C 11.6063,423.079 11.273,424.413 12.5,426C 10.1224,426.974 10.4557,427.641 13.5,428C 12.572,428.388 11.9054,429.055 11.5,430C 13.1408,431.646 12.8075,432.646 10.5,433C 11.8333,433.667 11.8333,434.333 10.5,435C 13.6124,435.851 13.9458,437.017 11.5,438.5C 12.2035,441.813 12.2035,445.313 11.5,449C 12.1667,449.333 12.8333,449.667 13.5,450C 12.1667,451.333 12.1667,452.667 13.5,454C 11.6063,455.079 11.273,456.413 12.5,458C 10.1224,458.974 10.4557,459.641 13.5,460C 12.572,460.388 11.9054,461.055 11.5,462C 13.1408,463.646 12.8075,464.646 10.5,465C 11.8333,465.667 11.8333,466.333 10.5,467C 13.6124,467.851 13.9458,469.017 11.5,470.5C 12.2035,473.813 12.2035,477.313 11.5,481C 12.1667,481.333 12.8333,481.667 13.5,482C 12.1667,483.333 12.1667,484.667 13.5,486C 11.6063,487.079 11.273,488.413 12.5,490C 10.1224,490.974 10.4557,491.641 13.5,492C 12.572,492.388 11.9054,493.055 11.5,494C 13.1408,495.646 12.8075,496.646 10.5,497C 11.8333,497.667 11.8333,498.333 10.5,499C 13.6124,499.851 13.9458,501.017 11.5,502.5C 12.2035,505.813 12.2035,509.313 11.5,513C 12.1667,513.333 12.8333,513.667 13.5,514C 12.1667,515.333 12.1667,516.667 13.5,518C 11.6063,519.079 11.273,520.413 12.5,522C 10.1224,522.974 10.4557,523.641 13.5,524C 11.4078,524.953 11.0745,526.286 12.5,528C 10.3808,528.342 10.0474,529.175 11.5,530.5C 8.5,530.5 5.5,530.5 2.5,530.5C 2.5,354.5 2.5,178.5 2.5,2.5C 5.83333,2.5 9.16667,2.5 12.5,2.5 Z"></path></g>
<g><path style="opacity:1" fill="#dbcb8a" d="M 343.5,153.5 C 346.718,153.651 347.051,154.484 344.5,156C 346.433,159.509 346.433,162.842 344.5,166C 346.434,168.271 346.434,170.271 344.5,172C 345.833,173.667 345.833,175.333 344.5,177C 345.167,178.333 345.833,179.667 346.5,181C 345.167,181.667 345.167,182.333 346.5,183C 345.833,183.333 345.167,183.667 344.5,184C 346.957,185.512 346.957,186.846 344.5,188C 346.433,191.509 346.433,194.842 344.5,198C 346.434,200.271 346.434,202.271 344.5,204C 345.833,205.667 345.833,207.333 344.5,209C 345.167,210.333 345.833,211.667 346.5,213C 345.167,213.667 345.167,214.333 346.5,215C 345.833,215.333 345.167,215.667 344.5,216C 346.957,217.512 346.957,218.846 344.5,220C 346.433,223.509 346.433,226.842 344.5,230C 346.434,232.271 346.434,234.271 344.5,236C 345.833,237.667 345.833,239.333 344.5,241C 345.167,242.333 345.833,243.667 346.5,245C 345.167,245.667 345.167,246.333 346.5,247C 345.833,247.333 345.167,247.667 344.5,248C 346.957,249.512 346.957,250.846 344.5,252C 346.433,255.509 346.433,258.842 344.5,262C 346.434,264.271 346.434,266.271 344.5,268C 345.833,269.667 345.833,271.333 344.5,273C 345.167,274.333 345.833,275.667 346.5,277C 345.167,277.667 345.167,278.333 346.5,279C 345.833,279.333 345.167,279.667 344.5,280C 346.957,281.512 346.957,282.846 344.5,284C 346.433,287.509 346.433,290.842 344.5,294C 346.434,296.271 346.434,298.271 344.5,300C 345.833,301.667 345.833,303.333 344.5,305C 345.167,306.333 345.833,307.667 346.5,309C 345.167,309.667 345.167,310.333 346.5,311C 345.833,311.333 345.167,311.667 344.5,312C 346.957,313.512 346.957,314.846 344.5,316C 346.433,319.509 346.433,322.842 344.5,326C 345.873,327.861 346.206,329.694 345.5,331.5C 342.5,331.5 339.5,331.5 336.5,331.5C 336.726,328.751 336.393,326.084 335.5,323.5C 335.977,322.522 336.643,321.689 337.5,321C 336.167,320 336.167,319 337.5,318C 336.833,317.667 336.167,317.333 335.5,317C 337.661,314.043 337.661,311.376 335.5,309C 336.167,308.333 336.833,307.667 337.5,307C 336.167,305 336.167,303 337.5,301C 336.794,297.869 336.127,294.702 335.5,291.5C 335.977,290.522 336.643,289.689 337.5,289C 336.167,288 336.167,287 337.5,286C 336.833,285.667 336.167,285.333 335.5,285C 337.661,282.043 337.661,279.376 335.5,277C 336.167,276.333 336.833,275.667 337.5,275C 336.167,273 336.167,271 337.5,269C 336.794,265.869 336.127,262.702 335.5,259.5C 335.977,258.522 336.643,257.689 337.5,257C 336.167,256 336.167,255 337.5,254C 336.833,253.667 336.167,253.333 335.5,253C 337.661,250.043 337.661,247.376 335.5,245C 336.167,244.333 336.833,243.667 337.5,243C 336.167,241 336.167,239 337.5,237C 336.794,233.869 336.127,230.702 335.5,227.5C 335.977,226.522 336.643,225.689 337.5,225C 336.167,224 336.167,223 337.5,222C 336.833,221.667 336.167,221.333 335.5,221C 337.661,218.043 337.661,215.376 335.5,213C 336.167,212.333 336.833,211.667 337.5,211C 336.167,209 336.167,207 337.5,205C 336.794,201.869 336.127,198.702 335.5,195.5C 335.977,194.522 336.643,193.689 337.5,193C 336.167,192 336.167,191 337.5,190C 336.833,189.667 336.167,189.333 335.5,189C 336.167,187.667 336.833,186.333 337.5,185C 336.956,184.283 336.289,183.783 335.5,183.5C 338.169,173.496 340.836,163.496 343.5,153.5 Z"></path></g>
<g><path style="opacity:1" fill="#f3eaa3" d="M 377.5,70.5 C 379.833,70.5 382.167,70.5 384.5,70.5C 384.493,134.986 384.827,199.32 385.5,263.5C 382.975,272.612 380.308,281.612 377.5,290.5C 377.756,288.208 377.423,286.041 376.5,284C 379.663,282.241 379.996,280.241 377.5,278C 378.097,276.372 377.763,274.705 376.5,273C 377.833,271.333 377.833,269.667 376.5,268C 378.434,266.271 378.434,264.271 376.5,262C 378.433,258.842 378.433,255.509 376.5,252C 378.957,250.846 378.957,249.512 376.5,248C 377.167,247.667 377.833,247.333 378.5,247C 378.335,245.163 377.668,243.163 376.5,241C 377.833,239.333 377.833,237.667 376.5,236C 378.434,234.271 378.434,232.271 376.5,230C 378.433,226.842 378.433,223.509 376.5,220C 378.957,218.846 378.957,217.512 376.5,216C 377.167,215.667 377.833,215.333 378.5,215C 378.335,213.163 377.668,211.163 376.5,209C 377.833,207.333 377.833,205.667 376.5,204C 378.434,202.271 378.434,200.271 376.5,198C 378.433,194.842 378.433,191.509 376.5,188C 378.957,186.846 378.957,185.512 376.5,184C 377.167,183.667 377.833,183.333 378.5,183C 378.335,181.163 377.668,179.163 376.5,177C 377.833,175.333 377.833,173.667 376.5,172C 378.434,170.271 378.434,168.271 376.5,166C 378.433,162.842 378.433,159.509 376.5,156C 378.957,154.846 378.957,153.512 376.5,152C 377.167,151.667 377.833,151.333 378.5,151C 378.335,149.163 377.668,147.163 376.5,145C 377.833,143.333 377.833,141.667 376.5,140C 378.434,138.271 378.434,136.271 376.5,134C 378.433,130.842 378.433,127.509 376.5,124C 378.957,122.846 378.957,121.512 376.5,120C 377.167,119.667 377.833,119.333 378.5,119C 378.335,117.163 377.668,115.163 376.5,113C 377.833,111.333 377.833,109.667 376.5,108C 378.434,106.271 378.434,104.271 376.5,102C 378.433,98.8418 378.433,95.5085 376.5,92C 378.957,90.8456 378.957,89.5123 376.5,88C 377.167,87.6667 377.833,87.3333 378.5,87C 378.335,85.1634 377.668,83.1634 376.5,81C 377.833,79.3333 377.833,77.6667 376.5,76C 378.402,74.6062 378.735,72.7729 377.5,70.5 Z"></path></g>
<g><path style="opacity:1" fill="#d6c584" d="M 335.5,183.5 C 336.289,183.783 336.956,184.283 337.5,185C 336.833,186.333 336.167,187.667 335.5,189C 336.167,189.333 336.833,189.667 337.5,190C 336.167,191 336.167,192 337.5,193C 336.643,193.689 335.977,194.522 335.5,195.5C 336.127,198.702 336.794,201.869 337.5,205C 336.167,207 336.167,209 337.5,211C 336.833,211.667 336.167,212.333 335.5,213C 337.661,215.376 337.661,218.043 335.5,221C 336.167,221.333 336.833,221.667 337.5,222C 336.167,223 336.167,224 337.5,225C 336.643,225.689 335.977,226.522 335.5,227.5C 336.127,230.702 336.794,233.869 337.5,237C 336.167,239 336.167,241 337.5,243C 336.833,243.667 336.167,244.333 335.5,245C 337.661,247.376 337.661,250.043 335.5,253C 336.167,253.333 336.833,253.667 337.5,254C 336.167,255 336.167,256 337.5,257C 336.643,257.689 335.977,258.522 335.5,259.5C 336.127,262.702 336.794,265.869 337.5,269C 336.167,271 336.167,273 337.5,275C 336.833,275.667 336.167,276.333 335.5,277C 337.661,279.376 337.661,282.043 335.5,285C 336.167,285.333 336.833,285.667 337.5,286C 336.167,287 336.167,288 337.5,289C 336.643,289.689 335.977,290.522 335.5,291.5C 336.127,294.702 336.794,297.869 337.5,301C 336.167,303 336.167,305 337.5,307C 336.833,307.667 336.167,308.333 335.5,309C 337.661,311.376 337.661,314.043 335.5,317C 336.167,317.333 336.833,317.667 337.5,318C 336.167,319 336.167,320 337.5,321C 336.643,321.689 335.977,322.522 335.5,323.5C 336.393,326.084 336.726,328.751 336.5,331.5C 333.833,331.5 331.167,331.5 328.5,331.5C 328.923,329.55 329.256,327.55 329.5,325.5C 327.525,324.212 327.525,322.545 329.5,320.5C 329.306,316.93 329.306,313.43 329.5,310C 327.566,307.113 327.566,304.446 329.5,302C 328.844,298.992 328.844,296.159 329.5,293.5C 327.525,292.212 327.525,290.545 329.5,288.5C 329.306,284.93 329.306,281.43 329.5,278C 327.566,275.113 327.566,272.446 329.5,270C 328.844,266.992 328.844,264.159 329.5,261.5C 327.525,260.212 327.525,258.545 329.5,256.5C 329.306,252.93 329.306,249.43 329.5,246C 327.566,243.113 327.566,240.446 329.5,238C 328.844,234.992 328.844,232.159 329.5,229.5C 327.525,228.212 327.525,226.545 329.5,224.5C 329.306,220.93 329.306,217.43 329.5,214C 328.906,213.536 328.239,213.369 327.5,213.5C 329.859,203.398 332.525,193.398 335.5,183.5 Z"></path></g>
<g><path style="opacity:1" fill="#d0bd7e" d="M 327.5,213.5 C 328.239,213.369 328.906,213.536 329.5,214C 329.306,217.43 329.306,220.93 329.5,224.5C 327.525,226.545 327.525,228.212 329.5,229.5C 328.844,232.159 328.844,234.992 329.5,238C 327.566,240.446 327.566,243.113 329.5,246C 329.306,249.43 329.306,252.93 329.5,256.5C 327.525,258.545 327.525,260.212 329.5,261.5C 328.844,264.159 328.844,266.992 329.5,270C 327.566,272.446 327.566,275.113 329.5,278C 329.306,281.43 329.306,284.93 329.5,288.5C 327.525,290.545 327.525,292.212 329.5,293.5C 328.844,296.159 328.844,298.992 329.5,302C 327.566,304.446 327.566,307.113 329.5,310C 329.306,313.43 329.306,316.93 329.5,320.5C 327.525,322.545 327.525,324.212 329.5,325.5C 329.256,327.55 328.923,329.55 328.5,331.5C 323.5,331.5 318.5,331.5 313.5,331.5C 314.206,329.694 313.873,327.861 312.5,326C 314.433,322.842 314.433,319.509 312.5,316C 314.957,314.846 314.957,313.512 312.5,312C 313.167,311.667 313.833,311.333 314.5,311C 313.167,310.333 313.167,309.667 314.5,309C 313.833,307.667 313.167,306.333 312.5,305C 313.833,303.333 313.833,301.667 312.5,300C 314.434,298.271 314.434,296.271 312.5,294C 314.433,290.842 314.433,287.509 312.5,284C 314.957,282.846 314.957,281.512 312.5,280C 313.167,279.667 313.833,279.333 314.5,279C 313.167,278.333 313.167,277.667 314.5,277C 314.026,275.271 313.026,274.105 311.5,273.5C 316.525,253.398 321.859,233.398 327.5,213.5 Z"></path></g>
<g><path style="opacity:1" fill="#896231" d="M 774.5,2.5 C 777.167,2.5 779.833,2.5 782.5,2.5C 782.5,178.5 782.5,354.5 782.5,530.5C 779.833,530.5 777.167,530.5 774.5,530.5C 774.489,528.983 773.823,527.816 772.5,527C 773.5,526.667 774.5,526.333 775.5,526C 774.167,524.667 774.167,523.333 775.5,522C 774.5,521.667 773.5,521.333 772.5,521C 775.742,520.717 776.076,519.883 773.5,518.5C 774.563,515.228 774.229,512.061 772.5,509C 774.146,507.445 774.479,505.779 773.5,504C 775.891,503.309 775.891,502.309 773.5,501C 774.935,498.733 774.602,496.733 772.5,495C 773.5,494.667 774.5,494.333 775.5,494C 774.167,492.667 774.167,491.333 775.5,490C 774.5,489.667 773.5,489.333 772.5,489C 775.742,488.717 776.076,487.883 773.5,486.5C 774.563,483.228 774.229,480.061 772.5,477C 774.146,475.445 774.479,473.779 773.5,472C 775.891,471.309 775.891,470.309 773.5,469C 774.935,466.733 774.602,464.733 772.5,463C 773.5,462.667 774.5,462.333 775.5,462C 774.167,460.667 774.167,459.333 775.5,458C 774.5,457.667 773.5,457.333 772.5,457C 775.742,456.717 776.076,455.883 773.5,454.5C 774.563,451.228 774.229,448.061 772.5,445C 774.146,443.445 774.479,441.779 773.5,440C 775.891,439.309 775.891,438.309 773.5,437C 774.935,434.733 774.602,432.733 772.5,431C 773.5,430.667 774.5,430.333 775.5,430C 774.167,428.667 774.167,427.333 775.5,426C 774.5,425.667 773.5,425.333 772.5,425C 775.742,424.717 776.076,423.883 773.5,422.5C 774.563,419.228 774.229,416.061 772.5,413C 774.146,411.445 774.479,409.779 773.5,408C 775.891,407.309 775.891,406.309 773.5,405C 774.935,402.733 774.602,400.733 772.5,399C 773.5,398.667 774.5,398.333 775.5,398C 774.167,396.667 774.167,395.333 775.5,394C 774.5,393.667 773.5,393.333 772.5,393C 775.742,392.717 776.076,391.883 773.5,390.5C 774.563,387.228 774.229,384.061 772.5,381C 774.146,379.445 774.479,377.779 773.5,376C 775.891,375.309 775.891,374.309 773.5,373C 774.935,370.733 774.602,368.733 772.5,367C 773.5,366.667 774.5,366.333 775.5,366C 774.167,364.667 774.167,363.333 775.5,362C 774.5,361.667 773.5,361.333 772.5,361C 775.742,360.717 776.076,359.883 773.5,358.5C 774.563,355.228 774.229,352.061 772.5,349C 774.146,347.445 774.479,345.779 773.5,344C 775.891,343.309 775.891,342.309 773.5,341C 774.935,338.733 774.602,336.733 772.5,335C 773.5,334.667 774.5,334.333 775.5,334C 774.167,332.667 774.167,331.333 775.5,330C 774.5,329.667 773.5,329.333 772.5,329C 775.742,328.717 776.076,327.883 773.5,326.5C 774.563,323.228 774.229,320.061 772.5,317C 774.146,315.445 774.479,313.779 773.5,312C 775.891,311.309 775.891,310.309 773.5,309C 774.935,306.733 774.602,304.733 772.5,303C 773.5,302.667 774.5,302.333 775.5,302C 774.167,300.667 774.167,299.333 775.5,298C 774.5,297.667 773.5,297.333 772.5,297C 775.742,296.717 776.076,295.883 773.5,294.5C 774.563,291.228 774.229,288.061 772.5,285C 774.146,283.445 774.479,281.779 773.5,280C 775.891,279.309 775.891,278.309 773.5,277C 774.935,274.733 774.602,272.733 772.5,271C 773.5,270.667 774.5,270.333 775.5,270C 774.167,268.667 774.167,267.333 775.5,266C 774.5,265.667 773.5,265.333 772.5,265C 775.742,264.717 776.076,263.883 773.5,262.5C 774.563,259.228 774.229,256.061 772.5,253C 774.146,251.445 774.479,249.779 773.5,248C 775.891,247.309 775.891,246.309 773.5,245C 774.935,242.733 774.602,240.733 772.5,239C 773.5,238.667 774.5,238.333 775.5,238C 774.167,236.667 774.167,235.333 775.5,234C 774.5,233.667 773.5,233.333 772.5,233C 775.742,232.717 776.076,231.883 773.5,230.5C 774.563,227.228 774.229,224.061 772.5,221C 774.146,219.445 774.479,217.779 773.5,216C 775.891,215.309 775.891,214.309 773.5,213C 774.935,210.733 774.602,208.733 772.5,207C 773.5,206.667 774.5,206.333 775.5,206C 774.167,204.667 774.167,203.333 775.5,202C 774.5,201.667 773.5,201.333 772.5,201C 775.742,200.717 776.076,199.883 773.5,198.5C 774.563,195.228 774.229,192.061 772.5,189C 774.146,187.445 774.479,185.779 773.5,184C 775.891,183.309 775.891,182.309 773.5,181C 774.935,178.733 774.602,176.733 772.5,175C 773.5,174.667 774.5,174.333 775.5,174C 774.167,172.667 774.167,171.333 775.5,170C 774.5,169.667 773.5,169.333 772.5,169C 775.742,168.717 776.076,167.883 773.5,166.5C 774.563,163.228 774.229,160.061 772.5,157C 774.146,155.445 774.479,153.779 773.5,152C 775.891,151.309 775.891,150.309 773.5,149C 774.935,146.733 774.602,144.733 772.5,143C 773.5,142.667 774.5,142.333 775.5,142C 774.167,140.667 774.167,139.333 775.5,138C 774.5,137.667 773.5,137.333 772.5,137C 775.742,136.717 776.076,135.883 773.5,134.5C 774.563,131.228 774.229,128.061 772.5,125C 774.146,123.445 774.479,121.779 773.5,120C 775.891,119.309 775.891,118.309 773.5,117C 774.935,114.733 774.602,112.733 772.5,111C 773.5,110.667 774.5,110.333 775.5,110C 774.167,108.667 774.167,107.333 775.5,106C 774.5,105.667 773.5,105.333 772.5,105C 775.742,104.717 776.076,103.883 773.5,102.5C 774.563,99.2281 774.229,96.0615 772.5,93C 774.146,91.4452 774.479,89.7785 773.5,88C 775.891,87.3086 775.891,86.3086 773.5,85C 774.935,82.7328 774.602,80.7328 772.5,79C 773.5,78.6667 774.5,78.3333 775.5,78C 774.167,76.6667 774.167,75.3333 775.5,74C 774.5,73.6667 773.5,73.3333 772.5,73C 775.742,72.7167 776.076,71.8834 773.5,70.5C 774.563,67.2281 774.229,64.0615 772.5,61C 774.146,59.4452 774.479,57.7785 773.5,56C 775.891,55.3086 775.891,54.3086 773.5,53C 774.935,50.7328 774.602,48.7328 772.5,47C 773.5,46.6667 774.5,46.3333 775.5,46C 774.167,44.6667 774.167,43.3333 775.5,42C 774.5,41.6667 773.5,41.3333 772.5,41C 775.742,40.7167 776.076,39.8834 773.5,38.5C 774.563,35.2281 774.229,32.0615 772.5,29C 774.146,27.4452 774.479,25.7785 773.5,24C 775.891,23.3086 775.891,22.3086 773.5,21C 774.935,18.7328 774.602,16.7328 772.5,15C 773.5,14.6667 774.5,14.3333 775.5,14C 774.167,12.6667 774.167,11.3333 775.5,10C 774.5,9.66667 773.5,9.33333 772.5,9C 775.742,8.71673 776.076,7.8834 773.5,6.5C 774.246,5.26381 774.579,3.93047 774.5,2.5 Z"></path></g>
<g><path style="opacity:1" fill="#c7b175" d="M 311.5,273.5 C 313.026,274.105 314.026,275.271 314.5,277C 313.167,277.667 313.167,278.333 314.5,279C 313.833,279.333 313.167,279.667 312.5,280C 314.957,281.512 314.957,282.846 312.5,284C 314.433,287.509 314.433,290.842 312.5,294C 314.434,296.271 314.434,298.271 312.5,300C 313.833,301.667 313.833,303.333 312.5,305C 313.167,306.333 313.833,307.667 314.5,309C 313.167,309.667 313.167,310.333 314.5,311C 313.833,311.333 313.167,311.667 312.5,312C 314.957,313.512 314.957,314.846 312.5,316C 314.433,319.509 314.433,322.842 312.5,326C 313.873,327.861 314.206,329.694 313.5,331.5C 307.833,331.5 302.167,331.5 296.5,331.5C 300.88,311.979 305.88,292.645 311.5,273.5 Z"></path></g>
<g><path style="opacity:1" fill="#e6da96" d="M 418.5,372.5 C 422.857,372.586 427.19,372.92 431.5,373.5C 431.797,376.721 431.797,379.887 431.5,383C 433.991,383.626 433.991,384.459 431.5,385.5C 432.246,386.736 432.579,388.07 432.5,389.5C 431.5,389.5 430.5,389.5 429.5,389.5C 423.77,388.487 418.103,388.487 412.5,389.5C 412.36,387.876 413.027,386.71 414.5,386C 411.833,385.333 411.833,384.667 414.5,384C 413.692,383.692 413.025,383.192 412.5,382.5C 413.78,380.298 413.78,378.132 412.5,376C 414.211,374.224 416.211,373.058 418.5,372.5 Z"></path></g>
<g><path style="opacity:1" fill="#9f7e4a" d="M 537.5,372.5 C 541.804,373.131 546.137,373.631 550.5,374C 553.104,374.39 555.438,375.224 557.5,376.5C 553.247,376.566 552.58,378.066 555.5,381C 554.821,385.24 554.488,389.406 554.5,393.5C 547.614,389.991 540.281,388.658 532.5,389.5C 532.019,384.32 531.686,379.154 531.5,374C 533.708,373.809 535.708,373.309 537.5,372.5 Z"></path></g>
<g><path style="opacity:1" fill="#906a38" d="M 200.5,374.5 C 207.5,374.5 214.5,374.5 221.5,374.5C 222.086,379.287 222.086,384.287 221.5,389.5C 214.5,389.5 207.5,389.5 200.5,389.5C 200.5,384.5 200.5,379.5 200.5,374.5 Z"></path></g>
<g><path style="opacity:1" fill="#9a7743" d="M 221.5,374.5 C 227.352,374.051 233.019,374.551 238.5,376C 237.978,378.481 237.978,380.814 238.5,383C 237.833,384 237.167,385 236.5,386C 237.833,388.333 237.833,390.667 236.5,393C 237.167,393.333 237.833,393.667 238.5,394C 238.58,396.28 237.913,398.613 236.5,401C 237.167,402.333 237.833,403.667 238.5,405C 237.167,408.333 237.167,411.667 238.5,415C 237.833,416 237.167,417 236.5,418C 237.833,420.333 237.833,422.667 236.5,425C 237.167,425.333 237.833,425.667 238.5,426C 238.58,428.28 237.913,430.613 236.5,433C 237.167,434.333 237.833,435.667 238.5,437C 237.167,440.333 237.167,443.667 238.5,447C 237.833,448 237.167,449 236.5,450C 237.833,452.333 237.833,454.667 236.5,457C 237.167,457.333 237.833,457.667 238.5,458C 237.359,458.741 237.359,459.575 238.5,460.5C 232.872,461.495 227.206,461.829 221.5,461.5C 221.5,437.5 221.5,413.5 221.5,389.5C 222.086,384.287 222.086,379.287 221.5,374.5 Z"></path></g>
<g><path style="opacity:1" fill="#a48450" d="M 200.5,374.5 C 220.326,373.503 240.326,373.17 260.5,373.5C 260.5,378.833 260.5,384.167 260.5,389.5C 253.5,389.5 246.5,389.5 239.5,389.5C 239.5,413.833 239.5,438.167 239.5,462.5C 233.31,462.823 227.31,462.49 221.5,461.5C 227.206,461.829 232.872,461.495 238.5,460.5C 237.359,459.575 237.359,458.741 238.5,458C 237.833,457.667 237.167,457.333 236.5,457C 237.833,454.667 237.833,452.333 236.5,450C 237.167,449 237.833,448 238.5,447C 237.167,443.667 237.167,440.333 238.5,437C 237.833,435.667 237.167,434.333 236.5,433C 237.913,430.613 238.58,428.28 238.5,426C 237.833,425.667 237.167,425.333 236.5,425C 237.833,422.667 237.833,420.333 236.5,418C 237.167,417 237.833,416 238.5,415C 237.167,411.667 237.167,408.333 238.5,405C 237.833,403.667 237.167,402.333 236.5,401C 237.913,398.613 238.58,396.28 238.5,394C 237.833,393.667 237.167,393.333 236.5,393C 237.833,390.667 237.833,388.333 236.5,386C 237.167,385 237.833,384 238.5,383C 237.978,380.814 237.978,378.481 238.5,376C 233.019,374.551 227.352,374.051 221.5,374.5C 214.5,374.5 207.5,374.5 200.5,374.5 Z"></path></g>
<g><path style="opacity:1" fill="#d4c397" d="M 343.5,373.5 C 343.5,373.833 343.5,374.167 343.5,374.5C 335.5,374.5 327.5,374.5 319.5,374.5C 315.5,374.5 311.5,374.5 307.5,374.5C 302.833,374.5 298.167,374.5 293.5,374.5C 293.5,403.5 293.5,432.5 293.5,461.5C 298.5,461.5 303.5,461.5 308.5,461.5C 312.167,461.5 315.833,461.5 319.5,461.5C 321.167,461.5 322.833,461.5 324.5,461.5C 324.5,461.833 324.5,462.167 324.5,462.5C 313.833,462.5 303.167,462.5 292.5,462.5C 292.5,432.833 292.5,403.167 292.5,373.5C 309.5,373.5 326.5,373.5 343.5,373.5 Z"></path></g>
<g><path style="opacity:1" fill="#c3ac6f" d="M 307.5,374.5 C 309.06,376.129 308.727,377.296 306.5,378C 307.19,380.975 307.19,384.141 306.5,387.5C 307.167,387.833 307.833,388.167 308.5,388.5C 307.975,389.192 307.308,389.692 306.5,390C 306.5,391.333 306.5,392.667 306.5,394C 307.167,394.333 307.833,394.667 308.5,395C 307.167,395.667 307.167,396.333 308.5,397C 305.833,398.333 305.833,399.667 308.5,401C 307.692,401.308 307.025,401.808 306.5,402.5C 307.641,403.425 307.641,404.259 306.5,405C 308.715,406.943 308.715,408.609 306.5,410C 307.19,412.975 307.19,416.141 306.5,419.5C 307.167,419.833 307.833,420.167 308.5,420.5C 307.975,421.192 307.308,421.692 306.5,422C 306.5,423.333 306.5,424.667 306.5,426C 307.167,426.333 307.833,426.667 308.5,427C 307.167,427.667 307.167,428.333 308.5,429C 305.833,430.333 305.833,431.667 308.5,433C 307.692,433.308 307.025,433.808 306.5,434.5C 307.167,436.5 307.833,438.5 308.5,440.5C 307.975,441.192 307.308,441.692 306.5,442C 306.888,443.525 306.888,445.192 306.5,447C 308.645,448.818 308.645,450.318 306.5,451.5C 307.167,451.833 307.833,452.167 308.5,452.5C 307.975,453.192 307.308,453.692 306.5,454C 306.5,455.333 306.5,456.667 306.5,458C 307.167,458.333 307.833,458.667 308.5,459C 307.402,459.77 307.402,460.603 308.5,461.5C 303.5,461.5 298.5,461.5 293.5,461.5C 293.5,432.5 293.5,403.5 293.5,374.5C 298.167,374.5 302.833,374.5 307.5,374.5 Z"></path></g>
<g><path style="opacity:1" fill="#cbb679" d="M 307.5,374.5 C 311.5,374.5 315.5,374.5 319.5,374.5C 321.738,376.647 321.738,378.647 319.5,380.5C 319.393,383.4 319.727,386.4 320.5,389.5C 317.287,389.19 314.287,389.523 311.5,390.5C 311.5,396.833 311.5,403.167 311.5,409.5C 314.305,410.319 317.305,410.819 320.5,411C 320.249,415.586 319.916,420.419 319.5,425.5C 316.833,425.5 314.167,425.5 311.5,425.5C 311.5,432.167 311.5,438.833 311.5,445.5C 314.287,446.477 317.287,446.81 320.5,446.5C 320.353,451.347 320.019,456.347 319.5,461.5C 315.833,461.5 312.167,461.5 308.5,461.5C 307.402,460.603 307.402,459.77 308.5,459C 307.833,458.667 307.167,458.333 306.5,458C 306.5,456.667 306.5,455.333 306.5,454C 307.308,453.692 307.975,453.192 308.5,452.5C 307.833,452.167 307.167,451.833 306.5,451.5C 308.645,450.318 308.645,448.818 306.5,447C 306.888,445.192 306.888,443.525 306.5,442C 307.308,441.692 307.975,441.192 308.5,440.5C 307.833,438.5 307.167,436.5 306.5,434.5C 307.025,433.808 307.692,433.308 308.5,433C 305.833,431.667 305.833,430.333 308.5,429C 307.167,428.333 307.167,427.667 308.5,427C 307.833,426.667 307.167,426.333 306.5,426C 306.5,424.667 306.5,423.333 306.5,422C 307.308,421.692 307.975,421.192 308.5,420.5C 307.833,420.167 307.167,419.833 306.5,419.5C 307.19,416.141 307.19,412.975 306.5,410C 308.715,408.609 308.715,406.943 306.5,405C 307.641,404.259 307.641,403.425 306.5,402.5C 307.025,401.808 307.692,401.308 308.5,401C 305.833,399.667 305.833,398.333 308.5,397C 307.167,396.333 307.167,395.667 308.5,395C 307.833,394.667 307.167,394.333 306.5,394C 306.5,392.667 306.5,391.333 306.5,390C 307.308,389.692 307.975,389.192 308.5,388.5C 307.833,388.167 307.167,387.833 306.5,387.5C 307.19,384.141 307.19,380.975 306.5,378C 308.727,377.296 309.06,376.129 307.5,374.5 Z"></path></g>
<g><path style="opacity:1" fill="#d6c484" d="M 319.5,374.5 C 327.5,374.5 335.5,374.5 343.5,374.5C 343.5,379.5 343.5,384.5 343.5,389.5C 335.833,389.5 328.167,389.5 320.5,389.5C 319.727,386.4 319.393,383.4 319.5,380.5C 321.738,378.647 321.738,376.647 319.5,374.5 Z"></path></g>
<g><path style="opacity:1" fill="#95713f" d="M 557.5,376.5 C 563.594,378.272 568.594,381.606 572.5,386.5C 571.163,387.315 570.163,388.482 569.5,390C 569.525,393.346 569.525,396.679 569.5,400C 569.759,401.261 570.426,402.261 571.5,403C 570.782,405.461 570.115,407.961 569.5,410.5C 570.603,422.281 570.603,434.448 569.5,447C 570.691,447.698 571.691,448.531 572.5,449.5C 566.422,456.374 558.756,460.374 549.5,461.5C 549.414,460.504 549.748,459.671 550.5,459C 549.833,458.667 549.167,458.333 548.5,458C 548.958,455.169 550.292,452.836 552.5,451C 551.565,448.619 551.232,446.119 551.5,443.5C 561.379,437.747 566.046,429.08 565.5,417.5C 565.58,407.668 561.914,399.668 554.5,393.5C 554.488,389.406 554.821,385.24 555.5,381C 552.58,378.066 553.247,376.566 557.5,376.5 Z"></path></g>
<g><path style="opacity:1" fill="#dbcc8b" d="M 431.5,373.5 C 443.115,376.139 452.115,382.472 458.5,392.5C 454.033,396.24 449.033,399.24 443.5,401.5C 439.696,396.353 435.03,392.353 429.5,389.5C 430.5,389.5 431.5,389.5 432.5,389.5C 432.579,388.07 432.246,386.736 431.5,385.5C 433.991,384.459 433.991,383.626 431.5,383C 431.797,379.887 431.797,376.721 431.5,373.5 Z"></path></g>
<g><path style="opacity:1" fill="#b2975e" d="M 537.5,372.5 C 535.708,373.309 533.708,373.809 531.5,374C 531.686,379.154 532.019,384.32 532.5,389.5C 515.199,396.432 508.699,409.099 513,427.5C 515.047,433.621 518.547,438.621 523.5,442.5C 522.522,442.811 521.855,443.478 521.5,444.5C 521.635,449.398 521.969,454.731 522.5,460.5C 514.789,458.112 508.455,453.779 503.5,447.5C 503.32,427.615 503.32,407.949 503.5,388.5C 512.214,377.812 523.547,372.478 537.5,372.5 Z"></path></g>
<g><path style="opacity:1" fill="#f6eea8" d="M 418.5,372.5 C 416.211,373.058 414.211,374.224 412.5,376C 413.78,378.132 413.78,380.298 412.5,382.5C 413.025,383.192 413.692,383.692 414.5,384C 411.833,384.667 411.833,385.333 414.5,386C 413.027,386.71 412.36,387.876 412.5,389.5C 396.931,395.962 390.765,407.629 394,424.5C 395.175,430.514 397.675,435.848 401.5,440.5C 400.325,440.281 399.325,440.614 398.5,441.5C 399.074,443.059 399.74,444.559 400.5,446C 399.833,446.333 399.167,446.667 398.5,447C 399.833,448.667 399.833,450.333 398.5,452C 401.167,452.667 401.167,453.333 398.5,454C 399.728,455.49 399.728,456.99 398.5,458.5C 386.708,452.287 379.208,442.621 376,429.5C 371.298,404.068 380.465,385.901 403.5,375C 408.308,373.107 413.308,372.273 418.5,372.5 Z"></path></g>
<g><path style="opacity:1" fill="#8d6737" d="M 572.5,386.5 C 580.491,394.797 584.158,404.797 583.5,416.5C 583.997,429.01 580.33,440.01 572.5,449.5C 571.691,448.531 570.691,447.698 569.5,447C 570.603,434.448 570.603,422.281 569.5,410.5C 570.115,407.961 570.782,405.461 571.5,403C 570.426,402.261 569.759,401.261 569.5,400C 569.525,396.679 569.525,393.346 569.5,390C 570.163,388.482 571.163,387.315 572.5,386.5 Z"></path></g>
<g><path style="opacity:1" fill="#eee7cd" d="M 343.5,373.5 C 344.489,378.975 344.822,384.642 344.5,390.5C 333.5,390.5 322.5,390.5 311.5,390.5C 314.287,389.523 317.287,389.19 320.5,389.5C 328.167,389.5 335.833,389.5 343.5,389.5C 343.5,384.5 343.5,379.5 343.5,374.5C 343.5,374.167 343.5,373.833 343.5,373.5 Z"></path></g>
<g><path style="opacity:1" fill="#bba268" d="M 503.5,388.5 C 503.32,407.949 503.32,427.615 503.5,447.5C 496.568,438.31 493.234,427.81 493.5,416C 493.597,405.534 496.93,396.368 503.5,388.5 Z"></path></g>
<g><path style="opacity:1" fill="#fefdfd" d="M 532.5,389.5 C 540.281,388.658 547.614,389.991 554.5,393.5C 561.914,399.668 565.58,407.668 565.5,417.5C 566.046,429.08 561.379,437.747 551.5,443.5C 547.816,445.67 543.816,446.67 539.5,446.5C 533.679,447.002 528.346,445.669 523.5,442.5C 518.547,438.621 515.047,433.621 513,427.5C 508.699,409.099 515.199,396.432 532.5,389.5 Z"></path></g>
<g><path style="opacity:1" fill="#e1d7c7" d="M 260.5,389.5 C 254.021,390.491 247.354,390.824 240.5,390.5C 240.831,414.672 240.498,438.672 239.5,462.5C 239.5,438.167 239.5,413.833 239.5,389.5C 246.5,389.5 253.5,389.5 260.5,389.5 Z"></path></g>
<g><path style="opacity:1" fill="#d7c688" d="M 311.5,409.5 C 321.167,409.5 330.833,409.5 340.5,409.5C 340.5,414.833 340.5,420.167 340.5,425.5C 333.5,425.5 326.5,425.5 319.5,425.5C 319.916,420.419 320.249,415.586 320.5,411C 317.305,410.819 314.305,410.319 311.5,409.5 Z"></path></g>
<g><path style="opacity:1" fill="#f2ecd1" d="M 462.5,414.5 C 457.833,414.5 453.167,414.5 448.5,414.5C 439.5,414.5 430.5,414.5 421.5,414.5C 421.5,419.167 421.5,423.833 421.5,428.5C 429.528,428.169 437.528,428.502 445.5,429.5C 445.376,430.107 445.043,430.44 444.5,430.5C 436.684,429.508 428.684,429.174 420.5,429.5C 420.5,424.167 420.5,418.833 420.5,413.5C 434.677,413.171 448.677,413.504 462.5,414.5 Z"></path></g>
<g><path style="opacity:1" fill="#ded08e" d="M 448.5,414.5 C 448.587,430.036 448.587,445.703 448.5,461.5C 453.167,461.5 457.833,461.5 462.5,461.5C 457.695,462.487 452.695,462.821 447.5,462.5C 447.665,458.818 447.499,455.152 447,451.5C 441.283,458.062 434.116,461.729 425.5,462.5C 424.304,458.105 424.304,453.105 425.5,447.5C 426.791,447.737 427.791,447.404 428.5,446.5C 436.856,444.144 442.189,438.811 444.5,430.5C 445.043,430.44 445.376,430.107 445.5,429.5C 437.528,428.502 429.528,428.169 421.5,428.5C 421.5,423.833 421.5,419.167 421.5,414.5C 430.5,414.5 439.5,414.5 448.5,414.5 Z"></path></g>
<g><path style="opacity:1" fill="#d3c181" d="M 448.5,414.5 C 453.167,414.5 457.833,414.5 462.5,414.5C 462.5,430.167 462.5,445.833 462.5,461.5C 457.833,461.5 453.167,461.5 448.5,461.5C 448.587,445.703 448.587,430.036 448.5,414.5 Z"></path></g>
<g><path style="opacity:1" fill="#e7deb8" d="M 311.5,445.5 C 322.5,445.5 333.5,445.5 344.5,445.5C 344.5,451.167 344.5,456.833 344.5,462.5C 337.833,462.5 331.167,462.5 324.5,462.5C 324.5,462.167 324.5,461.833 324.5,461.5C 330.833,461.5 337.167,461.5 343.5,461.5C 343.5,456.5 343.5,451.5 343.5,446.5C 335.833,446.5 328.167,446.5 320.5,446.5C 317.287,446.81 314.287,446.477 311.5,445.5 Z"></path></g>
<g><path style="opacity:1" fill="#9f7e49" d="M 551.5,443.5 C 551.232,446.119 551.565,448.619 552.5,451C 550.292,452.836 548.958,455.169 548.5,458C 549.167,458.333 549.833,458.667 550.5,459C 549.748,459.671 549.414,460.504 549.5,461.5C 547.393,462.468 545.059,462.802 542.5,462.5C 539.41,463.17 537.743,462.003 537.5,459C 537.714,455.643 537.88,452.143 538,448.5C 538.717,447.956 539.217,447.289 539.5,446.5C 543.816,446.67 547.816,445.67 551.5,443.5 Z"></path></g>
<g><path style="opacity:1" fill="#d6c484" d="M 320.5,446.5 C 328.167,446.5 335.833,446.5 343.5,446.5C 343.5,451.5 343.5,456.5 343.5,461.5C 337.167,461.5 330.833,461.5 324.5,461.5C 322.833,461.5 321.167,461.5 319.5,461.5C 320.019,456.347 320.353,451.347 320.5,446.5 Z"></path></g>
<g><path style="opacity:1" fill="#a98a55" d="M 523.5,442.5 C 528.346,445.669 533.679,447.002 539.5,446.5C 539.217,447.289 538.717,447.956 538,448.5C 537.88,452.143 537.714,455.643 537.5,459C 537.743,462.003 539.41,463.17 542.5,462.5C 535.668,463.939 529.001,463.272 522.5,460.5C 521.969,454.731 521.635,449.398 521.5,444.5C 521.855,443.478 522.522,442.811 523.5,442.5 Z"></path></g>
<g><path style="opacity:1" fill="#efe5a0" d="M 401.5,440.5 C 409.431,447.027 418.431,449.027 428.5,446.5C 427.791,447.404 426.791,447.737 425.5,447.5C 424.304,453.105 424.304,458.105 425.5,462.5C 415.974,464.02 406.974,462.687 398.5,458.5C 399.728,456.99 399.728,455.49 398.5,454C 401.167,453.333 401.167,452.667 398.5,452C 399.833,450.333 399.833,448.667 398.5,447C 399.167,446.667 399.833,446.333 400.5,446C 399.74,444.559 399.074,443.059 398.5,441.5C 399.325,440.614 400.325,440.281 401.5,440.5 Z"></path></g>
<g><path style="opacity:1" fill="#9f7e49" d="M 45.5,518.5 C 68.1667,518.5 90.8333,518.5 113.5,518.5C 113.539,522.189 113.872,526.189 114.5,530.5C 91.5,530.5 68.5,530.5 45.5,530.5C 45.3149,527.634 45.9815,524.967 47.5,522.5C 46.3698,521.378 45.7031,520.044 45.5,518.5 Z"></path></g>
<g><path style="opacity:1" fill="#ad9058" d="M 113.5,518.5 C 123.833,518.5 134.167,518.5 144.5,518.5C 144.461,519.583 144.127,520.583 143.5,521.5C 144.167,522.5 144.833,523.5 145.5,524.5C 143.615,525.197 143.282,526.197 144.5,527.5C 143.807,528.518 143.141,529.518 142.5,530.5C 133.167,530.5 123.833,530.5 114.5,530.5C 113.872,526.189 113.539,522.189 113.5,518.5 Z"></path></g>
<g><path style="opacity:1" fill="#b79c62" d="M 144.5,518.5 C 156.167,518.5 167.833,518.5 179.5,518.5C 179.08,520.674 179.08,522.674 179.5,524.5C 178.833,524.833 178.167,525.167 177.5,525.5C 177.579,527.128 177.912,528.795 178.5,530.5C 166.5,530.5 154.5,530.5 142.5,530.5C 143.141,529.518 143.807,528.518 144.5,527.5C 143.282,526.197 143.615,525.197 145.5,524.5C 144.833,523.5 144.167,522.5 143.5,521.5C 144.127,520.583 144.461,519.583 144.5,518.5 Z"></path></g>
<g><path style="opacity:1" fill="#c4ad71" d="M 179.5,518.5 C 196.833,518.5 214.167,518.5 231.5,518.5C 230.781,520.317 229.781,520.984 228.5,520.5C 228.977,521.478 229.643,522.311 230.5,523C 229.692,523.308 229.025,523.808 228.5,524.5C 229.641,525.425 229.641,526.259 228.5,527C 229.167,527.333 229.833,527.667 230.5,528C 229.748,528.671 229.414,529.504 229.5,530.5C 212.5,530.5 195.5,530.5 178.5,530.5C 177.912,528.795 177.579,527.128 177.5,525.5C 178.167,525.167 178.833,524.833 179.5,524.5C 179.08,522.674 179.08,520.674 179.5,518.5 Z"></path></g>
<g><path style="opacity:1" fill="#cfbc7d" d="M 231.5,518.5 C 241.5,518.5 251.5,518.5 261.5,518.5C 260.227,522.562 260.227,526.562 261.5,530.5C 250.833,530.5 240.167,530.5 229.5,530.5C 229.414,529.504 229.748,528.671 230.5,528C 229.833,527.667 229.167,527.333 228.5,527C 229.641,526.259 229.641,525.425 228.5,524.5C 229.025,523.808 229.692,523.308 230.5,523C 229.643,522.311 228.977,521.478 228.5,520.5C 229.781,520.984 230.781,520.317 231.5,518.5 Z"></path></g>
<g><path style="opacity:1" fill="#d9c988" d="M 261.5,518.5 C 272.833,518.5 284.167,518.5 295.5,518.5C 294.398,520.092 295.065,520.925 297.5,521C 295.043,522.154 295.043,523.488 297.5,525C 295.431,525.324 295.098,526.158 296.5,527.5C 295.388,528.265 294.721,529.265 294.5,530.5C 283.5,530.5 272.5,530.5 261.5,530.5C 260.227,526.562 260.227,522.562 261.5,518.5 Z"></path></g>
<g><path style="opacity:1" fill="#e3d592" d="M 295.5,518.5 C 306.833,518.5 318.167,518.5 329.5,518.5C 330.087,522.58 330.087,526.58 329.5,530.5C 317.833,530.5 306.167,530.5 294.5,530.5C 294.721,529.265 295.388,528.265 296.5,527.5C 295.098,526.158 295.431,525.324 297.5,525C 295.043,523.488 295.043,522.154 297.5,521C 295.065,520.925 294.398,520.092 295.5,518.5 Z"></path></g>
<g><path style="opacity:1" fill="#ede29c" d="M 329.5,518.5 C 340.5,518.5 351.5,518.5 362.5,518.5C 361.047,519.825 361.381,520.658 363.5,521C 361.431,521.324 361.098,522.158 362.5,523.5C 360.461,525.893 360.794,528.226 363.5,530.5C 352.167,530.5 340.833,530.5 329.5,530.5C 330.087,526.58 330.087,522.58 329.5,518.5 Z"></path></g>
<g><path style="opacity:1" fill="#f6eda6" d="M 362.5,518.5 C 383.167,518.5 403.833,518.5 424.5,518.5C 424.489,520.017 423.823,521.184 422.5,522C 423.061,523.676 424.061,525.009 425.5,526C 422.057,526.221 421.724,527.221 424.5,529C 423.944,529.383 423.611,529.883 423.5,530.5C 403.5,530.5 383.5,530.5 363.5,530.5C 360.794,528.226 360.461,525.893 362.5,523.5C 361.098,522.158 361.431,521.324 363.5,521C 361.381,520.658 361.047,519.825 362.5,518.5 Z"></path></g>
<g><path style="opacity:1" fill="#e7db97" d="M 424.5,518.5 C 441.167,518.5 457.833,518.5 474.5,518.5C 474.047,519.458 473.381,520.292 472.5,521C 473.516,521.519 474.182,522.353 474.5,523.5C 474.416,525.779 474.083,528.112 473.5,530.5C 456.833,530.5 440.167,530.5 423.5,530.5C 423.611,529.883 423.944,529.383 424.5,529C 421.724,527.221 422.057,526.221 425.5,526C 424.061,525.009 423.061,523.676 422.5,522C 423.823,521.184 424.489,520.017 424.5,518.5 Z"></path></g>
<g><path style="opacity:1" fill="#dccd8b" d="M 474.5,518.5 C 485.5,518.5 496.5,518.5 507.5,518.5C 508.684,519.688 508.684,520.855 507.5,522C 509.957,523.512 509.957,524.846 507.5,526C 508.167,526.333 508.833,526.667 509.5,527C 508.663,528.011 508.33,529.178 508.5,530.5C 496.833,530.5 485.167,530.5 473.5,530.5C 474.083,528.112 474.416,525.779 474.5,523.5C 474.182,522.353 473.516,521.519 472.5,521C 473.381,520.292 474.047,519.458 474.5,518.5 Z"></path></g>
<g><path style="opacity:1" fill="#d2c080" d="M 507.5,518.5 C 518.5,518.5 529.5,518.5 540.5,518.5C 540.657,519.873 540.49,521.207 540,522.5C 539.346,521.304 538.846,521.304 538.5,522.5C 538.977,523.478 539.643,524.311 540.5,525C 540.31,526.828 539.977,528.662 539.5,530.5C 529.167,530.5 518.833,530.5 508.5,530.5C 508.33,529.178 508.663,528.011 509.5,527C 508.833,526.667 508.167,526.333 507.5,526C 509.957,524.846 509.957,523.512 507.5,522C 508.684,520.855 508.684,519.688 507.5,518.5 Z"></path></g>
<g><path style="opacity:1" fill="#c6b073" d="M 540.5,518.5 C 555.833,518.5 571.167,518.5 586.5,518.5C 586.64,520.124 585.973,521.29 584.5,522C 585.672,522.419 586.672,523.085 587.5,524C 585.166,525.842 584.832,528.009 586.5,530.5C 570.833,530.5 555.167,530.5 539.5,530.5C 539.977,528.662 540.31,526.828 540.5,525C 539.643,524.311 538.977,523.478 538.5,522.5C 538.846,521.304 539.346,521.304 540,522.5C 540.49,521.207 540.657,519.873 540.5,518.5 Z"></path></g>
<g><path style="opacity:1" fill="#bca368" d="M 586.5,518.5 C 597.167,518.5 607.833,518.5 618.5,518.5C 618.577,519.75 619.244,520.583 620.5,521C 620.455,524.058 619.788,527.224 618.5,530.5C 607.833,530.5 597.167,530.5 586.5,530.5C 584.832,528.009 585.166,525.842 587.5,524C 586.672,523.085 585.672,522.419 584.5,522C 585.973,521.29 586.64,520.124 586.5,518.5 Z"></path></g>
<g><path style="opacity:1" fill="#b1945c" d="M 618.5,518.5 C 631.833,518.5 645.167,518.5 658.5,518.5C 658.751,522.794 658.751,526.794 658.5,530.5C 645.167,530.5 631.833,530.5 618.5,530.5C 619.788,527.224 620.455,524.058 620.5,521C 619.244,520.583 618.577,519.75 618.5,518.5 Z"></path></g>
<g><path style="opacity:1" fill="#a78851" d="M 658.5,518.5 C 668.5,518.5 678.5,518.5 688.5,518.5C 688.918,519.222 689.584,519.722 690.5,520C 687.536,520.84 687.203,521.84 689.5,523C 688.833,523.667 688.167,524.333 687.5,525C 688.861,526.584 689.528,528.418 689.5,530.5C 679.167,530.5 668.833,530.5 658.5,530.5C 658.751,526.794 658.751,522.794 658.5,518.5 Z"></path></g>
<g><path style="opacity:1" fill="#9a7743" d="M 688.5,518.5 C 705.5,518.5 722.5,518.5 739.5,518.5C 739.216,521.777 739.549,524.943 740.5,528C 739.244,528.417 738.577,529.25 738.5,530.5C 722.167,530.5 705.833,530.5 689.5,530.5C 689.528,528.418 688.861,526.584 687.5,525C 688.167,524.333 688.833,523.667 689.5,523C 687.203,521.84 687.536,520.84 690.5,520C 689.584,519.722 688.918,519.222 688.5,518.5 Z"></path></g>
</svg><style>@media (prefers-color-scheme: light) { :root { filter: none; } }
@media (prefers-color-scheme: dark) { :root { filter: none; } }
</style></svg>