<?xml version="1.0" standalone="no"?>
<!DOCTYPE svg PUBLIC "-//W3C//DTD SVG 20010904//EN"
 "http://www.w3.org/TR/2001/REC-SVG-20010904/DTD/svg10.dtd">
<svg version="1.0" xmlns="http://www.w3.org/2000/svg"
 width="512.000000pt" height="512.000000pt" viewBox="0 0 512.000000 512.000000"
 preserveAspectRatio="xMidYMid meet">

<g transform="translate(0.000000,512.000000) scale(0.100000,-0.100000)"
fill="#000000" stroke="none">
<path d="M20 2560 l0 -2530 244 0 243 0 1 55 0 55 -204 0 -204 0 2 2413 3
2412 203 3 203 2 -1 33 c0 17 1 44 4 60 l4 27 -249 0 -249 0 0 -2530z"/>
<path d="M4617 5083 c-3 -5 -5 -32 -4 -60 l0 -53 204 0 203 0 0 -2415 0 -2415
-204 0 -203 0 2 -42 c1 -24 3 -49 4 -55 1 -10 56 -13 241 -13 l240 0 0 2530 0
2530 -239 0 c-132 0 -242 -3 -244 -7z"/>
<path d="M1467 4432 c-3 -4 -8 -27 -12 -52 -4 -25 -13 -76 -20 -115 -8 -38
-23 -122 -35 -185 -12 -63 -30 -158 -41 -210 -10 -52 -19 -98 -19 -102 0 -4
53 -8 118 -8 l117 0 -2 331 c-2 183 -4 333 -5 334 -9 7 -98 13 -101 7z"/>
<path d="M3578 4433 l-36 -4 1 -332 2 -332 51 -3 52 -3 22 118 c12 65 28 150
35 188 7 39 23 122 35 185 12 63 25 132 30 153 l8 37 -82 -2 c-44 -1 -98 -3
-118 -5z"/>
<path d="M1310 1455 l0 -75 70 0 70 0 0 -345 0 -345 50 0 c41 0 50 3 51 18 2
74 0 805 -3 807 -2 1 -56 5 -120 9 l-118 6 0 -75z"/>
<path d="M3567 1522 c-2 -4 -3 -35 -2 -70 1 -59 4 -65 37 -92 19 -16 46 -53
59 -82 21 -46 24 -68 24 -173 0 -106 -3 -126 -24 -167 -13 -26 -38 -61 -57
-77 -31 -28 -34 -35 -37 -100 -5 -84 3 -88 76 -41 43 27 100 100 121 155 23
57 35 141 36 234 0 168 -41 285 -128 361 -42 38 -98 65 -105 52z"/>
</g>
</svg>
